<svg width="152" height="31" viewBox="0 0 152 31" fill="none" xmlns="http://www.w3.org/2000/svg">
<path d="M33.8295 23H31.6136L38.0227 5.54545H40.2045L46.6136 23H44.3977L39.1818 8.30682H39.0454L33.8295 23ZM34.6477 16.1818H43.5795V18.0568H34.6477V16.1818ZM51.071 15.125V23H49.0596V9.90909H51.0028V11.9545H51.1733C51.4801 11.2898 51.946 10.7557 52.571 10.3523C53.196 9.94318 54.0028 9.73864 54.9915 9.73864C55.8778 9.73864 56.6534 9.92045 57.3182 10.2841C57.9829 10.642 58.5 11.1875 58.8693 11.9205C59.2386 12.6477 59.4233 13.5682 59.4233 14.6818V23H57.4119V14.8182C57.4119 13.7898 57.1449 12.9886 56.6108 12.4148C56.0767 11.8352 55.3437 11.5455 54.4119 11.5455C53.7699 11.5455 53.196 11.6847 52.6903 11.9631C52.1903 12.2415 51.7954 12.6477 51.5057 13.1818C51.2159 13.7159 51.071 14.3636 51.071 15.125ZM68.7919 9.90909V11.6136H62.0078V9.90909H68.7919ZM63.9851 6.77273H65.9964V19.25C65.9964 19.8182 66.0788 20.2443 66.2436 20.5284C66.414 20.8068 66.63 20.9943 66.8913 21.0909C67.1584 21.1818 67.4396 21.2273 67.7351 21.2273C67.9567 21.2273 68.1385 21.2159 68.2805 21.1932C68.4226 21.1648 68.5362 21.142 68.6214 21.125L69.0305 22.9318C68.8942 22.983 68.7038 23.0341 68.4595 23.0852C68.2152 23.142 67.9055 23.1705 67.5305 23.1705C66.9623 23.1705 66.4055 23.0483 65.8601 22.804C65.3203 22.5597 64.8714 22.1875 64.5135 21.6875C64.1612 21.1875 63.9851 20.5568 63.9851 19.7955V6.77273ZM77.1655 23.2727C75.9041 23.2727 74.816 22.9943 73.9013 22.4375C72.9922 21.875 72.2905 21.0909 71.7961 20.0852C71.3075 19.0739 71.0632 17.8977 71.0632 16.5568C71.0632 15.2159 71.3075 14.0341 71.7961 13.0114C72.2905 11.983 72.978 11.1818 73.8586 10.608C74.745 10.0284 75.7791 9.73864 76.9609 9.73864C77.6427 9.73864 78.316 9.85227 78.9808 10.0795C79.6456 10.3068 80.2507 10.6761 80.7961 11.1875C81.3416 11.6932 81.7763 12.3636 82.1001 13.1989C82.424 14.0341 82.5859 15.0625 82.5859 16.2841V17.1364H72.495V15.3977H80.5405C80.5405 14.6591 80.3927 14 80.0973 13.4205C79.8075 12.8409 79.3927 12.3835 78.853 12.0483C78.3189 11.7131 77.6882 11.5455 76.9609 11.5455C76.1598 11.5455 75.4666 11.7443 74.8814 12.142C74.3018 12.5341 73.8558 13.0455 73.5433 13.6761C73.2308 14.3068 73.0746 14.983 73.0746 15.7045V16.8636C73.0746 17.8523 73.245 18.6903 73.5859 19.3778C73.9325 20.0597 74.4126 20.5795 75.0263 20.9375C75.6399 21.2898 76.353 21.4659 77.1655 21.4659C77.6939 21.4659 78.1711 21.392 78.5973 21.2443C79.0291 21.0909 79.4013 20.8636 79.7138 20.5625C80.0263 20.2557 80.2677 19.875 80.4382 19.4205L82.3814 19.9659C82.1768 20.625 81.8331 21.2045 81.3501 21.7045C80.8672 22.1989 80.2706 22.5852 79.5604 22.8636C78.8501 23.1364 78.0518 23.2727 77.1655 23.2727ZM85.6456 23V9.90909H87.5888V11.8864H87.7251C87.9638 11.2386 88.3956 10.7131 89.0206 10.3097C89.6456 9.90625 90.3501 9.70454 91.1342 9.70454C91.2819 9.70454 91.4666 9.70739 91.6882 9.71307C91.9098 9.71875 92.0774 9.72727 92.191 9.73864V11.7841C92.1229 11.767 91.9666 11.7415 91.7223 11.7074C91.4836 11.6676 91.2308 11.6477 90.9638 11.6477C90.3274 11.6477 89.7592 11.7812 89.2592 12.0483C88.7649 12.3097 88.3729 12.6733 88.0831 13.1392C87.799 13.5994 87.6569 14.125 87.6569 14.7159V23H85.6456ZM94.5753 23V9.90909H96.5866V23H94.5753ZM95.598 7.72727C95.206 7.72727 94.8679 7.59375 94.5838 7.3267C94.3054 7.05966 94.1662 6.73864 94.1662 6.36364C94.1662 5.98864 94.3054 5.66761 94.5838 5.40057C94.8679 5.13352 95.206 5 95.598 5C95.99 5 96.3253 5.13352 96.6037 5.40057C96.8878 5.66761 97.0298 5.98864 97.0298 6.36364C97.0298 6.73864 96.8878 7.05966 96.6037 7.3267C96.3253 7.59375 95.99 7.72727 95.598 7.72727ZM105.589 23.2727C104.407 23.2727 103.37 22.9915 102.478 22.429C101.592 21.8665 100.898 21.0795 100.398 20.0682C99.9041 19.0568 99.6569 17.875 99.6569 16.5227C99.6569 15.1591 99.9041 13.9687 100.398 12.9517C100.898 11.9347 101.592 11.1449 102.478 10.5824C103.37 10.0199 104.407 9.73864 105.589 9.73864C106.771 9.73864 107.805 10.0199 108.691 10.5824C109.583 11.1449 110.276 11.9347 110.771 12.9517C111.271 13.9687 111.521 15.1591 111.521 16.5227C111.521 17.875 111.271 19.0568 110.771 20.0682C110.276 21.0795 109.583 21.8665 108.691 22.429C107.805 22.9915 106.771 23.2727 105.589 23.2727ZM105.589 21.4659C106.486 21.4659 107.225 21.2358 107.805 20.7756C108.384 20.3153 108.813 19.7102 109.092 18.9602C109.37 18.2102 109.509 17.3977 109.509 16.5227C109.509 15.6477 109.37 14.8324 109.092 14.0767C108.813 13.321 108.384 12.7102 107.805 12.2443C107.225 11.7784 106.486 11.5455 105.589 11.5455C104.691 11.5455 103.952 11.7784 103.373 12.2443C102.793 12.7102 102.364 13.321 102.086 14.0767C101.808 14.8324 101.668 15.6477 101.668 16.5227C101.668 17.3977 101.808 18.2102 102.086 18.9602C102.364 19.7102 102.793 20.3153 103.373 20.7756C103.952 21.2358 104.691 21.4659 105.589 21.4659ZM114.591 23V9.90909H116.534V11.8864H116.67C116.909 11.2386 117.341 10.7131 117.966 10.3097C118.591 9.90625 119.295 9.70454 120.08 9.70454C120.227 9.70454 120.412 9.70739 120.634 9.71307C120.855 9.71875 121.023 9.72727 121.136 9.73864V11.7841C121.068 11.767 120.912 11.7415 120.668 11.7074C120.429 11.6676 120.176 11.6477 119.909 11.6477C119.273 11.6477 118.705 11.7812 118.205 12.0483C117.71 12.3097 117.318 12.6733 117.028 13.1392C116.744 13.5994 116.602 14.125 116.602 14.7159V23H114.591Z" fill="white"/>
<path d="M31 27.7727H121.682V29.4091H31V27.7727Z" fill="white"/>
<path d="M5.99998 15L24.75 5.47372V24.5263L5.99998 15Z" fill="white"/>
<path d="M2.04449 4.00018L2.04497 25.9998" stroke="white" stroke-width="3"/>
</svg>
