<svg width="180" height="40" viewBox="0 0 180 40" fill="none" xmlns="http://www.w3.org/2000/svg">
<path d="M47.3125 30.25C47.1475 30.25 46.9855 30.2063 46.8428 30.1234L29.0303 19.8109C28.8882 19.7285 28.7703 19.6102 28.6883 19.4679C28.6064 19.3256 28.5632 19.1642 28.5632 19C28.5632 18.8358 28.6064 18.6744 28.6883 18.5321C28.7703 18.3898 28.8882 18.2715 29.0303 18.1891L46.8428 7.87656C46.9853 7.79409 47.147 7.75058 47.3116 7.75042C47.4762 7.75026 47.638 7.79345 47.7806 7.87564C47.9232 7.95784 48.0417 8.07615 48.1241 8.21866C48.2065 8.36118 48.2499 8.52288 48.25 8.6875V29.3125C48.25 29.5611 48.1512 29.7996 47.9754 29.9754C47.7996 30.1512 47.5611 30.25 47.3125 30.25ZM23.875 7.75H25.75V30.25H23.875V7.75Z" fill="black"/>
<rect x="0.5" y="0.5" width="179" height="39" rx="4.5" stroke="black"/>
<path d="M70.0748 27H68.2282L73.5691 12.4545H75.3873L80.7282 27H78.8816L74.535 14.7557H74.4213L70.0748 27ZM70.7566 21.3182H78.1998V22.8807H70.7566V21.3182ZM84.4426 20.4375V27H82.7665V16.0909H84.3858V17.7955H84.5279C84.7836 17.2415 85.1718 16.7964 85.6926 16.4602C86.2135 16.1193 86.8858 15.9489 87.7097 15.9489C88.4483 15.9489 89.0946 16.1004 89.6486 16.4034C90.2026 16.7017 90.6335 17.1562 90.9412 17.767C91.249 18.3731 91.4029 19.1402 91.4029 20.0682V27H89.7267V20.1818C89.7267 19.3248 89.5042 18.6572 89.0591 18.179C88.6141 17.696 88.0033 17.4545 87.2267 17.4545C86.6917 17.4545 86.2135 17.5705 85.7921 17.8026C85.3754 18.0346 85.0463 18.3731 84.8049 18.8182C84.5634 19.2633 84.4426 19.803 84.4426 20.4375ZM99.21 16.0909V17.5114H93.5566V16.0909H99.21ZM95.2044 13.4773H96.8805V23.875C96.8805 24.3485 96.9492 24.7036 97.0865 24.9403C97.2285 25.1723 97.4084 25.3286 97.6262 25.4091C97.8488 25.4848 98.0832 25.5227 98.3294 25.5227C98.514 25.5227 98.6655 25.5133 98.7839 25.4943C98.9023 25.4706 98.997 25.4517 99.068 25.4375L99.4089 26.9432C99.2953 26.9858 99.1367 27.0284 98.9331 27.071C98.7295 27.1184 98.4714 27.142 98.1589 27.142C97.6854 27.142 97.2214 27.0402 96.7669 26.8366C96.3171 26.633 95.943 26.3229 95.6447 25.9062C95.3511 25.4896 95.2044 24.964 95.2044 24.3295V13.4773ZM106.188 27.2273C105.137 27.2273 104.23 26.9953 103.468 26.5312C102.71 26.0625 102.126 25.4091 101.714 24.571C101.306 23.7282 101.103 22.7481 101.103 21.6307C101.103 20.5133 101.306 19.5284 101.714 18.6761C102.126 17.8191 102.698 17.1515 103.432 16.6733C104.171 16.1903 105.033 15.9489 106.018 15.9489C106.586 15.9489 107.147 16.0436 107.701 16.233C108.255 16.4223 108.759 16.7301 109.214 17.1562C109.668 17.5777 110.03 18.1364 110.3 18.8324C110.57 19.5284 110.705 20.3854 110.705 21.4034V22.1136H102.296V20.6648H109.001C109.001 20.0492 108.877 19.5 108.631 19.017C108.39 18.5341 108.044 18.1529 107.594 17.8736C107.149 17.5942 106.624 17.4545 106.018 17.4545C105.35 17.4545 104.772 17.6203 104.285 17.9517C103.802 18.2784 103.43 18.7045 103.17 19.2301C102.909 19.7557 102.779 20.3191 102.779 20.9205V21.8864C102.779 22.7102 102.921 23.4086 103.205 23.9815C103.494 24.5497 103.894 24.983 104.405 25.2812C104.917 25.5748 105.511 25.7216 106.188 25.7216C106.628 25.7216 107.026 25.66 107.381 25.5369C107.741 25.4091 108.051 25.2197 108.312 24.9688C108.572 24.7131 108.773 24.3958 108.915 24.017L110.535 24.4716C110.364 25.0208 110.078 25.5038 109.675 25.9205C109.273 26.3324 108.776 26.6544 108.184 26.8864C107.592 27.1136 106.927 27.2273 106.188 27.2273ZM113.255 27V16.0909H114.874V17.7386H114.988C115.187 17.1989 115.546 16.7609 116.067 16.4247C116.588 16.0885 117.175 15.9205 117.829 15.9205C117.952 15.9205 118.106 15.9228 118.29 15.9276C118.475 15.9323 118.615 15.9394 118.709 15.9489V17.6534C118.653 17.6392 118.522 17.6179 118.319 17.5895C118.12 17.5563 117.909 17.5398 117.687 17.5398C117.156 17.5398 116.683 17.651 116.266 17.8736C115.854 18.0914 115.528 18.3944 115.286 18.7827C115.049 19.1662 114.931 19.6042 114.931 20.0966V27H113.255ZM120.696 27V16.0909H122.372V27H120.696ZM121.548 14.2727C121.222 14.2727 120.94 14.1615 120.703 13.9389C120.471 13.7164 120.355 13.4489 120.355 13.1364C120.355 12.8239 120.471 12.5563 120.703 12.3338C120.94 12.1113 121.222 12 121.548 12C121.875 12 122.155 12.1113 122.387 12.3338C122.623 12.5563 122.742 12.8239 122.742 13.1364C122.742 13.4489 122.623 13.7164 122.387 13.9389C122.155 14.1615 121.875 14.2727 121.548 14.2727ZM129.874 27.2273C128.889 27.2273 128.025 26.9929 127.282 26.5241C126.543 26.0554 125.965 25.3996 125.549 24.5568C125.137 23.714 124.931 22.7292 124.931 21.6023C124.931 20.4659 125.137 19.474 125.549 18.6264C125.965 17.7789 126.543 17.1207 127.282 16.652C128.025 16.1832 128.889 15.9489 129.874 15.9489C130.859 15.9489 131.721 16.1832 132.459 16.652C133.203 17.1207 133.78 17.7789 134.192 18.6264C134.609 19.474 134.817 20.4659 134.817 21.6023C134.817 22.7292 134.609 23.714 134.192 24.5568C133.78 25.3996 133.203 26.0554 132.459 26.5241C131.721 26.9929 130.859 27.2273 129.874 27.2273ZM129.874 25.7216C130.622 25.7216 131.238 25.5298 131.721 25.1463C132.204 24.7628 132.561 24.2585 132.793 23.6335C133.025 23.0085 133.141 22.3314 133.141 21.6023C133.141 20.8731 133.025 20.1937 132.793 19.5639C132.561 18.9342 132.204 18.4252 131.721 18.0369C131.238 17.6487 130.622 17.4545 129.874 17.4545C129.126 17.4545 128.51 17.6487 128.028 18.0369C127.545 18.4252 127.187 18.9342 126.955 19.5639C126.723 20.1937 126.607 20.8731 126.607 21.6023C126.607 22.3314 126.723 23.0085 126.955 23.6335C127.187 24.2585 127.545 24.7628 128.028 25.1463C128.51 25.5298 129.126 25.7216 129.874 25.7216ZM137.376 27V16.0909H138.995V17.7386H139.109C139.308 17.1989 139.668 16.7609 140.188 16.4247C140.709 16.0885 141.296 15.9205 141.95 15.9205C142.073 15.9205 142.227 15.9228 142.411 15.9276C142.596 15.9323 142.736 15.9394 142.83 15.9489V17.6534C142.774 17.6392 142.643 17.6179 142.44 17.5895C142.241 17.5563 142.03 17.5398 141.808 17.5398C141.277 17.5398 140.804 17.651 140.387 17.8736C139.975 18.0914 139.649 18.3944 139.407 18.7827C139.17 19.1662 139.052 19.6042 139.052 20.0966V27H137.376Z" fill="black"/>
</svg>
