<svg width="128" height="31" viewBox="0 0 128 31" fill="none" xmlns="http://www.w3.org/2000/svg">
<path d="M2.11364 23V5.54545H8.01136C9.38068 5.54545 10.5 5.79261 11.3693 6.28693C12.2443 6.77557 12.892 7.4375 13.3125 8.27273C13.733 9.10795 13.9432 10.0398 13.9432 11.0682C13.9432 12.0966 13.733 13.0312 13.3125 13.8722C12.8977 14.7131 12.2557 15.3835 11.3864 15.8835C10.517 16.3778 9.40341 16.625 8.04545 16.625H3.81818V14.75H7.97727C8.91477 14.75 9.66761 14.5881 10.2358 14.2642C10.804 13.9403 11.2159 13.5028 11.4716 12.9517C11.733 12.3949 11.8636 11.767 11.8636 11.0682C11.8636 10.3693 11.733 9.74432 11.4716 9.19318C11.2159 8.64205 10.8011 8.21023 10.2273 7.89773C9.65341 7.57955 8.89205 7.42045 7.94318 7.42045H4.22727V23H2.11364ZM17.0753 23V9.90909H19.0185V11.8864H19.1548C19.3935 11.2386 19.8253 10.7131 20.4503 10.3097C21.0753 9.90625 21.7798 9.70454 22.5639 9.70454C22.7116 9.70454 22.8963 9.70739 23.1179 9.71307C23.3395 9.71875 23.5071 9.72727 23.6207 9.73864V11.7841C23.5526 11.767 23.3963 11.7415 23.152 11.7074C22.9134 11.6676 22.6605 11.6477 22.3935 11.6477C21.7571 11.6477 21.1889 11.7812 20.6889 12.0483C20.1946 12.3097 19.8026 12.6733 19.5128 13.1392C19.2287 13.5994 19.0866 14.125 19.0866 14.7159V23H17.0753ZM30.9247 23.2727C29.7429 23.2727 28.706 22.9915 27.8139 22.429C26.9276 21.8665 26.2344 21.0795 25.7344 20.0682C25.2401 19.0568 24.9929 17.875 24.9929 16.5227C24.9929 15.1591 25.2401 13.9687 25.7344 12.9517C26.2344 11.9347 26.9276 11.1449 27.8139 10.5824C28.706 10.0199 29.7429 9.73864 30.9247 9.73864C32.1065 9.73864 33.1406 10.0199 34.027 10.5824C34.919 11.1449 35.6122 11.9347 36.1065 12.9517C36.6065 13.9687 36.8565 15.1591 36.8565 16.5227C36.8565 17.875 36.6065 19.0568 36.1065 20.0682C35.6122 21.0795 34.919 21.8665 34.027 22.429C33.1406 22.9915 32.1065 23.2727 30.9247 23.2727ZM30.9247 21.4659C31.8224 21.4659 32.5611 21.2358 33.1406 20.7756C33.7202 20.3153 34.1491 19.7102 34.4276 18.9602C34.706 18.2102 34.8452 17.3977 34.8452 16.5227C34.8452 15.6477 34.706 14.8324 34.4276 14.0767C34.1491 13.321 33.7202 12.7102 33.1406 12.2443C32.5611 11.7784 31.8224 11.5455 30.9247 11.5455C30.027 11.5455 29.2884 11.7784 28.7088 12.2443C28.1293 12.7102 27.7003 13.321 27.4219 14.0767C27.1435 14.8324 27.0043 15.6477 27.0043 16.5227C27.0043 17.3977 27.1435 18.2102 27.4219 18.9602C27.7003 19.7102 28.1293 20.3153 28.7088 20.7756C29.2884 21.2358 30.027 21.4659 30.9247 21.4659ZM30.0043 8.13636L32.0838 4.18182H34.4361L31.777 8.13636H30.0043ZM40.8878 9.90909L44.0241 15.2614L47.1605 9.90909H49.4787L45.2514 16.4545L49.4787 23H47.1605L44.0241 17.9205L40.8878 23H38.5696L42.7287 16.4545L38.5696 9.90909H40.8878ZM52.3487 23V9.90909H54.3601V23H52.3487ZM53.3714 7.72727C52.9794 7.72727 52.6413 7.59375 52.3572 7.3267C52.0788 7.05966 51.9396 6.73864 51.9396 6.36364C51.9396 5.98864 52.0788 5.66761 52.3572 5.40057C52.6413 5.13352 52.9794 5 53.3714 5C53.7635 5 54.0987 5.13352 54.3771 5.40057C54.6612 5.66761 54.8033 5.98864 54.8033 6.36364C54.8033 6.73864 54.6612 7.05966 54.3771 7.3267C54.0987 7.59375 53.7635 7.72727 53.3714 7.72727ZM58.044 23V9.90909H59.9872V11.9545H60.1577C60.4304 11.2557 60.8707 10.7131 61.4787 10.3267C62.0866 9.93466 62.8168 9.73864 63.669 9.73864C64.5327 9.73864 65.2514 9.93466 65.8253 10.3267C66.4048 10.7131 66.8565 11.2557 67.1804 11.9545H67.3168C67.652 11.2784 68.1548 10.7415 68.8253 10.3438C69.4957 9.94034 70.2997 9.73864 71.2372 9.73864C72.4077 9.73864 73.3651 10.1051 74.1094 10.8381C74.8537 11.5653 75.2259 12.6989 75.2259 14.2386V23H73.2145V14.2386C73.2145 13.2727 72.9503 12.5824 72.4219 12.1676C71.8935 11.7528 71.2713 11.5455 70.5554 11.5455C69.6349 11.5455 68.9219 11.8239 68.4162 12.3807C67.9105 12.9318 67.6577 13.6307 67.6577 14.4773V23H65.6122V14.0341C65.6122 13.2898 65.3707 12.6903 64.8878 12.2358C64.4048 11.7756 63.7827 11.5455 63.0213 11.5455C62.4986 11.5455 62.0099 11.6847 61.5554 11.9631C61.1065 12.2415 60.7429 12.6278 60.4645 13.1222C60.1918 13.6108 60.0554 14.1761 60.0554 14.8182V23H58.044ZM84.2216 23.2727C83.0398 23.2727 82.0028 22.9915 81.1108 22.429C80.2244 21.8665 79.5312 21.0795 79.0312 20.0682C78.5369 19.0568 78.2898 17.875 78.2898 16.5227C78.2898 15.1591 78.5369 13.9687 79.0312 12.9517C79.5312 11.9347 80.2244 11.1449 81.1108 10.5824C82.0028 10.0199 83.0398 9.73864 84.2216 9.73864C85.4034 9.73864 86.4375 10.0199 87.3239 10.5824C88.2159 11.1449 88.9091 11.9347 89.4034 12.9517C89.9034 13.9687 90.1534 15.1591 90.1534 16.5227C90.1534 17.875 89.9034 19.0568 89.4034 20.0682C88.9091 21.0795 88.2159 21.8665 87.3239 22.429C86.4375 22.9915 85.4034 23.2727 84.2216 23.2727ZM84.2216 21.4659C85.1193 21.4659 85.858 21.2358 86.4375 20.7756C87.017 20.3153 87.446 19.7102 87.7244 18.9602C88.0028 18.2102 88.142 17.3977 88.142 16.5227C88.142 15.6477 88.0028 14.8324 87.7244 14.0767C87.446 13.321 87.017 12.7102 86.4375 12.2443C85.858 11.7784 85.1193 11.5455 84.2216 11.5455C83.3239 11.5455 82.5852 11.7784 82.0057 12.2443C81.4261 12.7102 80.9972 13.321 80.7188 14.0767C80.4403 14.8324 80.3011 15.6477 80.3011 16.5227C80.3011 17.3977 80.4403 18.2102 80.7188 18.9602C80.9972 19.7102 81.4261 20.3153 82.0057 20.7756C82.5852 21.2358 83.3239 21.4659 84.2216 21.4659Z" fill="white"/>
<path d="M0 27.7727H91.3807V29.4091H0V27.7727Z" fill="white"/>
<path d="M121 16L102.25 6.47372V25.5263L121 16Z" fill="white"/>
<path d="M125 5.50018L125 27.4998" stroke="white" stroke-width="3"/>
</svg>
