<svg width="98" height="108" viewBox="0 0 98 108" fill="none" xmlns="http://www.w3.org/2000/svg">
<path d="M38.9199 27.5267C36.1264 27.5267 33.3113 27.4147 30.5208 27.5267C27.6697 27.6411 27.5179 35.5083 29.6476 36.4943C31.6929 37.4412 37.6123 38.2985 39.6684 37.1199C42.9789 35.2223 41.7101 28.1753 38.9199 26.7759" stroke="black" stroke-width="3" stroke-linecap="round"/>
<path d="M45.7734 29.1665C44.5063 28.3375 42.639 26.8135 41.2178 28.3172C39.6964 29.927 39.457 33.3541 40.1697 35.3337C42.0719 40.618 48.6318 42.3133 52.9495 39.1149C56.7791 36.2781 57.5647 32.287 53.1309 29.7731C48.3752 27.0767 45.506 29.1846 41.4194 32.0782" stroke="black" stroke-width="3" stroke-linecap="round"/>
<path d="M47.1528 26.7759C49.7455 27.0649 48.6497 33.782 48.6497 35.7852" stroke="black" stroke-width="3" stroke-linecap="round"/>
<path d="M46.4991 33.8978C50.7434 40.6712 50.1368 30.4185 46.5193 34.3629C45.1946 35.8072 44.0203 37.9451 46.3378 39.0743C48.3365 40.0481 49.2379 37.0828 49.301 35.5963C49.5038 30.8148 44.4511 36.3981 46.9426 37.861C47.9642 38.4609 49.1079 32.5692 46.1363 37.5375" stroke="black" stroke-width="3" stroke-linecap="round"/>
<path d="M32.7115 31.3502C33.0268 33.3454 34.6608 37.2942 36.0173 33.2509C36.4776 31.8788 35.9258 29.2559 34.0822 30.9054C32.8856 31.9759 31.665 34.3494 33.3565 35.5561C34.6459 36.4759 36.0029 34.3732 35.8963 33.2509C35.4573 28.627 31.5327 33.9628 33.5984 35.0303C34.5839 35.5396 35.441 30.1548 32.7115 34.262" stroke="black" stroke-width="3" stroke-linecap="round"/>
<path d="M37.7909 38.9936C36.5212 43.477 36.3863 47.8407 36.0574 52.4603C35.9116 54.5078 35.6207 57.1897 36.4202 59.1331C38.1557 63.3515 41.7249 58.7729 42.8706 56.8279C46.3859 50.8604 45.0476 44.7064 45.0476 38.2656" stroke="black" stroke-width="3" stroke-linecap="round"/>
<path d="M28.7202 56.1001C32.0784 61.9187 38.261 67.7474 45.209 63.5816C47.2245 62.3732 50.2477 59.9851 50.8531 57.556" stroke="black" stroke-width="3" stroke-linecap="round"/>
<path d="M47.9504 56.0998C49.5243 54.9339 52.0109 52.3739 53.8364 54.6237C55.356 56.4965 54.6277 59.3592 54.4814 61.5593" stroke="black" stroke-width="3" stroke-linecap="round"/>
<path d="M29.0829 51.7324C24.6644 52.2249 24.5968 53.1046 25.4546 57.1919" stroke="black" stroke-width="3" stroke-linecap="round"/>
<path d="M30.5344 69.9307C32.2922 72.8056 34.9897 76.0793 38.7183 74.3792C40.1194 73.7403 40.8504 72.3999 42.1451 71.7505" stroke="black" stroke-width="3" stroke-linecap="round"/>
<path d="M20.7378 51.7321C21.6388 61.7751 23.1166 72.0914 26.7245 81.5572C27.7584 84.2696 31.4621 86.2518 34.2433 86.592C38.4817 87.1105 42.2244 86.3264 45.5717 83.5792C52.3241 78.0373 57.7133 71.2238 61.738 63.5004C64.6055 57.9974 67.3634 51.7231 68.4101 45.5851C69.3031 40.348 70.934 33.2368 69.6397 27.9933C68.2892 22.5225 65.9318 19.5935 61.2945 16.6295C56.0757 13.2938 52.3401 8.46045 45.6322 8.46045C37.9653 8.46045 28.6024 11.0267 23.2978 16.7913C20.8635 19.4366 18.7964 21.6997 18.0165 25.2636C17.1861 29.0586 16.3838 32.5265 16.3838 36.4455C16.3838 41.0029 17.1095 45.4608 17.1095 50.0336C17.1095 53.1119 17.5336 56.5867 18.9236 59.3754" stroke="black" stroke-width="3" stroke-linecap="round"/>
<path d="M68.269 46.6366C69.7191 44.0822 71.2028 41.9872 74.2961 41.3389C78.998 40.3533 80.6978 44.8693 80.1619 48.7395C79.7391 51.793 78.5434 55.6894 76.2514 57.8387C72.4532 61.4003 66.5486 60.8313 61.738 60.8313" stroke="black" stroke-width="3" stroke-linecap="round"/>
<path d="M18.198 41.177C17.0784 37.5833 15.5393 34.5743 11.7274 33.2506C7.55165 31.8007 5.6524 34.7881 4.06762 38.2855C1.94812 42.963 3.06665 47.8771 5.2166 52.3791C7.97981 58.1653 12.2758 59.1746 18.198 58.2835" stroke="black" stroke-width="3" stroke-linecap="round"/>
<path d="M70.4461 45.9089C72.8319 44.6808 75.4109 43.3788 76.3724 46.7986C76.794 48.2981 76.756 49.8588 75.7274 51.0853C72.4062 55.0455 68.0855 56.0175 63.1895 56.4639" stroke="black" stroke-width="3" stroke-linecap="round"/>
<path d="M68.6318 50.2764C67.2305 51.9738 66.4221 52.2946 64.6406 53.1881" stroke="black" stroke-width="3" stroke-linecap="round"/>
<path d="M15.2955 40.4495C13.46 38.835 11.9797 36.9943 9.32887 37.2143C6.01241 37.4894 4.69618 39.4036 4.32983 42.512C3.90505 46.1162 3.61494 50.5843 7.7969 51.8538C9.63331 52.4113 11.7647 52.5935 13.4813 51.7325" stroke="black" stroke-width="3" stroke-linecap="round"/>
<path d="M15.6583 46.2729C14.1278 47.1827 11.3319 48.5328 12.4735 50.8428C13.3086 52.5326 14.8809 52.6561 16.384 53.1883" stroke="black" stroke-width="3" stroke-linecap="round"/>
<path d="M45.4106 25.5269C47.962 22.4462 50.6742 21.6178 52.7479 25.6482C52.8106 25.7699 54.1186 27.6751 54.1186 26.6188C54.1186 22.774 49.7331 21.8872 46.862 21.8872" stroke="black" stroke-width="3" stroke-linecap="round"/>
<path d="M36.7025 24.4351C35.8162 22.758 33.3198 17.2572 30.9173 20.2697C30.5355 20.7484 29.5372 24.1285 30.2521 23.4645C31.2334 22.553 32.8855 19.7844 34.3642 19.7844C37.0111 19.7844 36.9826 24.314 37.0653 25.8909" stroke="black" stroke-width="3" stroke-linecap="round"/>
<path d="M42.662 14.7632C36.9137 13.7148 36.6414 2 42.3294 2C45.7837 2 53.1402 2.2774 53.1402 7.25545C53.1402 10.4817 48.7622 11.6548 45.8221 11.7601C43.2435 11.8525 42.1902 11.3392 42.7036 8.50675C42.8776 7.54676 45.6832 8.00623 46.4042 8.00623" stroke="black" stroke-width="3" stroke-linecap="round"/>
<path d="M56.1516 25.2956C59.2691 25.2956 62.3657 24.3163 63.9812 21.3244C64.3232 20.6911 64.0298 19.787 63.6733 19.2506C63.0084 18.2502 63.4193 19.5901 63.9152 19.9345C70.8344 24.7397 69.2156 34.4001 69.2156 41.8862C69.2156 43.67 62.7008 47.7794 61.7819 46.1663C60.4502 43.8285 60.7971 40.1262 60.5943 37.5621C60.4683 35.9705 60.2265 34.444 59.8905 32.8849C59.4954 31.0519 59.7183 33.4934 59.6925 34.0101C59.4907 38.0584 58.6848 31.5801 58.5049 30.7229C57.9235 27.9528 57.3514 28.1706 58.9228 29.6639C60.3015 30.9741 60.857 28.2459 60.9022 27.3694C60.9183 27.056 60.9958 25.7535 61.298 26.9282C61.8879 29.2209 61.6939 31.7563 61.6939 34.0983C61.6939 39.9737 61.6105 32.8293 61.7379 30.9435C61.9278 28.1332 62.5862 31.7283 62.6396 32.1569C62.8588 33.9154 62.7687 35.6712 62.9036 37.4297C62.9521 38.0633 63.5641 36.3127 63.6733 35.6868C64.0805 33.3529 63.6567 30.16 64.553 27.9872C64.8573 27.2496 66.8844 34.2807 66.9283 34.4955C68.1155 40.3071 67.4107 35.1172 67.3242 32.8408C67.2416 30.6654 66.8106 24.1758 67.2362 26.3105C67.7314 28.794 67.6881 31.6026 67.852 34.1204C67.9629 35.8232 68.9232 40.4877 67.7641 39.2388C67.3354 38.7769 66.8709 36.6896 66.8403 36.5472C66.0908 33.0584 65.7234 29.4767 65.3228 25.9354C65.3142 25.8591 64.861 20.6856 64.861 21.4127C64.861 24.3617 64.861 27.3106 64.861 30.2596C64.861 31.5103 64.5817 40.4457 64.4651 34.5175C64.4285 32.6579 64.8204 29.4992 63.8493 27.8107C62.9917 26.3196 63.8955 31.2539 63.9812 32.9732C64.0457 34.2659 64.5053 38.0388 63.9812 36.8561C62.6227 33.7898 63.6733 28.3264 63.6733 25.0309C63.6733 24.3688 63.6464 22.3871 63.7173 23.0453C64.0185 25.84 64.321 28.6163 64.4211 31.4288C64.4763 32.9805 64.4651 34.5319 64.4651 36.0839C64.4651 37.6784 64.0741 32.919 63.8493 31.3406C63.6308 29.8066 63.6733 30.0209 63.6733 31.2965C63.6733 33.4269 63.7273 35.5649 63.6733 37.6945C63.6403 38.998 63.1867 39.7482 62.6616 38.0033C62.2268 36.5585 61.6799 33.96 62.1118 32.4437C62.8123 29.9844 62.7708 37.5162 63.0795 40.0551C63.4244 42.8924 63.2774 39.2935 63.2774 38.4004" stroke="black" stroke-width="3" stroke-linecap="round"/>
<path d="M21.8263 30.2584C22.2592 29.7493 24.8488 26.2933 24.467 26.9827C23.5464 28.6449 21.9876 31.4379 21.9876 33.3521C21.9876 35.3355 23.8381 29.8433 24.6484 28.0341C24.8221 27.6463 27.0319 23.6472 25.7369 25.6885C24.6575 27.39 23.4348 28.9698 22.2295 30.5819C21.7231 31.2591 20.4928 33.4252 20.6975 32.6039C20.9339 31.6554 22.2665 30.2064 22.7737 29.5102C23.8547 28.0264 27.4382 23.9975 25.878 24.9606C24.1267 26.0417 22.7172 28.6543 21.4837 30.2381C20.4798 31.5271 18.7979 33.6655 20.6169 30.8245C22.8484 27.3393 25.2925 23.9921 27.5914 20.5526C30.0703 16.8436 15.6518 33.6873 19.1656 30.9458C20.5596 29.8582 21.781 27.967 22.8947 26.6187C23.283 26.1486 25.9829 22.082 25.6764 22.2511C23.7454 23.3165 22.1178 25.6086 20.6572 27.2253C18.8889 29.1826 22.2086 25.1489 22.4109 24.8797C23.7424 23.108 25.7617 20.8661 26.3013 18.6519C26.7956 16.6235 23.3526 21.6048 21.9876 23.1812C20.9697 24.3568 17.9627 27.89 19.1454 26.8815C21.6828 24.7181 23.7003 21.6412 25.878 19.1169C26.8415 18 27.7568 16.8478 26.0191 18.571C24.0594 20.5142 22.2114 22.6704 20.0122 24.354C17.6576 26.1565 27.9913 15.812 25.4144 17.2769C23.6301 18.2911 22.0034 19.9223 20.4758 21.2805C17.7818 23.6758 20.8093 21.1002 21.6449 20.229C22.7641 19.0623 26.0518 15.6631 24.6081 16.3872C23.0129 17.1873 21.6027 19.1505 20.2944 20.3504C18.7228 21.7917 19.913 20.6758 20.6169 19.9055C21.8638 18.5411 23.3191 16.5292 24.9306 15.5784C25.8153 15.0563 23.4391 16.9937 22.7133 17.7217C21.9701 18.4672 23.05 17.6908 23.2777 17.5195" stroke="black" stroke-width="3" stroke-linecap="round"/>
<path d="M59.9238 28.0742C61.2306 31.9669 62.4264 44.3011 61.5566 40.2873C60.8407 36.9839 61.5767 33.2074 60.2867 30.0154C59.1147 27.1154 61.6251 36.13 62.4233 39.155C62.4738 39.3462 63.149 42.2696 63.149 40.1256C63.149 37.6855 62.9053 35.2454 62.8467 32.8058C62.7946 30.6383 62.9939 27.9524 63.5522 31.7543C63.7745 33.2684 63.9764 34.7787 64.2577 36.2837C64.3734 36.9029 64.5365 39.0703 64.8624 37.0723C64.9758 36.3768 66.6891 27.8608 67.0999 28.1551C68.0223 28.816 68.0157 32.4178 68.1884 33.4124C68.461 34.9825 68.8872 36.3918 69.3575 37.9013" stroke="black" stroke-width="3" stroke-linecap="round"/>
<path d="M21.4636 31.3503C20.4731 34.0389 19.9908 36.7794 19.1657 39.4991C18.6492 41.2015 19.557 35.9591 19.6293 34.1812C19.7394 31.4768 19.3776 34.2801 19.2866 35.1922C18.9831 38.2373 19.1254 41.1746 19.1254 44.2105C19.1254 45.9314 19.1022 43.0209 19.1254 42.7951C19.3063 41.0323 19.4848 39.2681 19.5688 37.4973C19.6143 36.5404 20.277 34.1507 19.4479 34.626C18.5508 35.1402 18.7029 40.1489 18.6416 41.0965C18.6081 41.6145 18.1217 47.8628 18.2788 45.3024C18.4769 42.072 18.8294 38.8545 18.9036 35.6168C18.9376 34.1359 18.9919 29.5512 18.178 33.8374C17.5723 37.0271 17.0196 40.5117 17.3918 43.7656C17.6793 46.2781 17.7511 38.7201 17.9966 36.2032C18.178 34.3427 19.3753 28.8653 18.8633 30.6628C18.0552 33.5001 17.7397 36.4446 17.3314 39.3576C16.9257 42.2514 17.4654 36.2161 17.4725 36.1223C17.532 35.3344 17.8638 30.5938 17.4725 30.9863" stroke="black" stroke-width="3" stroke-linecap="round"/>
<path d="M65.3664 44.8169C64.8191 46.9921 64.3478 49.1593 63.9554 51.3683C63.8335 52.0541 63.7492 54.079 63.1894 54.7653C63.0749 54.9057 62.625 54.3273 62.625 54.28C62.625 54.2593 62.8892 54.9072 62.9072 54.9271C63.2788 55.3371 64.2544 56.2856 64.7818 56.4032C65.2529 56.5082 64.5141 55.0768 64.4795 54.9675C64.2304 54.1822 64.1822 53.1778 64.3182 52.3591C64.5876 50.7379 65.3843 49.2519 65.9107 47.7084C66.1761 46.9301 66.4309 44.9068 67.0999 44.3316C68.2211 43.3676 65.163 49.8101 66.0921 48.6588C66.9543 47.5904 66.9826 45.8524 67.5434 44.6147C68.4031 42.7176 65.8822 48.441 65.2253 50.418C64.7533 51.8385 64.1546 55.0269 65.4067 51.7727C65.6939 51.0265 67.1162 46.8144 66.7774 47.3242C65.6815 48.9733 64.9831 51.0206 64.1771 52.8242C63.8698 53.5119 65.1106 49.3291 65.3664 48.4566" stroke="black" stroke-width="3" stroke-linecap="round"/>
<path d="M68.2691 38.9933C69.9383 33.8179 70.3962 28.4099 70.0228 22.9788C69.8962 21.1367 69.4082 19.5688 68.128 18.2068C68.009 18.0801 66.9604 16.943 66.8379 17.7417C66.7725 18.1683 67.1797 25.4285 66.0921 22.6148C65.504 21.0934 64.8167 20.6432 64.4594 22.5946C64.1071 24.5186 63.9934 26.4862 63.9353 28.4383C63.9182 29.0111 63.9818 29.5906 63.895 30.157C63.86 30.3849 63.7505 29.7173 63.7135 29.4897C63.6113 28.8598 62.5006 21.8664 62.4638 21.8869C61.5062 22.4206 61.4059 27.8506 61.0125 29.1662" stroke="black" stroke-width="3" stroke-linecap="round"/>
<path d="M23.2778 22.6149C23.6767 21.9847 26.4911 18.1017 23.7616 19.4403C23.5679 19.5352 20.7879 21.39 21.4233 20.4715C22.4481 18.99 24.0508 18.0119 25.3741 16.8318C25.5102 16.7105 27.3794 14.9505 26.0192 15.5782C25.2219 15.9461 22.8786 17.1473 23.6406 16.7105C25.105 15.8711 26.5879 15.0425 28.0752 14.2436C29.1403 13.6716 32.195 11.8095 31.3407 12.6664C30.526 13.4838 29.2531 13.9581 28.2365 14.4458C26.4974 15.2802 29.7004 14.3155 29.97 14.2234C30.9341 13.8942 33.8457 13.0501 32.8324 13.1517C31.4455 13.2909 30.0267 14.1963 28.7807 14.7491C28.1219 15.0414 25.7653 16.0105 27.7124 14.8907C29.3276 13.9618 30.9659 13.0672 32.5703 12.1205C34.3648 11.0616 31.6971 12.0001 31.3004 12.1407C30.0369 12.5887 26.2741 14.0042 27.5511 13.5966C29.4367 12.9948 31.3278 12.352 33.1146 11.4937C34.8148 10.6769 32.1216 11.6611 31.8648 11.7565C29.7358 12.5475 27.4929 13.4632 25.6967 14.8907C24.1052 16.1554 25.7199 16.3447 26.9061 15.9826C27.6955 15.7416 29.3416 14.2922 30.1313 14.4054C30.3681 14.4393 29.7598 14.7083 29.5669 14.8502C28.6438 15.5293 27.71 16.2034 26.8255 16.9329C25.8884 17.7058 25.1472 18.7941 26.8255 17.8833C27.9034 17.2984 28.9078 16.3909 30.0708 15.9826C31.1833 15.592 29.1548 17.9353 29.1234 17.9642C27.9081 19.083 26.1059 19.912 25.0919 21.2197C24.4468 22.0517 27.0525 20.4532 27.9946 19.9862C28.0934 19.9372 30.6252 18.5418 29.5064 19.4201C28.2315 20.4209 26.9085 21.4054 25.8579 22.6553C24.731 23.9961 29.3485 21.389 28.8412 22.0487C26.8797 24.5994 23.8839 26.3257 21.8264 28.8023" stroke="black" stroke-width="3" stroke-linecap="round"/>
<path d="M58.4725 24.7987C60.7423 28.827 59.72 25.9322 58.3919 23.7472C57.8997 22.9376 57.2706 22.0319 56.3761 21.6241C56.2039 21.5455 55.7307 21.5132 55.8117 21.6848C56.4139 22.9599 58.3619 24.0482 59.4401 24.8391C61.1594 26.1005 59.3922 23.8918 58.9563 23.5046C58.1904 22.8241 55.5588 21.361 56.5576 21.5836C58.3147 21.9754 59.5418 23.918 61.4155 24.1921C61.9691 24.2731 59.0012 21.3338 58.5531 20.9568C56.3745 19.1238 59.1248 22.2116 59.7021 22.716C60.9568 23.8122 61.868 23.3492 61.2946 21.6645C60.8059 20.2289 59.9164 19.0481 58.7346 18.126C57.9546 17.5174 59.8028 19.8017 60.4479 20.5524C61.5311 21.8128 62.1246 21.8229 61.0527 20.1884C60.6557 19.5832 59.0413 16.751 58.15 16.751C57.7415 16.751 58.6176 17.4241 58.8757 17.7418C59.5101 18.5228 60.1795 19.2953 60.9317 19.966C61.7907 20.7319 60.4315 18.5157 60.3068 18.3282C59.8379 17.6226 59.3287 17.9488 59.9238 18.2473" stroke="black" stroke-width="3" stroke-linecap="round"/>
<path d="M40.3193 59.9732C40.3386 59.4451 40.2755 58.791 40.9492 58.776C41.0898 58.7729 41.3525 58.8259 41.4576 58.9312C41.7081 59.1825 41.5571 59.2792 41.3139 59.4744" stroke="black" stroke-width="3" stroke-linecap="round"/>
<path d="M36.6395 59.0753C36.8332 59.4212 37.3552 60.6672 37.2307 59.6684C37.184 59.2933 36.9288 58.9758 36.6285 58.765C36.5484 58.7087 36.2409 58.6763 36.3412 58.6763" stroke="black" stroke-width="3" stroke-linecap="round"/>
<path d="M47.3807 36.2287C47.1383 36.4915 46.4814 37.2336 46.8282 37.1488C46.9958 37.1077 47.3706 36.5667 47.016 36.6721C46.7914 36.7389 46.5791 37.0485 46.6624 37.2873C46.7719 37.6012 47.2015 36.9003 47.2039 36.7608C47.2097 36.4152 46.8651 36.9577 46.8503 37.0601C46.7776 37.5631 47.1653 37.1146 47.2481 36.9381C47.4067 36.6 47.129 36.6983 47.0658 36.9381C46.9079 37.5364 47.4137 37.0762 47.5354 36.8495C47.6522 36.6319 47.8356 36.1816 47.657 35.9405C47.4826 35.705 47.126 36.8659 47.1155 36.9825C47.0941 37.2181 47.2279 37.4172 47.4304 37.1876C47.6926 36.8903 47.839 36.3877 47.8338 35.9959C47.8233 35.2064 46.7858 36.7782 47.1486 36.9437C47.2954 37.0106 47.5265 36.7117 47.3696 36.5834C47.1169 36.3766 46.8536 36.5383 46.9497 36.855C47.076 37.2711 47.8572 36.3877 47.1707 36.6721C46.6288 36.8966 47.595 37.5001 47.4415 36.8328C47.252 36.0091 46.3187 37.4796 47.1044 37.3594C47.634 37.2783 48.0545 36.0099 47.5244 36.4559C47.2652 36.674 47.1277 36.9349 47.0934 37.2707C47.0773 37.4279 47.0748 38.011 47.3807 37.6919C47.629 37.4329 47.7957 36.9479 47.8117 36.5945C47.8383 36.0062 47.1683 36.6869 47.0713 36.8661C46.739 37.4801 47.2712 37.4226 47.3586 36.794C47.4254 36.3141 46.5778 37.0341 46.4856 37.1266" stroke="black" stroke-width="3" stroke-linecap="round"/>
<path d="M33.7553 33.6345C33.6349 35.5424 34.6283 33.4596 33.9763 33.1246C33.5998 32.9311 32.9524 34.2902 33.4017 34.5656C33.597 34.6854 33.9661 34.3561 33.9045 34.1499C33.8407 33.9366 33.3291 33.936 33.4017 34.2331C33.6205 35.1293 34.3936 34.0571 33.8769 33.3906C33.4164 32.7968 33.2622 35.2424 33.9542 34.5878C34.1106 34.4399 34.2431 34.0259 33.91 34.0114C33.6418 33.9997 33.8328 34.2111 33.91 33.8784C33.9511 33.7013 34.0536 33.1577 33.899 33.0026C33.8057 32.909 33.7177 33.1416 33.7995 33.1689C33.8862 33.1979 33.995 32.2737 33.7553 33.2354" stroke="black" stroke-width="3" stroke-linecap="round"/>
<path d="M29.1804 56.7305L29.1952 58.2108C29.2007 58.762 29.9846 58.8597 30.1252 58.3267V58.3267" stroke="black"/>
<path d="M33.9221 34.1705C33.9691 33.8944 34.1492 33.3472 34.0067 33.0613C33.9143 32.876 33.7613 33.3981 33.7831 33.4855C33.886 33.8984 34.304 33.2427 34.333 33.1037C34.4156 32.7076 34.089 32.7779 33.9885 33.0916C33.8799 33.4305 34.1999 34.0028 34.3934 33.5037C34.8412 32.3486 33.6319 33.7098 34.2484 33.7098C34.4329 33.7098 34.3937 33.0274 34.2484 33.0188C34.0397 33.0065 34.0308 33.6014 34.0308 33.734" stroke="black" stroke-width="3" stroke-linecap="round"/>
</svg>
