<svg width="218" height="190" viewBox="0 0 218 190" fill="none" xmlns="http://www.w3.org/2000/svg">
<rect x="4.73926" width="213.261" height="190" rx="10" fill="#F71010"/>
<g clip-path="url(#clip0_88_307)">
<path fill-rule="evenodd" clip-rule="evenodd" d="M109.108 98.5324L106.244 107.018H101.977L109.108 85.7679V51.9654H148.876L141.312 131.595L109.108 139.884V98.5324ZM109 176.429C61.147 176.429 22.3589 139.366 22.3589 93.6429C22.3589 47.9193 61.147 10.8571 109 10.8571C156.853 10.8571 195.641 47.9193 195.641 93.6429C195.641 139.366 156.853 176.429 109 176.429ZM69.1234 137.462L108.892 147.971L148.876 137.462L157.735 44.4888H60.2643L69.1234 137.462ZM97.0814 102.315L77.9878 94.9053V91.8423L97.0814 84.4278V88.267L83.7116 93.3893L97.0868 98.4806L97.0814 102.315ZM140.039 94.9053V91.8423L120.94 84.4278V88.267L134.315 93.3738L120.94 98.4806V102.315L140.039 94.9053ZM109.108 98.5324L115.065 80.868H110.754L109.108 85.7679V98.5324Z" fill="white"/>
</g>
<defs>
<clipPath id="clip0_88_307">
<rect width="173.282" height="165.571" fill="white" transform="translate(22.3589 10.8571)"/>
</clipPath>
</defs>
</svg>
