<?xml version="1.0" encoding="UTF-8" standalone="no"?>
<svg
   version="1.1"
   width="615"
   height="185"
   viewBox="0 0 615 185"
   xml:space="preserve"
   id="svg2"
   sodipodi:docname="logoclara2.svg"
   inkscape:version="1.3 (0e150ed6c4, 2023-07-21)"
   xmlns:inkscape="http://www.inkscape.org/namespaces/inkscape"
   xmlns:sodipodi="http://sodipodi.sourceforge.net/DTD/sodipodi-0.dtd"
   xmlns="http://www.w3.org/2000/svg"
   xmlns:svg="http://www.w3.org/2000/svg"><sodipodi:namedview
   id="namedview2"
   pagecolor="#ffffff"
   bordercolor="#000000"
   borderopacity="0.25"
   inkscape:showpageshadow="2"
   inkscape:pageopacity="0.0"
   inkscape:pagecheckerboard="0"
   inkscape:deskcolor="#d1d1d1"
   inkscape:zoom="1.6617886"
   inkscape:cx="307.5"
   inkscape:cy="92.370352"
   inkscape:window-width="1920"
   inkscape:window-height="986"
   inkscape:window-x="-11"
   inkscape:window-y="-11"
   inkscape:window-maximized="1"
   inkscape:current-layer="CBWGDVjI0r3r2jiza6e6k" />&#10;<desc
   id="desc1">Created with Fabric.js 5.3.0</desc>&#10;<defs
   id="defs1">&#10;&#10;		&#10;		&#10;</defs>&#10;<g
   transform="matrix(0.7847851506 0 0 0.7847851506 413.8445508581 104.0788418456)"
   id="CBWGDVjI0r3r2jiza6e6k">&#10;<g
   id="g2"><g
     transform="translate(-424.7062,-17.0001)"
     id="9a-DjKOVhIOpsZuCRTKqZ"
     style="fill:#ffffff;fill-opacity:1">&#10;<path
   style="opacity:1;fill:#ffffff;fill-rule:nonzero;stroke:none;stroke-width:1;stroke-linecap:butt;stroke-linejoin:miter;stroke-miterlimit:4;stroke-dasharray:none;stroke-dashoffset:0;fill-opacity:1"
   transform="translate(-139.7938,-131.9999)"
   d="M 223.67,132 55.9176,240.253 V 23.7468 Z"
   stroke-linecap="round"
   id="path1" />&#10;</g><g
     transform="translate(-35.7115,-16.2)"
     id="8nRxvLMkql1GIMfaiLuaD"
     style="fill:#ffffff;fill-opacity:1">&#10;<path
   style="opacity:1;fill:#ffffff;fill-rule:nonzero;stroke:none;stroke-width:1;stroke-linecap:butt;stroke-linejoin:miter;stroke-miterlimit:4;stroke-dasharray:none;stroke-dashoffset:0;fill-opacity:1"
   transform="translate(-528.7885,-132.8)"
   d="m 258.662,29.6 h 60 V 236 h -60 z m 99.024,9 v -9 h 55.2 l 86.4,183.6 -9.9,22.8 h -39 z m 169.5,110.7 h -1.2 l -20.1,48.6 -25.8,-55.2 47.1,-113.1 h 57 V 236 h -57 z m -169.5,-81 55.2,117.6 V 236 h -55.2 z m 380.029,64.5 c 0,-17.4 -0.1,-28.8 -0.3,-34.2 -0.4,-8.2 -1.5,-14.1 -3.3,-17.7 -1.8,-3.8 -4.7,-6.1 -8.7,-6.9 -4,-0.6 -9.7,-0.9 -17.1,-0.9 -8.6,0 -14.2,0.4 -16.8,1.2 V 27.5 c 1.8,-0.2 4.5,-0.3 8.1,-0.3 h 8.7 c 22.4,0 39.7,1.8 51.9,5.4 12.4,3.4 21.4,9.1 27,17.1 5.2,7.4 8.4,17.1 9.6,29.1 1.4,12 2.1,30 2.1,54 0,21 -0.5,37.2 -1.5,48.6 -0.8,11.2 -3,20.5 -6.6,27.9 -4,8.4 -10.2,14.8 -18.6,19.2 -8.2,4.4 -19.7,7.3 -34.5,8.7 z m -29.4,105.6 c -29.2,0 -50.2,-3.2 -63,-9.6 -6.6,-3.2 -11.8,-7.5 -15.6,-12.9 -3.8,-5.4 -6.6,-12.1 -8.4,-20.1 -1.6,-7 -2.6,-15 -3,-24 -0.4,-9.2 -0.6,-22.2 -0.6,-39 0,-21 0.4,-37.1 1.2,-48.3 1,-11.2 3.3,-20.6 6.9,-28.2 4,-8.2 10.1,-14.5 18.3,-18.9 8.2,-4.4 19.8,-7.4 34.8,-9 v 104.4 c 0,11.8 0.2,23.1 0.6,33.9 0.4,8.2 1.4,14.2 3,18 1.8,3.8 4.7,6 8.7,6.6 3.4,0.8 9.1,1.2 17.1,1.2 8.2,0 13.8,-0.3 16.8,-0.9 v 46.5 c -1.8,0.2 -4.5,0.3 -8.1,0.3 z"
   stroke-linecap="round"
   id="path2" />&#10;</g></g>&#10;</g>&#10;</svg>
