<svg width="185" height="40" viewBox="0 0 185 40" fill="none" xmlns="http://www.w3.org/2000/svg">
<path d="M144.58 9.186C144.43 9.07954 144.255 9.01628 144.071 9.00317C143.888 8.99006 143.705 9.02759 143.542 9.11166C143.379 9.19572 143.242 9.32308 143.146 9.47977C143.051 9.63646 143 9.81644 143 10V30C143 30.1836 143.051 30.3635 143.146 30.5202C143.242 30.6769 143.379 30.8043 143.542 30.8883C143.705 30.9724 143.888 31.0099 144.071 30.9968C144.255 30.9837 144.43 30.9205 144.58 30.814L158.58 20.814C158.71 20.7215 158.815 20.5994 158.888 20.4578C158.961 20.3162 158.999 20.1593 158.999 20C158.999 19.8407 158.961 19.6838 158.888 19.5422C158.815 19.4006 158.71 19.2785 158.58 19.186L144.58 9.186ZM167 31H169V9H167V31Z" fill="black"/>
<path d="M5.5 5C5.5 2.51472 7.51472 0.5 10 0.5H95H180C182.485 0.5 184.5 2.51472 184.5 5V35C184.5 37.4853 182.485 39.5 180 39.5H10C7.51472 39.5 5.5 37.4853 5.5 35V5Z" stroke="black"/>
<path d="M34.1852 27V12.4545H39.1C40.2411 12.4545 41.1738 12.6605 41.8983 13.0724C42.6274 13.4796 43.1672 14.0312 43.5176 14.7273C43.868 15.4233 44.0431 16.1998 44.0431 17.0568C44.0431 17.9138 43.868 18.6927 43.5176 19.3935C43.1719 20.0942 42.6369 20.6529 41.9125 21.0696C41.188 21.4815 40.26 21.6875 39.1284 21.6875H35.6056V20.125H39.0716C39.8528 20.125 40.4802 19.9901 40.9537 19.7202C41.4271 19.4503 41.7704 19.0857 41.9835 18.6264C42.2013 18.1624 42.3102 17.6392 42.3102 17.0568C42.3102 16.4744 42.2013 15.9536 41.9835 15.4943C41.7704 15.035 41.4248 14.6752 40.9466 14.4148C40.4683 14.1496 39.8339 14.017 39.0431 14.017H35.9466V27H34.1852ZM46.6532 27V16.0909H48.2725V17.7386H48.3862C48.585 17.1989 48.9449 16.7609 49.4657 16.4247C49.9866 16.0885 50.5737 15.9205 51.2271 15.9205C51.3502 15.9205 51.5041 15.9228 51.6887 15.9276C51.8734 15.9323 52.0131 15.9394 52.1078 15.9489V17.6534C52.051 17.6392 51.9208 17.6179 51.7172 17.5895C51.5183 17.5563 51.3076 17.5398 51.085 17.5398C50.5547 17.5398 50.0813 17.651 49.6646 17.8736C49.2527 18.0914 48.926 18.3944 48.6845 18.7827C48.4477 19.1662 48.3294 19.6042 48.3294 20.0966V27H46.6532ZM58.1944 27.2273C57.2096 27.2273 56.3455 26.9929 55.6021 26.5241C54.8635 26.0554 54.2858 25.3996 53.8691 24.5568C53.4572 23.714 53.2512 22.7292 53.2512 21.6023C53.2512 20.4659 53.4572 19.474 53.8691 18.6264C54.2858 17.7789 54.8635 17.1207 55.6021 16.652C56.3455 16.1832 57.2096 15.9489 58.1944 15.9489C59.1793 15.9489 60.041 16.1832 60.7797 16.652C61.523 17.1207 62.1007 17.7789 62.5126 18.6264C62.9293 19.474 63.1376 20.4659 63.1376 21.6023C63.1376 22.7292 62.9293 23.714 62.5126 24.5568C62.1007 25.3996 61.523 26.0554 60.7797 26.5241C60.041 26.9929 59.1793 27.2273 58.1944 27.2273ZM58.1944 25.7216C58.9425 25.7216 59.5581 25.5298 60.041 25.1463C60.524 24.7628 60.8815 24.2585 61.1135 23.6335C61.3455 23.0085 61.4615 22.3314 61.4615 21.6023C61.4615 20.8731 61.3455 20.1937 61.1135 19.5639C60.8815 18.9342 60.524 18.4252 60.041 18.0369C59.5581 17.6487 58.9425 17.4545 58.1944 17.4545C57.4463 17.4545 56.8308 17.6487 56.3478 18.0369C55.8649 18.4252 55.5074 18.9342 55.2754 19.5639C55.0434 20.1937 54.9274 20.8731 54.9274 21.6023C54.9274 22.3314 55.0434 23.0085 55.2754 23.6335C55.5074 24.2585 55.8649 24.7628 56.3478 25.1463C56.8308 25.5298 57.4463 25.7216 58.1944 25.7216ZM66.497 16.0909L69.1106 20.5511L71.7243 16.0909H73.6561L70.1333 21.5455L73.6561 27H71.7243L69.1106 22.767L66.497 27H64.5652L68.0311 21.5455L64.5652 16.0909H66.497ZM76.0478 27V16.0909H77.7239V27H76.0478ZM76.9 14.2727C76.5733 14.2727 76.2916 14.1615 76.0549 13.9389C75.8229 13.7164 75.7069 13.4489 75.7069 13.1364C75.7069 12.8239 75.8229 12.5563 76.0549 12.3338C76.2916 12.1113 76.5733 12 76.9 12C77.2267 12 77.5061 12.1113 77.7381 12.3338C77.9748 12.5563 78.0932 12.8239 78.0932 13.1364C78.0932 13.4489 77.9748 13.7164 77.7381 13.9389C77.5061 14.1615 77.2267 14.2727 76.9 14.2727ZM80.7939 27V16.0909H82.4132V17.7955H82.5552C82.7825 17.2131 83.1494 16.7609 83.6561 16.4389C84.1627 16.1122 84.7711 15.9489 85.4814 15.9489C86.2011 15.9489 86.8 16.1122 87.2782 16.4389C87.7612 16.7609 88.1376 17.2131 88.4075 17.7955H88.5211C88.8005 17.232 89.2195 16.7846 89.7782 16.4531C90.3369 16.117 91.0069 15.9489 91.7882 15.9489C92.7636 15.9489 93.5614 16.2543 94.1816 16.8651C94.8019 17.4711 95.112 18.4157 95.112 19.6989V27H93.4359V19.6989C93.4359 18.8939 93.2157 18.3187 92.7754 17.973C92.335 17.6274 91.8166 17.4545 91.22 17.4545C90.4529 17.4545 89.8587 17.6866 89.4373 18.1506C89.0159 18.6098 88.8052 19.1922 88.8052 19.8977V27H87.1007V19.5284C87.1007 18.9081 86.8994 18.4086 86.497 18.0298C86.0945 17.6463 85.5761 17.4545 84.9416 17.4545C84.506 17.4545 84.0988 17.5705 83.72 17.8026C83.3459 18.0346 83.0429 18.3565 82.8109 18.7685C82.5836 19.1757 82.47 19.6468 82.47 20.1818V27H80.7939ZM102.608 27.2273C101.624 27.2273 100.76 26.9929 100.016 26.5241C99.2775 26.0554 98.6999 25.3996 98.2832 24.5568C97.8713 23.714 97.6653 22.7292 97.6653 21.6023C97.6653 20.4659 97.8713 19.474 98.2832 18.6264C98.6999 17.7789 99.2775 17.1207 100.016 16.652C100.76 16.1832 101.624 15.9489 102.608 15.9489C103.593 15.9489 104.455 16.1832 105.194 16.652C105.937 17.1207 106.515 17.7789 106.927 18.6264C107.343 19.474 107.552 20.4659 107.552 21.6023C107.552 22.7292 107.343 23.714 106.927 24.5568C106.515 25.3996 105.937 26.0554 105.194 26.5241C104.455 26.9929 103.593 27.2273 102.608 27.2273ZM102.608 25.7216C103.357 25.7216 103.972 25.5298 104.455 25.1463C104.938 24.7628 105.296 24.2585 105.528 23.6335C105.76 23.0085 105.876 22.3314 105.876 21.6023C105.876 20.8731 105.76 20.1937 105.528 19.5639C105.296 18.9342 104.938 18.4252 104.455 18.0369C103.972 17.6487 103.357 17.4545 102.608 17.4545C101.86 17.4545 101.245 17.6487 100.762 18.0369C100.279 18.4252 99.9215 18.9342 99.6895 19.5639C99.4574 20.1937 99.3414 20.8731 99.3414 21.6023C99.3414 22.3314 99.4574 23.0085 99.6895 23.6335C99.9215 24.2585 100.279 24.7628 100.762 25.1463C101.245 25.5298 101.86 25.7216 102.608 25.7216Z" fill="black"/>
</svg>
