<?xml version="1.0" encoding="UTF-8" standalone="no" ?>
<!DOCTYPE svg PUBLIC "-//W3C//DTD SVG 1.1//EN" "http://www.w3.org/Graphics/SVG/1.1/DTD/svg11.dtd">
<svg xmlns="http://www.w3.org/2000/svg" xmlns:xlink="http://www.w3.org/1999/xlink" version="1.1" width="615" height="185" viewBox="0 0 615 185" xml:space="preserve">
<desc>Created with Fabric.js 5.3.0</desc>
<defs>
</defs>
<g transform="matrix(0.7847851506 0 0 0.7847851506 413.8445508581 104.0788418456)" id="CBWGDVjI0r3r2jiza6e6k"  >
<g style=""   >
		<g transform="matrix(1 0 0 1 -424.7062 -17.0001)" id="9a-DjKOVhIOpsZuCRTKqZ"  >
<path style="stroke: none; stroke-width: 1; stroke-dasharray: none; stroke-linecap: butt; stroke-dashoffset: 0; stroke-linejoin: miter; stroke-miterlimit: 4; fill: rgb(0,69,246); fill-rule: nonzero; opacity: 1;"  transform=" translate(-139.7938, -131.9999)" d="M 223.67 132 L 55.9176 240.253 L 55.9176 23.7468 L 223.67 132 Z" stroke-linecap="round" />
</g>
		<g transform="matrix(1 0 0 1 -35.7115 -16.2)" id="8nRxvLMkql1GIMfaiLuaD"  >
<path style="stroke: none; stroke-width: 1; stroke-dasharray: none; stroke-linecap: butt; stroke-dashoffset: 0; stroke-linejoin: miter; stroke-miterlimit: 4; fill: rgb(0,69,246); fill-rule: nonzero; opacity: 1;"  transform=" translate(-528.7885, -132.8)" d="M 258.662 29.6 L 318.662 29.6 L 318.662 236 L 258.662 236 L 258.662 29.6 Z M 357.686 38.6 L 357.686 29.6 L 412.886 29.6 L 499.286 213.2 L 489.386 236 L 450.386 236 L 357.686 38.6 Z M 527.186 149.3 L 525.986 149.3 L 505.886 197.9 L 480.086 142.7 L 527.186 29.6 L 584.186 29.6 L 584.186 236 L 527.186 236 L 527.186 149.3 Z M 357.686 68.3 L 412.886 185.9 L 412.886 236 L 357.686 236 L 357.686 68.3 Z M 737.715 132.8 C 737.715 115.4 737.615 104 737.415 98.6 C 737.015 90.4 735.915 84.5 734.115 80.9 C 732.315 77.1 729.415 74.8 725.415 74 C 721.415 73.4 715.715 73.1 708.315 73.1 C 699.715 73.1 694.115 73.5 691.515 74.3 L 691.515 27.5 C 693.315 27.3 696.015 27.2 699.615 27.2 L 708.315 27.2 C 730.715 27.2 748.015 29 760.215 32.6 C 772.615 36 781.615 41.7 787.215 49.7 C 792.415 57.1 795.615 66.8 796.815 78.8 C 798.215 90.8 798.915 108.8 798.915 132.8 C 798.915 153.8 798.415 170 797.415 181.4 C 796.615 192.6 794.415 201.9 790.815 209.3 C 786.815 217.7 780.615 224.1 772.215 228.5 C 764.015 232.9 752.515 235.8 737.715 237.2 L 737.715 132.8 Z M 708.315 238.4 C 679.115 238.4 658.115 235.2 645.315 228.8 C 638.715 225.6 633.515 221.3 629.715 215.9 C 625.915 210.5 623.115 203.8 621.315 195.8 C 619.715 188.8 618.715 180.8 618.315 171.8 C 617.915 162.6 617.715 149.6 617.715 132.8 C 617.715 111.8 618.115 95.7 618.915 84.5 C 619.915 73.3 622.215 63.9 625.815 56.3 C 629.815 48.1 635.915 41.8 644.115 37.4 C 652.315 33 663.915 30 678.915 28.4 L 678.915 132.8 C 678.915 144.6 679.115 155.9 679.515 166.7 C 679.915 174.9 680.915 180.9 682.515 184.7 C 684.315 188.5 687.215 190.7 691.215 191.3 C 694.615 192.1 700.315 192.5 708.315 192.5 C 716.515 192.5 722.115 192.2 725.115 191.6 L 725.115 238.1 C 723.315 238.3 720.615 238.4 717.015 238.4 L 708.315 238.4 Z" stroke-linecap="round" />
</g>
</g>
</g>
</svg>