<svg width="1129" height="298" viewBox="0 0 1129 298" fill="none" xmlns="http://www.w3.org/2000/svg">
<path d="M223.67 132L55.9176 240.253L55.9176 23.7468L223.67 132Z" fill="#0045F6"/>
<g filter="url(#filter0_d_18_3)">
<path d="M258.662 29.6H318.662V236H258.662V29.6ZM357.686 38.6V29.6H412.886L499.286 213.2L489.386 236H450.386L357.686 38.6ZM527.186 149.3H525.986L505.886 197.9L480.086 142.7L527.186 29.6H584.186V236H527.186V149.3ZM357.686 68.3L412.886 185.9V236H357.686V68.3ZM737.715 132.8C737.715 115.4 737.615 104 737.415 98.6C737.015 90.4 735.915 84.5 734.115 80.9C732.315 77.1 729.415 74.8 725.415 74C721.415 73.4 715.715 73.1 708.315 73.1C699.715 73.1 694.115 73.5 691.515 74.3V27.5C693.315 27.3 696.015 27.2 699.615 27.2H708.315C730.715 27.2 748.015 29 760.215 32.6C772.615 36 781.615 41.7 787.215 49.7C792.415 57.1 795.615 66.8 796.815 78.8C798.215 90.8 798.915 108.8 798.915 132.8C798.915 153.8 798.415 170 797.415 181.4C796.615 192.6 794.415 201.9 790.815 209.3C786.815 217.7 780.615 224.1 772.215 228.5C764.015 232.9 752.515 235.8 737.715 237.2V132.8ZM708.315 238.4C679.115 238.4 658.115 235.2 645.315 228.8C638.715 225.6 633.515 221.3 629.715 215.9C625.915 210.5 623.115 203.8 621.315 195.8C619.715 188.8 618.715 180.8 618.315 171.8C617.915 162.6 617.715 149.6 617.715 132.8C617.715 111.8 618.115 95.7 618.915 84.5C619.915 73.3 622.215 63.9 625.815 56.3C629.815 48.1 635.915 41.8 644.115 37.4C652.315 33 663.915 30 678.915 28.4V132.8C678.915 144.6 679.115 155.9 679.515 166.7C679.915 174.9 680.915 180.9 682.515 184.7C684.315 188.5 687.215 190.7 691.215 191.3C694.615 192.1 700.315 192.5 708.315 192.5C716.515 192.5 722.115 192.2 725.115 191.6V238.1C723.315 238.3 720.615 238.4 717.015 238.4H708.315Z" fill="#0045F6"/>
</g>
<defs>
<filter id="filter0_d_18_3" x="254.662" y="27.2" width="548.253" height="219.2" filterUnits="userSpaceOnUse" color-interpolation-filters="sRGB">
<feFlood flood-opacity="0" result="BackgroundImageFix"/>
<feColorMatrix in="SourceAlpha" type="matrix" values="0 0 0 0 0 0 0 0 0 0 0 0 0 0 0 0 0 0 127 0" result="hardAlpha"/>
<feOffset dy="4"/>
<feGaussianBlur stdDeviation="2"/>
<feComposite in2="hardAlpha" operator="out"/>
<feColorMatrix type="matrix" values="0 0 0 0 0 0 0 0 0 0 0 0 0 0 0 0 0 0 0.25 0"/>
<feBlend mode="normal" in2="BackgroundImageFix" result="effect1_dropShadow_18_3"/>
<feBlend mode="normal" in="SourceGraphic" in2="effect1_dropShadow_18_3" result="shape"/>
</filter>
</defs>
</svg>
