<svg width="60" height="60" viewBox="0 0 60 60" fill="none" xmlns="http://www.w3.org/2000/svg">
<mask id="mask0_41_216" style="mask-type:luminance" maskUnits="userSpaceOnUse" x="5" y="5" width="50" height="50">
<path d="M7.5 11.25C7.5 10.2554 7.89509 9.30161 8.59835 8.59835C9.30161 7.89509 10.2554 7.5 11.25 7.5H48.75C49.7446 7.5 50.6984 7.89509 51.4016 8.59835C52.1049 9.30161 52.5 10.2554 52.5 11.25V48.75C52.5 49.7446 52.1049 50.6984 51.4016 51.4016C50.6984 52.1049 49.7446 52.5 48.75 52.5H11.25C10.2554 52.5 9.30161 52.1049 8.59835 51.4016C7.89509 50.6984 7.5 49.7446 7.5 48.75V11.25Z" fill="white" stroke="white" stroke-width="4" stroke-linejoin="round"/>
<path d="M40 7.5V52.5M20 25L25 30L20 35" stroke="black" stroke-width="4" stroke-linecap="round" stroke-linejoin="round"/>
<path d="M32.5 7.5H47.5M32.5 52.5H47.5" stroke="white" stroke-width="4" stroke-linecap="round" stroke-linejoin="round"/>
</mask>
<g mask="url(#mask0_41_216)">
<path d="M0 0H60V60H0V0Z" fill="#F3F3F0"/>
</g>
</svg>
