<svg width="219" height="200" viewBox="0 0 219 200" fill="none" xmlns="http://www.w3.org/2000/svg">
<rect x="0.5" y="0.5" width="218" height="199" rx="29.5" fill="#DD1929" stroke="black"/>
<path d="M65.307 43.6591V40.25L92.7502 26.2727V31.7273L71.699 41.8693L71.8695 41.5284V42.3807L71.699 42.0398L92.7502 52.1818V57.6364L65.307 43.6591ZM118.835 13.3182L104.773 65.5625H100.17L114.233 13.3182H118.835ZM153.688 43.6591L126.244 57.6364V52.1818L147.296 42.0398L147.125 42.3807V41.5284L147.296 41.8693L126.244 31.7273V26.2727L153.688 40.25V43.6591Z" fill="white"/>
<path d="M33.7377 144V122.182H36.3798V131.898H48.0133V122.182H50.6554V144H48.0133V134.241H36.3798V144H33.7377ZM62.7203 127.636V129.767H54.2402V127.636H62.7203ZM56.7118 123.716H59.226V139.312C59.226 140.023 59.329 140.555 59.535 140.911C59.748 141.259 60.0179 141.493 60.3446 141.614C60.6784 141.727 61.03 141.784 61.3993 141.784C61.6763 141.784 61.9036 141.77 62.0811 141.741C62.2587 141.706 62.4007 141.678 62.5073 141.656L63.0186 143.915C62.8482 143.979 62.6103 144.043 62.3049 144.107C61.9995 144.178 61.6124 144.213 61.1436 144.213C60.4334 144.213 59.7374 144.06 59.0556 143.755C58.3809 143.45 57.8198 142.984 57.3723 142.359C56.932 141.734 56.7118 140.946 56.7118 139.994V123.716ZM66.5023 144V127.636H68.9313V130.193H69.1444C69.4853 129.32 70.0357 128.641 70.7956 128.158C71.5556 127.668 72.4682 127.423 73.5336 127.423C74.6131 127.423 75.5115 127.668 76.2289 128.158C76.9533 128.641 77.5179 129.32 77.9228 130.193H78.0932C78.5123 129.348 79.1408 128.677 79.9789 128.18C80.8169 127.675 81.8219 127.423 82.9938 127.423C84.4569 127.423 85.6536 127.881 86.584 128.798C87.5144 129.707 87.9796 131.124 87.9796 133.048V144H85.4654V133.048C85.4654 131.841 85.1351 130.978 84.4746 130.46C83.8141 129.941 83.0364 129.682 82.1415 129.682C80.9909 129.682 80.0996 130.03 79.4675 130.726C78.8354 131.415 78.5194 132.288 78.5194 133.347V144H75.9625V132.793C75.9625 131.862 75.6607 131.113 75.057 130.545C74.4533 129.969 73.6756 129.682 72.7239 129.682C72.0705 129.682 71.4597 129.856 70.8915 130.204C70.3304 130.552 69.8759 131.035 69.5279 131.653C69.187 132.263 69.0165 132.97 69.0165 133.773V144H66.5023ZM95.0907 122.182V144H92.5765V122.182H95.0907ZM114.994 144.341C113.417 144.341 112.057 143.993 110.914 143.297C109.777 142.594 108.9 141.614 108.282 140.357C107.672 139.092 107.366 137.622 107.366 135.946C107.366 134.27 107.672 132.793 108.282 131.514C108.9 130.229 109.76 129.227 110.86 128.51C111.968 127.786 113.261 127.423 114.738 127.423C115.591 127.423 116.432 127.565 117.263 127.849C118.094 128.134 118.85 128.595 119.532 129.234C120.214 129.866 120.757 130.705 121.162 131.749C121.567 132.793 121.77 134.078 121.77 135.605V136.67H109.156V134.497H119.213C119.213 133.574 119.028 132.75 118.659 132.026C118.297 131.301 117.778 130.729 117.103 130.31C116.436 129.891 115.647 129.682 114.738 129.682C113.737 129.682 112.87 129.93 112.139 130.428C111.414 130.918 110.857 131.557 110.466 132.345C110.076 133.134 109.88 133.979 109.88 134.881V136.33C109.88 137.565 110.093 138.613 110.52 139.472C110.953 140.325 111.553 140.974 112.32 141.422C113.087 141.862 113.978 142.082 114.994 142.082C115.654 142.082 116.251 141.99 116.784 141.805C117.324 141.614 117.789 141.33 118.179 140.953C118.57 140.57 118.872 140.094 119.085 139.526L121.514 140.207C121.258 141.031 120.828 141.756 120.225 142.381C119.621 142.999 118.875 143.482 117.988 143.83C117.1 144.17 116.102 144.341 114.994 144.341ZM151.929 129H149.287C149.131 128.24 148.858 127.572 148.467 126.997C148.083 126.422 147.615 125.939 147.061 125.548C146.514 125.151 145.907 124.852 145.239 124.653C144.571 124.455 143.875 124.355 143.151 124.355C141.83 124.355 140.633 124.689 139.561 125.357C138.495 126.024 137.647 127.008 137.015 128.308C136.39 129.607 136.077 131.202 136.077 133.091C136.077 134.98 136.39 136.575 137.015 137.874C137.647 139.174 138.495 140.158 139.561 140.825C140.633 141.493 141.83 141.827 143.151 141.827C143.875 141.827 144.571 141.727 145.239 141.528C145.907 141.33 146.514 141.035 147.061 140.644C147.615 140.246 148.083 139.76 148.467 139.185C148.858 138.602 149.131 137.935 149.287 137.182H151.929C151.73 138.297 151.368 139.295 150.843 140.175C150.317 141.056 149.664 141.805 148.882 142.423C148.101 143.034 147.224 143.499 146.251 143.819C145.285 144.138 144.252 144.298 143.151 144.298C141.29 144.298 139.635 143.844 138.186 142.935C136.738 142.026 135.598 140.733 134.767 139.057C133.936 137.381 133.52 135.392 133.52 133.091C133.52 130.79 133.936 128.801 134.767 127.125C135.598 125.449 136.738 124.156 138.186 123.247C139.635 122.338 141.29 121.884 143.151 121.884C144.252 121.884 145.285 122.043 146.251 122.363C147.224 122.683 148.101 123.151 148.882 123.769C149.664 124.38 150.317 125.126 150.843 126.006C151.368 126.88 151.73 127.878 151.929 129ZM167.449 131.301L165.19 131.94C165.048 131.564 164.839 131.198 164.562 130.843C164.292 130.481 163.922 130.183 163.454 129.948C162.985 129.714 162.385 129.597 161.653 129.597C160.652 129.597 159.817 129.827 159.15 130.289C158.489 130.744 158.159 131.322 158.159 132.026C158.159 132.651 158.386 133.144 158.841 133.506C159.295 133.869 160.006 134.17 160.971 134.412L163.4 135.009C164.863 135.364 165.954 135.907 166.671 136.638C167.388 137.363 167.747 138.297 167.747 139.44C167.747 140.378 167.477 141.216 166.937 141.955C166.405 142.693 165.659 143.276 164.7 143.702C163.741 144.128 162.626 144.341 161.355 144.341C159.686 144.341 158.305 143.979 157.211 143.254C156.117 142.53 155.425 141.472 155.133 140.08L157.52 139.483C157.747 140.364 158.177 141.024 158.809 141.464C159.448 141.905 160.282 142.125 161.312 142.125C162.484 142.125 163.415 141.876 164.104 141.379C164.8 140.875 165.148 140.271 165.148 139.568C165.148 139 164.949 138.524 164.551 138.141C164.153 137.75 163.542 137.459 162.719 137.267L159.991 136.628C158.493 136.273 157.392 135.722 156.689 134.977C155.993 134.224 155.645 133.283 155.645 132.153C155.645 131.23 155.904 130.413 156.422 129.703C156.948 128.993 157.662 128.435 158.564 128.031C159.473 127.626 160.503 127.423 161.653 127.423C163.273 127.423 164.544 127.778 165.467 128.489C166.398 129.199 167.058 130.136 167.449 131.301ZM183.123 131.301L180.864 131.94C180.722 131.564 180.512 131.198 180.235 130.843C179.966 130.481 179.596 130.183 179.127 129.948C178.659 129.714 178.059 129.597 177.327 129.597C176.326 129.597 175.491 129.827 174.824 130.289C174.163 130.744 173.833 131.322 173.833 132.026C173.833 132.651 174.06 133.144 174.515 133.506C174.969 133.869 175.679 134.17 176.645 134.412L179.074 135.009C180.537 135.364 181.627 135.907 182.345 136.638C183.062 137.363 183.421 138.297 183.421 139.44C183.421 140.378 183.151 141.216 182.611 141.955C182.078 142.693 181.333 143.276 180.374 143.702C179.415 144.128 178.3 144.341 177.029 144.341C175.36 144.341 173.978 143.979 172.885 143.254C171.791 142.53 171.098 141.472 170.807 140.08L173.194 139.483C173.421 140.364 173.85 141.024 174.483 141.464C175.122 141.905 175.956 142.125 176.986 142.125C178.158 142.125 179.088 141.876 179.777 141.379C180.473 140.875 180.821 140.271 180.821 139.568C180.821 139 180.623 138.524 180.225 138.141C179.827 137.75 179.216 137.459 178.392 137.267L175.665 136.628C174.167 136.273 173.066 135.722 172.363 134.977C171.667 134.224 171.319 133.283 171.319 132.153C171.319 131.23 171.578 130.413 172.096 129.703C172.622 128.993 173.336 128.435 174.238 128.031C175.147 127.626 176.176 127.423 177.327 127.423C178.946 127.423 180.218 127.778 181.141 128.489C182.071 129.199 182.732 130.136 183.123 131.301Z" fill="white"/>
</svg>
