<?xml version="1.0" encoding="UTF-8" standalone="no"?>
<svg
   version="1.1"
   width="500"
   height="500"
   viewBox="0 0 500 500"
   xml:space="preserve"
   id="svg34"
   sodipodi:docname="logomarcaestudobomclaro.svg"
   inkscape:version="1.3 (0e150ed6c4, 2023-07-21)"
   xmlns:inkscape="http://www.inkscape.org/namespaces/inkscape"
   xmlns:sodipodi="http://sodipodi.sourceforge.net/DTD/sodipodi-0.dtd"
   xmlns:xlink="http://www.w3.org/1999/xlink"
   xmlns="http://www.w3.org/2000/svg"
   xmlns:svg="http://www.w3.org/2000/svg"><sodipodi:namedview
   id="namedview34"
   pagecolor="#ffffff"
   bordercolor="#000000"
   borderopacity="0.25"
   inkscape:showpageshadow="2"
   inkscape:pageopacity="0.0"
   inkscape:pagecheckerboard="0"
   inkscape:deskcolor="#d1d1d1"
   showgrid="false"
   inkscape:zoom="2"
   inkscape:cx="227"
   inkscape:cy="256"
   inkscape:window-width="1920"
   inkscape:window-height="986"
   inkscape:window-x="-11"
   inkscape:window-y="-11"
   inkscape:window-maximized="1"
   inkscape:current-layer="layer1" />&#10;<desc
   id="desc1">Created with Fabric.js 5.3.0</desc>&#10;<defs
   id="defs1"><linearGradient
   id="swatch182"
   inkscape:swatch="solid"><stop
     style="stop-color:#33c9ef;stop-opacity:1;"
     offset="0"
     id="stop183" /></linearGradient><rect
   x="238.36735"
   y="137.55102"
   width="155.10204"
   height="171.02041"
   id="rect177" /><inkscape:path-effect
   effect="bspline"
   id="path-effect172"
   is_visible="true"
   lpeversion="1.3"
   weight="33.333333"
   steps="2"
   helper_size="0"
   apply_no_weight="true"
   apply_with_weight="true"
   only_selected="false"
   uniform="false" /><inkscape:path-effect
   effect="bspline"
   id="path-effect171"
   is_visible="true"
   lpeversion="1.3"
   weight="33.333333"
   steps="2"
   helper_size="0"
   apply_no_weight="true"
   apply_with_weight="true"
   only_selected="false"
   uniform="false" />&#10;<linearGradient
   inkscape:collect="always"
   xlink:href="#swatch182"
   id="linearGradient183"
   x1="239.30469"
   y1="144.20382"
   x2="306.75781"
   y2="144.20382"
   gradientUnits="userSpaceOnUse" /></defs>&#10;<g
   transform="matrix(1 0 0 1 163.6763980944 236.1442488523)"
   id="DFiesSH1TR5NouEpXrPM3"
   style="stroke-width:1.37952756;stroke-dasharray:none;stroke:#33c9ef;stroke-opacity:1">&#10;<path
   style="opacity:1;fill:#ffffff;fill-opacity:0;fill-rule:nonzero;stroke:#33c9ef;stroke-width:1.37952756;stroke-linecap:butt;stroke-linejoin:miter;stroke-miterlimit:4;stroke-dasharray:none;stroke-dashoffset:0;stroke-opacity:1"
   d="M -44.667911,23.197705 -32.3531,16.78918 -4.88566,2.53534 44.44676,-23.06502"
   stroke-linecap="round"
   id="path1"
   sodipodi:nodetypes="cccc" />&#10;</g>&#10;<g
   transform="matrix(1 0 0 1 164.0333678571 232.3140419856)"
   id="jSgBi6CalZimBovmDGDw7"
   style="stroke-width:1.37952756;stroke-dasharray:none;stroke:#33c9ef;stroke-opacity:1">&#10;<path
   style="opacity:1;fill:#ffffff;fill-opacity:0;fill-rule:nonzero;stroke:#33c9ef;stroke-width:1.37952756;stroke-linecap:butt;stroke-linejoin:miter;stroke-miterlimit:4;stroke-dasharray:none;stroke-dashoffset:0;stroke-opacity:1"
   d="M -44.977509,23.330389 44.225629,-22.976554"
   stroke-linecap="round"
   id="path2"
   sodipodi:nodetypes="cc" />&#10;</g>&#10;<g
   transform="matrix(1 0 0 1 32.2446447796 230.2658300703)"
   id="r-6Okv-O1hp8DpQZi3b_l">&#10;<path
   style="stroke: rgb(0,0,0); stroke-width: 1; stroke-dasharray: none; stroke-linecap: butt; stroke-dashoffset: 0; stroke-linejoin: miter; stroke-miterlimit: 4; fill: rgb(255,255,255); fill-opacity: 0; fill-rule: nonzero; opacity: 1;"
   transform=" translate(0, 0)"
   d="M 0 0"
   stroke-linecap="round"
   id="path3" />&#10;</g>&#10;<g
   transform="matrix(1 0 0 1 26.4357212843 212.5792338523)"
   id="uaCJ8mr0bC5pKN1NiZUVU"
   style="stroke-width:1.37952756;stroke-dasharray:none;stroke:#33c9ef;stroke-opacity:1">&#10;<path
   style="opacity:1;fill:#ffffff;fill-opacity:0;fill-rule:nonzero;stroke:#33c9ef;stroke-width:1.37952756;stroke-linecap:butt;stroke-linejoin:miter;stroke-miterlimit:4;stroke-dasharray:none;stroke-dashoffset:0;stroke-opacity:1"
   d="m 2.47188,18.1866 c 0,0 -10.9023289,-16.413965 0.2211411,-36.992385"
   stroke-linecap="round"
   id="path4"
   sodipodi:nodetypes="cc" />&#10;</g>&#10;<g
   transform="matrix(1 0 0 1 210.5523671069 249.072443528)"
   id="SWWpiDrMbSOxu2oNCilTy"
   style="stroke:#33c9ef;stroke-opacity:1;stroke-width:1.37952756;stroke-dasharray:none">&#10;<path
   style="opacity:1;fill:#ffffff;fill-opacity:0;fill-rule:nonzero;stroke:#33c9ef;stroke-width:1.37952756;stroke-linecap:butt;stroke-linejoin:miter;stroke-miterlimit:4;stroke-dasharray:none;stroke-dashoffset:0;stroke-opacity:1"
   d="m -2.00071,-18.30661 c 0,0 9.00322,20.3352522 -2e-7,37.055512"
   stroke-linecap="round"
   id="path5"
   sodipodi:nodetypes="cc" />&#10;</g>&#10;<g
   transform="matrix(1 0 0 1 164.1406403302 290.92450137)"
   id="vnDLO2dCJdVenNViXKh3K">&#10;<path
   style="opacity:1;fill:#ffffff;fill-opacity:0;fill-rule:nonzero;stroke:#000000;stroke-width:1;stroke-linecap:butt;stroke-linejoin:miter;stroke-miterlimit:4;stroke-dasharray:none;stroke-dashoffset:0"
   d="M 44.587923,-23.266581 -45.16289,23.399276"
   stroke-linecap="round"
   id="path6"
   sodipodi:nodetypes="cc" />&#10;</g>&#10;<g
   transform="matrix(1 0 0 1 73.7471007399 290.92450137)"
   id="5sf3RVOKoRUQuRNbqwhaR">&#10;<path
   style="opacity:1;fill:#ffffff;fill-opacity:0;fill-rule:nonzero;stroke:#000000;stroke-width:1;stroke-linecap:butt;stroke-linejoin:miter;stroke-miterlimit:4;stroke-dasharray:none;stroke-dashoffset:0"
   d="M 44.737554,23.222353 -44.33949,-23.04545"
   stroke-linecap="round"
   id="path7"
   sodipodi:nodetypes="cc" />&#10;</g>&#10;<g
   transform="matrix(1 0 0 1 30.2766921644 248.9243743459)"
   id="ignTwt4mhWOH-51dQI5U1">&#10;<path
   style="opacity:1;fill:#ffffff;fill-opacity:0;fill-rule:nonzero;stroke:#000000;stroke-width:1;stroke-linecap:butt;stroke-linejoin:miter;stroke-miterlimit:4;stroke-dasharray:none;stroke-dashoffset:0"
   d="M 0.04417937,18.807204 0,-17.65855"
   stroke-linecap="round"
   id="path8"
   sodipodi:nodetypes="cc" />&#10;</g>&#10;<g
   transform="matrix(1 0 0 1 73.7471007399 254.0149316215)"
   id="EWXc-zGgNuvtSM7K5kKxM">&#10;<path
   style="stroke: rgb(0,0,0); stroke-width: 1; stroke-dasharray: none; stroke-linecap: butt; stroke-dashoffset: 0; stroke-linejoin: miter; stroke-miterlimit: 4; fill: rgb(255,255,255); fill-opacity: 0; fill-rule: nonzero; opacity: 1;"
   transform=" translate(0, 0)"
   d="M -44.8395 -23.2491 L 44.83949 23.2491"
   stroke-linecap="round"
   id="path9" />&#10;</g>&#10;<g
   transform="matrix(1 0 0 1 163.3191252116 254.5149316215)"
   id="E7cVgN_5k0Vgol0LO6NDR">&#10;<path
   style="stroke: rgb(0,0,0); stroke-width: 1; stroke-dasharray: none; stroke-linecap: butt; stroke-dashoffset: 0; stroke-linejoin: miter; stroke-miterlimit: 4; fill: rgb(255,255,255); fill-opacity: 0; fill-rule: nonzero; opacity: 1;"
   transform=" translate(0, 0)"
   d="M -44.73253 23.2491 L 44.73252000000001 -23.2491"
   stroke-linecap="round"
   id="path10" />&#10;</g>&#10;<g
   transform="matrix(1 0 0 1 208.051652566 211.8292338523)"
   id="lkDSkGzLfMLsA_FUfTxv1">&#10;<path
   style="opacity:1;fill:#ffffff;fill-opacity:0;fill-rule:nonzero;stroke:#000000;stroke-width:1;stroke-linecap:butt;stroke-linejoin:miter;stroke-miterlimit:4;stroke-dasharray:none;stroke-dashoffset:0"
   d="M 0,17.9366 V -18.600013"
   stroke-linecap="round"
   id="path11"
   sodipodi:nodetypes="cc" />&#10;</g>&#10;<g
   transform="matrix(1 0 0 1 163.0691252116 217.0050228989)"
   id="LU102K2YQ6m2Ebvw1U23S">&#10;<path
   style="opacity:1;fill:#ffffff;fill-opacity:0;fill-rule:nonzero;stroke:#000000;stroke-width:1;stroke-linecap:butt;stroke-linejoin:miter;stroke-miterlimit:4;stroke-dasharray:none;stroke-dashoffset:0"
   d="M 44.48253,-23.11239 -44.659433,23.245065"
   stroke-linecap="round"
   id="path12"
   sodipodi:nodetypes="cc" />&#10;</g>&#10;<g
   transform="matrix(1 0 0 1 73.8186158586 217.2550228989)"
   id="k_Zo8Q0ZuVcqqXZQruuXQ">&#10;<path
   style="stroke: rgb(0,0,0); stroke-width: 1; stroke-dasharray: none; stroke-linecap: butt; stroke-dashoffset: 0; stroke-linejoin: miter; stroke-miterlimit: 4; fill: rgb(255,255,255); fill-opacity: 0; fill-rule: nonzero; opacity: 1;"
   transform=" translate(0, 0)"
   d="M -44.91101 -23.36239 L 44.91101 23.362379999999998"
   stroke-linecap="round"
   id="path13" />&#10;</g>&#10;<g
   transform="matrix(1 0 0 1 74.0686158586 169.9771760103)"
   id="WHMM-ZcU7RepWzERcNQP2">&#10;<path
   style="opacity:1;fill:#ffffff;fill-opacity:0;fill-rule:nonzero;stroke:#000000;stroke-width:1;stroke-linecap:butt;stroke-linejoin:miter;stroke-miterlimit:4;stroke-dasharray:none;stroke-dashoffset:0"
   d="M -45.116782,23.548145 45.16101,-23.41546"
   stroke-linecap="round"
   id="path14"
   sodipodi:nodetypes="cc" />&#10;</g>&#10;<g
   transform="matrix(1 0 0 1 163.3906403302 169.9771760103)"
   id="6PQZPlvX4vmoX6kTC6HiF">&#10;<path
   style="opacity:1;fill:#ffffff;fill-opacity:0;fill-rule:nonzero;stroke:#000000;stroke-width:1;stroke-linecap:butt;stroke-linejoin:miter;stroke-miterlimit:4;stroke-dasharray:none;stroke-dashoffset:0"
   d="M -44.66101,-23.41546 44.926379,23.636601"
   stroke-linecap="round"
   id="path15"
   sodipodi:nodetypes="cc" />&#10;</g>&#10;<g
   transform="matrix(1 0 0 1 118.6581129758 259.690720668)"
   id="Hzy3WSYsriRi_Ur-iaYqJ">&#10;<path
   style="opacity:1;fill:#ffffff;fill-opacity:0;fill-rule:nonzero;stroke:#000000;stroke-width:1;stroke-linecap:butt;stroke-linejoin:miter;stroke-miterlimit:4;stroke-dasharray:none;stroke-dashoffset:0"
   d="M -0.11574822,-19.427136 0.07151,19.07332"
   stroke-linecap="round"
   id="path16"
   sodipodi:nodetypes="cc" />&#10;</g>&#10;<g
   transform="matrix(1 0 0 1 118.6938705351 296.1169894635)"
   id="SSMU8Kbt6s5MYu2gC4aXa">&#10;<path
   style="opacity:1;fill:#ffffff;fill-opacity:0;fill-rule:nonzero;stroke:#000000;stroke-width:1;stroke-linecap:butt;stroke-linejoin:miter;stroke-miterlimit:4;stroke-dasharray:none;stroke-dashoffset:0"
   d="m -0.03576,-17.85296 0.02729178,36.413561"
   stroke-linecap="round"
   id="path17"
   sodipodi:nodetypes="cc" />&#10;</g>&#10;<g
   transform="matrix(1 0 0 1 163.3191250067 221.3699892657)"
   id="6-ivtn_RYSrAEuPDcABZR"
   style="fill:#4d4d4d;fill-opacity:1;stroke:#33c9ef;stroke-opacity:1;stroke-width:1.37952756;stroke-dasharray:none">&#10;<path
   style="opacity:1;fill:#4d4d4d;fill-opacity:1;fill-rule:nonzero;stroke:#33c9ef;stroke-width:1.37952756;stroke-linecap:butt;stroke-linejoin:miter;stroke-miterlimit:4;stroke-dasharray:none;stroke-dashoffset:0;stroke-opacity:1"
   d="M -44.44677,23.06502 -32.518596,16.875065 44.44677,-23.06501"
   stroke-linecap="round"
   id="path18"
   sodipodi:nodetypes="ccc" />&#10;</g>&#10;<g
   transform="matrix(1 0 0 1 163.3191252116 225.2658300703)"
   id="J6P1BXp1oLmbc2bT8uS5d"
   style="stroke-width:1.37952756;stroke-dasharray:none;stroke:#33c9ef;stroke-opacity:1">&#10;<path
   style="stroke:#33c9ef;stroke-width:1.37952756;stroke-dasharray:none;stroke-linecap:butt;stroke-dashoffset:0;stroke-linejoin:miter;stroke-miterlimit:4;fill:rgb(255, 255, 255);fill-opacity:0;fill-rule:nonzero;opacity:1;stroke-opacity:1"
   transform=" translate(0, -0.000005)"
   d="M -44.44677 23.06502 L 44.44677 -23.065009999999997"
   stroke-linecap="round"
   id="path19" />&#10;</g>&#10;&#10;<g
   transform="matrix(1 0 0 1 163.5333678571 229.0449118663)"
   id="U3QKd8hrIAQta4sdKgjYK"
   style="stroke:#33c9ef;stroke-opacity:1;stroke-width:1.37952756;stroke-dasharray:none">&#10;<path
   style="opacity:1;fill:#ffffff;fill-opacity:0;fill-rule:nonzero;stroke:#33c9ef;stroke-width:1.37952756;stroke-linecap:butt;stroke-linejoin:miter;stroke-miterlimit:4;stroke-dasharray:none;stroke-dashoffset:0;stroke-opacity:1"
   transform="translate(0)"
   d="M -44.667911,23.109248 44.44677,-23.06501"
   stroke-linecap="round"
   id="path21"
   sodipodi:nodetypes="cc" />&#10;</g>&#10;<g
   transform="matrix(1 0 0 1 74.4316450108 258.8158096991)"
   id="KScNPVdCV9gX7YwKiZsse">&#10;<path
   style="stroke: rgb(0,0,0); stroke-width: 1; stroke-dasharray: none; stroke-linecap: butt; stroke-dashoffset: 0; stroke-linejoin: miter; stroke-miterlimit: 4; fill: rgb(255,255,255); fill-opacity: 0; fill-rule: nonzero; opacity: 1;"
   transform=" translate(0, 0)"
   d="M 44.15495 22.7709 L -44.15496 -22.7709"
   stroke-linecap="round"
   id="path22" />&#10;</g>&#10;<g
   transform="matrix(1 0 0 1 74.5746730944 267.0829186215)"
   id="tK98sgzchXXUd_N3eU_Qh"
   style="stroke:#33c9ef;stroke-opacity:1;stroke-width:1.37952756;stroke-dasharray:none">&#10;<path
   style="stroke:#33c9ef;stroke-width:1.37952756;stroke-dasharray:none;stroke-linecap:butt;stroke-dashoffset:0;stroke-linejoin:miter;stroke-miterlimit:4;fill:rgb(255, 255, 255);fill-opacity:0;fill-rule:nonzero;opacity:1;stroke-opacity:1"
   transform=" translate(0.000005, 0)"
   d="M 44.15495 22.7709 L -44.15496 -22.7709"
   stroke-linecap="round"
   id="path23" />&#10;</g>&#10;<g
   transform="matrix(1 0 0 1 75.0746730944 263.0028034853)"
   id="tTOrBW-0b2Cw5tCruQ390"
   style="stroke:#33c9ef;stroke-opacity:1;stroke-width:1.37952756;stroke-dasharray:none">&#10;<path
   style="opacity:1;fill:#ffffff;fill-opacity:0;fill-rule:nonzero;stroke:#33c9ef;stroke-width:1.37952756;stroke-linecap:butt;stroke-linejoin:miter;stroke-miterlimit:4;stroke-dasharray:none;stroke-dashoffset:0;stroke-opacity:1"
   d="M 44.15495,22.7709 -44.618843,-22.925528"
   stroke-linecap="round"
   id="path24"
   sodipodi:nodetypes="cc" />&#10;</g>&#10;<g
   transform="matrix(1 0 0 1 75.0746709407 271.2640331726)"
   id="-23TcUqn_vjuv9O5EH-dV"
   style="stroke-width:1.37952756;stroke-dasharray:none;stroke:#33c9ef;stroke-opacity:1">&#10;<path
   style="stroke:#33c9ef;stroke-width:1.37952756;stroke-dasharray:none;stroke-linecap:butt;stroke-dashoffset:0;stroke-linejoin:miter;stroke-miterlimit:4;fill:rgb(255, 255, 255);fill-opacity:0;fill-rule:nonzero;opacity:1;stroke-opacity:1"
   transform=" translate(0.000005, 0)"
   d="M 44.15495 22.7709 L -44.15496 -22.7709"
   stroke-linecap="round"
   id="path25" />&#10;</g>&#10;<g
   transform="matrix(1 0 0 1 74.0746730944 275.0867096991)"
   id="Sj2fpRIYIls2-ICCVtyyh"
   style="stroke-width:1.37952756;stroke-dasharray:none;stroke:#33c9ef;stroke-opacity:1">&#10;<path
   style="opacity:1;fill:#ffffff;fill-opacity:0;fill-rule:nonzero;stroke:#33c9ef;stroke-width:1.37952756;stroke-linecap:butt;stroke-linejoin:miter;stroke-miterlimit:4;stroke-dasharray:none;stroke-dashoffset:0;stroke-opacity:1"
   transform="translate(5e-6)"
   d="M 44.420319,22.903585 -44.15496,-22.7709"
   stroke-linecap="round"
   id="path26"
   sodipodi:nodetypes="cc" />&#10;</g>&#10;<g
   transform="matrix(1 0 0 1 74.4316428571 278.978350566)"
   id="zS3PVomCzmA3-xfYzMdAA"
   style="stroke-width:1.37952756;stroke-dasharray:none;stroke:#33c9ef;stroke-opacity:1">&#10;<path
   style="stroke:#33c9ef;stroke-width:1.37952756;stroke-dasharray:none;stroke-linecap:butt;stroke-dashoffset:0;stroke-linejoin:miter;stroke-miterlimit:4;fill:rgb(255, 255, 255);fill-opacity:0;fill-rule:nonzero;opacity:1;stroke-opacity:1"
   transform=" translate(0.000005, 0)"
   d="M 44.15495 22.7709 L -44.15496 -22.7709"
   stroke-linecap="round"
   id="path27" />&#10;</g>&#10;<g
   transform="matrix(1 0 0 1 74.5746682992 283.0959976249)"
   id="VuQYKpldIxt3_0E87Nl1F"
   style="stroke-width:1.37952756;stroke-dasharray:none;stroke:#33c9ef;stroke-opacity:1">&#10;<path
   style="stroke:#33c9ef;stroke-width:1.37952756;stroke-dasharray:none;stroke-linecap:butt;stroke-dashoffset:0;stroke-linejoin:miter;stroke-miterlimit:4;fill:rgb(255, 255, 255);fill-opacity:0;fill-rule:nonzero;opacity:1;stroke-opacity:1"
   transform=" translate(0.000005, 0)"
   d="M 44.15495 22.7709 L -44.15496 -22.7709"
   stroke-linecap="round"
   id="path28" />&#10;</g>&#10;<g
   transform="matrix(1 0 0 1 74.9316471644 287.0588459221)"
   id="ykB8jfXENV3I_WRpyqzxj"
   style="stroke-width:1.37952756;stroke-dasharray:none;stroke:#33c9ef;stroke-opacity:1">&#10;<path
   style="opacity:1;fill:#ffffff;fill-opacity:0;fill-rule:nonzero;stroke:#33c9ef;stroke-width:1.37952756;stroke-linecap:butt;stroke-linejoin:miter;stroke-miterlimit:4;stroke-dasharray:none;stroke-dashoffset:0;stroke-opacity:1"
   transform="translate(5e-6)"
   d="M 43.66844,22.549759 -44.375857,-22.859259"
   stroke-linecap="round"
   id="path29"
   sodipodi:nodetypes="cc" />&#10;</g>&#10;<g
   transform="matrix(1 0 0 1 163.3191202116 240.5700428989)"
   id="fBwiUMhdKDHb9kq-jSFyz"
   style="stroke:#33c9ef;stroke-opacity:1;stroke-width:1.37952756;stroke-dasharray:none">&#10;<path
   style="stroke:#33c9ef;stroke-width:1.37952756;stroke-dasharray:none;stroke-linecap:butt;stroke-dashoffset:0;stroke-linejoin:miter;stroke-miterlimit:4;fill:rgb(255, 255, 255);fill-opacity:0;fill-rule:nonzero;opacity:1;stroke-opacity:1"
   transform=" translate(0.000005, 0)"
   d="M -44.44677 23.06502 L -32.3531 16.78918 L -4.885659999999998 2.5353400000000015 L 44.44676 -23.065019999999997"
   stroke-linecap="round"
   id="path30" />&#10;</g>&#10;<g
   transform="matrix(1 0 0 1 164.0333628571 244.3140369856)"
   id="Nvi6bIBFL48KU-vqWg4rg"
   style="stroke-width:1.37952756;stroke-dasharray:none;stroke:#33c9ef;stroke-opacity:1">&#10;<path
   style="opacity:1;fill:#ffffff;fill-opacity:0;fill-rule:nonzero;stroke:#33c9ef;stroke-width:1.37952756;stroke-linecap:butt;stroke-linejoin:miter;stroke-miterlimit:4;stroke-dasharray:none;stroke-dashoffset:0;stroke-opacity:1"
   transform="translate(5e-6)"
   d="M -45.287106,23.374618 -32.3531,16.78918 -4.88566,2.53534 44.225619,-23.06502"
   stroke-linecap="round"
   id="path31"
   sodipodi:nodetypes="cccc" />&#10;</g>&#10;<g
   transform="matrix(1 0 0 1 163.6406355351 248.8308450703)"
   id="ELPBlnsIzrdrpgiX7nmk8"
   style="stroke:#33c9ef;stroke-opacity:1;stroke-width:1.37952756;stroke-dasharray:none">&#10;<path
   style="opacity:1;fill:#ffffff;fill-opacity:0;fill-rule:nonzero;stroke:#33c9ef;stroke-width:1.37952756;stroke-linecap:butt;stroke-linejoin:miter;stroke-miterlimit:4;stroke-dasharray:none;stroke-dashoffset:0;stroke-opacity:1"
   transform="translate(5e-6)"
   d="M -44.667911,23.241933 -32.3531,16.78918 -4.88566,2.53534 44.44676,-23.06502"
   stroke-linecap="round"
   id="path32"
   sodipodi:nodetypes="cccc" />&#10;</g>&#10;<g
   transform="matrix(1 0 0 1 164.1763930944 252.8408432796)"
   id="F_uGQOVvvites7NgULHNq">&#10;<path
   style="opacity:1;fill:#ffffff;fill-opacity:0;fill-rule:nonzero;stroke:#000000;stroke-width:1;stroke-linecap:butt;stroke-linejoin:miter;stroke-miterlimit:4;stroke-dasharray:none;stroke-dashoffset:0"
   d="M -45.19865,23.551531 -32.3531,16.78918 -4.88566,2.53534 44.44676,-23.06502"
   stroke-linecap="round"
   id="path33"
   sodipodi:nodetypes="cccc" />&#10;</g>&#10;<g
   transform="matrix(1 0 0 1 74.5746730944 290.6161214639)"
   id="_wuDKLo236Fn0DMlSTohn">&#10;<path
   style="opacity:1;fill:#ffffff;fill-opacity:0;fill-rule:nonzero;stroke:#000000;stroke-width:1;stroke-linecap:butt;stroke-linejoin:miter;stroke-miterlimit:4;stroke-dasharray:none;stroke-dashoffset:0"
   transform="translate(5e-6)"
   d="M 44.376091,22.815128 -44.15496,-22.7709"
   stroke-linecap="round"
   id="path34"
   sodipodi:nodetypes="cc" />&#10;</g>&#10;<path
   style="fill:#ffffff"
   d="m 205.33665,257.00687 c -0.12736,2.8018 -0.16564,1.91081 0.0515,4.89714 0.013,0.17853 0.0755,0.43629 0.20619,0.56704"
   id="path46" /><path
   style="fill:#ffffff"
   d="m 208.91406,230.33984 0.39453,0.9375 z"
   id="path54" /><path
   style="fill:#ffffff"
   id="path63"
   d="m 10.865394,268.92463 c 0.31531,0.68199 0.407625,1.43322 0.357835,2.17838 -0.0089,0.13297 -0.02958,0.26488 -0.04438,0.39732 -0.05336,0.32261 -0.112678,0.64511 -0.110062,0.97349 7.24e-4,0.0908 -0.0044,0.18362 0.01688,0.27189 0.0446,0.18489 0.146634,0.35431 0.179377,0.54167 0.03726,0.21322 0.01911,0.43248 0.02866,0.64872 -0.06798,0.60689 -0.04118,0.64398 -0.219894,1.21149 -0.09024,0.28657 -0.228789,0.57273 -0.340177,0.85187 -0.205727,0.51556 -0.0384,0.16655 -0.24883,0.57751 -0.145558,0.26469 -0.313597,0.52256 -0.363481,0.82451 0.0726,0.18399 0.07061,0.38119 0.06386,0.57555 -0.0025,0.0707 0.0089,0.14444 -0.01276,0.21174 -0.01179,0.0366 -0.05447,0.0543 -0.0817,0.0814 4.431215,2.22169 8.862429,4.44337 13.293644,6.66506 -0.07747,-0.077 -0.178596,-0.13585 -0.23242,-0.23085 -0.06902,-0.12183 -0.09336,-0.2646 -0.125473,-0.40089 -0.110594,-0.46944 -0.05881,-0.95996 -0.05822,-1.4375 0.0088,-0.24827 -0.0069,-0.49743 0.0015,-0.74566 0.006,-0.17683 0.02626,-0.34354 0.01444,-0.52034 -0.03538,-0.19635 -0.03133,-0.39637 -0.04426,-0.59486 0,0 -13.310004,-6.42083 -13.310004,-6.42083 v 0 c 0.091106,0.16647 0.1133146,0.33943 0.1244909,0.52851 0.013039,0.0575 0.022168,0.11596 0.039116,0.1724 0.038427,0.12797 0.1051601,0.24648 0.1413543,0.3751 0.076578,0.27212 0.1015878,0.56007 0.1882238,0.83019 0.09518,0.4287 0.283224,1.23445 0.01921,1.62421 -0.05743,0.0848 -0.1478873,0.14169 -0.2218312,0.21253 4.4361652,2.25447 8.8723302,4.50895 13.3084952,6.76342 -0.02062,-0.0597 -0.0535,-0.11645 -0.06187,-0.17903 -0.0085,-0.0635 0.0055,-0.12803 0.01228,-0.1917 0.01824,-0.17166 0.05722,-0.33241 0.151942,-0.47911 -0.02975,-0.30576 -0.111979,-0.60719 -0.115657,-0.91658 -0.07721,-1.00437 -0.167982,-2.02747 0.132424,-3.00689 0.07321,-0.18768 0.146412,-0.37536 0.219618,-0.56305 0.102561,-0.15385 0.236912,-0.29073 0.307683,-0.46155 0.13803,-0.33316 -0.12139,-1.02946 -0.128375,-1.38863 -0.05623,-0.56076 -0.114016,-1.22203 0.04958,-1.77117 0.06767,-0.22713 0.140349,-0.30787 0.263874,-0.4851 z" /><path
   style="fill:#ffffff"
   id="path64"
   d="m 17.547185,281.86175 c 0.04718,-0.0167 0.09183,-0.0443 0.141538,-0.0502 0.141009,-0.0168 0.463596,0.0249 0.584107,0.0363 0.368826,0.0347 0.73496,0.079 1.102405,0.12618 0.109186,0.01 0.218411,0.0397 0.327558,0.0294 0.115311,-0.0108 0.221997,-0.0669 0.335154,-0.0916 0.118877,-0.0259 0.239358,-0.0446 0.360048,-0.06 0.378738,-0.0484 0.759109,-0.0421 1.139976,-0.0468 0.533303,-10e-4 1.062578,0.0662 1.593228,0.10777 0.191985,0.0191 0.384809,0.0268 0.577279,0.04 0,0 -11.999819,-8.71784 -11.999819,-8.71784 v 0 c -0.164984,0.0135 -0.330781,0.0201 -0.494555,0.0446 -0.422221,0.0524 -0.836026,0.15981 -1.2604115,0.1993 -0.4897075,0.0456 -0.9876985,0.11881 -1.4791236,0.0433 -0.1203676,-0.0185 -0.2348765,-0.0659 -0.3548143,-0.087 -0.085474,-0.015 -0.1730059,-0.014 -0.2595088,-0.021 -0.717505,-0.0614 -1.4313844,-0.21627 -2.086999,-0.52157 z" /><path
   style="fill:#ffffff"
   id="path65"
   d="m 6.2928566,275.02054 c 0.4292869,0.6441 0.8472915,1.30665 1.1479836,2.02285 0.047546,0.11325 0.085329,0.23035 0.1279929,0.34552 0.2177212,0.46402 0.1709801,0.43339 0.5523678,0.88107 0.2544005,0.29862 0.5104717,0.516 0.8065932,0.7684 0.1101698,0.0939 0.2098624,0.20342 0.3346851,0.27673 4.1096028,2.41365 8.2424478,4.78751 12.3636718,7.18126 0.129383,0.0582 0.258766,0.11635 0.38815,0.17452 0,0 -11.181541,-8.94565 -11.181541,-8.94565 v 0 c -0.068,-0.0407 -0.135994,-0.0814 -0.203991,-0.12214 3.886907,2.26056 7.779116,4.51203 11.660721,6.78169 0.148674,0.0869 -0.310287,-0.14994 -0.461127,-0.23306 -0.225098,-0.12403 -0.584748,-0.35442 -0.804156,-0.49957 -0.09451,-0.0625 -0.194226,-0.11853 -0.28071,-0.19175 -0.09124,-0.0773 -0.166514,-0.17159 -0.249771,-0.25738 -0.07928,-0.11612 -0.166283,-0.22733 -0.237846,-0.34837 -0.07372,-0.12469 -0.331057,-0.65537 -0.391907,-0.79334 -0.07427,-0.16838 -0.194487,-0.44633 -0.216376,-0.64294 -0.0056,-0.0502 0.01532,-0.0999 0.02299,-0.14986 z" /><path
   style="fill:#ffffff"
   id="path66"
   d="m 25.273316,287.81313 c -0.10824,-0.2773 -0.04858,-0.56754 -0.07549,-0.85606 -0.01683,-0.18039 -0.06777,-0.35736 -0.07432,-0.53842 -0.01921,-0.53071 0.04715,-0.66305 0.166598,-1.16884 0.233166,-0.63131 0.104115,-0.3424 0.381041,-0.8837 0.130677,-0.25543 0.179298,-0.37077 0.335659,-0.60201 0.145947,-0.21584 0.199883,-0.2621 0.373443,-0.45422 0.08301,-0.0733 0.166,-0.14664 0.249032,-0.21993 0.247162,-0.21815 0.224661,-0.21553 0.500201,-0.39062 0.159415,-0.10129 0.335903,-0.17444 0.493061,-0.2792 0.07532,-0.0502 0.141285,-0.1132 0.211928,-0.16981 0.221395,-0.18207 0.467151,-0.33928 0.684509,-0.52625 0.230688,-0.19844 0.06149,-0.10633 0.249761,-0.1943 0.228689,-0.125 0.01296,0.006 0.274214,-0.20862 0.0363,-0.0298 0.07971,-0.0499 0.11653,-0.079 0.03284,-0.026 0.155367,-0.15627 0.203663,-0.15473 0.0172,5.4e-4 0.01521,0.0309 0.02282,0.0463 0.02069,0.19193 0.238185,0.20156 0.391533,0.22138 0.210354,0.006 0.45765,-0.10306 0.663383,-0.0793 0.04219,0.005 0.443146,0.15869 0.46166,0.16565 0.227724,0.0868 0.288627,0.11208 0.52088,0.19217 0.08273,0.0285 0.170346,0.0447 0.249198,0.0827 0.06398,0.0308 0.236594,0.15678 0.174936,0.12156 -3.875116,-2.21357 -7.706521,-4.50475 -11.61602,-6.65701 -0.348694,-0.19197 0.610536,0.51087 0.915805,0.76631 0.704619,0.78791 0.871935,0.91808 1.455921,1.79445 0.19378,0.2908 0.360623,0.59868 0.53834,0.89957 0.502016,0.84993 0.717102,1.17728 1.109971,2.08994 0.158831,0.36898 0.286321,0.75067 0.429482,1.126 0.08737,0.35999 0.197736,0.71516 0.262118,1.07997 0.13871,0.78595 0.141925,1.65024 0.0431,2.44235 -0.05153,0.41306 -0.138154,0.759 -0.22812,1.16325 -0.147983,0.38212 -0.217369,0.62214 -0.445365,0.96742 -0.117156,0.17741 -0.481723,0.58347 -0.641405,0.7273 -0.118375,0.10662 -0.646769,0.48716 -0.763067,0.5721 -0.184806,0.10884 -0.359426,0.2372 -0.554419,0.32651 -0.383952,0.17586 -1.195808,0.41126 -1.591364,0.49082 -0.313306,0.063 -0.633027,0.0885 -0.948926,0.13684 -1.693596,0.25933 -0.231499,0.0648 -1.959586,0.28019 -0.904686,0.1222 -1.819834,0.0909 -2.728029,0.15537 -0.264906,0.0188 -0.528095,0.0569 -0.792366,0.0831 -0.834998,0.0829 -0.634848,0.0633 -1.441248,0.11154 -0.795907,0.0475 -0.410569,0.0385 -1.180378,0.0313 -0.162439,-0.002 -0.325817,0.0127 -0.487314,-0.005 -0.40235,-0.0437 -0.765058,-0.23382 -1.120803,-0.40967 -4.1358178,-2.62115 -1.2368612,-0.77602 11.423916,6.46432 0.153366,0.0877 -0.330833,-0.13063 -0.479049,-0.22679 -0.74185,-0.48126 -1.015998,-0.72888 -1.381715,-1.60138 -0.169219,-0.4037 -0.225693,-0.84588 -0.338539,-1.26883 0.0035,-0.42941 -0.03483,-0.8612 0.01045,-1.28823 0.145451,-1.37176 0.810053,-2.82873 1.637506,-3.92617 0.155571,-0.20633 0.339814,-0.3894 0.509721,-0.58409 0.177508,-0.14009 0.327315,-0.32528 0.532524,-0.42027 0.272857,-0.1263 1.180415,-0.0442 1.355334,-0.0106 1.407188,0.26994 2.653409,1.09128 3.871461,1.79187 -2.967973,-1.68362 -5.915105,-3.40453 -8.903919,-5.05087 -0.226718,-0.12488 0.420926,0.30393 0.60901,0.48175 0.11126,0.10519 0.197117,0.23504 0.283119,0.36172 0.05242,0.0772 -0.129197,-0.16789 -0.222504,-0.16997 -0.120617,-0.003 -0.239101,0.0325 -0.358652,0.0487 -0.175683,-0.0152 -0.354997,-0.007 -0.52705,-0.0456 -0.342509,-0.0769 -0.933436,-0.33206 -1.218111,-0.52644 -0.191095,-0.13048 -0.724625,-0.5699 -0.522847,-0.45664 10.702886,6.00784 13.976024,9.22471 10.425799,5.81801 -0.3098,-0.4898 -0.510682,-0.74493 -0.696372,-1.31401 -0.188443,-0.57752 -0.222723,-1.24443 -0.108024,-1.84082 0.0237,-0.12325 0.07271,-0.24026 0.109066,-0.36038 0.170637,-0.21954 0.07089,-0.15422 0.269441,-0.23523 0,0 -13.072197,-6.74841 -13.072197,-6.74841 v 0 c 0.161578,0.42308 0.07397,0.18958 0.260972,0.7012 0.05701,0.18076 0.119825,0.3598 0.171044,0.54229 0.209765,0.74738 0.36794,1.51538 0.483877,2.28257 0.04209,0.27855 0.04948,0.56258 0.107365,0.83828 0.05581,0.26582 0.155081,0.52062 0.232621,0.78093 2.1428,5.00377 0.188869,0.83489 12.262774,7.98479 0.208943,0.12373 0.453956,0.17648 0.689847,0.23412 0.801575,0.19586 1.612077,0.13402 2.405071,-0.0677 0.276344,-0.13251 0.589746,-0.20604 0.829031,-0.39753 0.652756,-0.52237 1.004739,-1.09147 0.631086,-1.96217 -0.188141,-0.43842 -1.584321,-1.46331 -1.894215,-1.64592 -3.693916,-2.17664 -7.436078,-4.27034 -11.154118,-6.40551 -0.996668,-0.46284 -1.839427,-0.87575 -2.885264,-1.25845 -0.663747,-0.24289 -1.321891,-0.52229 -2.015285,-0.65925 -0.850793,-0.16805 -2.029671,-0.0803 -2.784995,0.41866 -0.240309,0.15874 -0.318006,0.48027 -0.477009,0.72041 -0.12454,0.28548 -0.2697551,0.56281 -0.3736192,0.85645 -0.2075215,0.58669 -0.4012225,1.5172 -0.5236684,2.11117 -0.2716998,1.31798 -0.5035106,2.64417 -0.7388715,3.96895 -0.1498647,0.8606 -0.2621547,1.41755 -0.3573583,2.26579 -0.028982,0.25821 -0.1008009,0.52025 -0.061447,0.77709 0.024047,0.15694 0.1065686,0.32874 0.2432603,0.40951 11.9210101,7.04411 7.8163771,6.1593 12.9155441,7.20136 0.424759,0.0464 0.499736,0.0765 0.927335,0.0356 0.62352,-0.0596 1.204661,-0.29707 1.819133,-0.40068 0.484994,-0.12652 0.66053,-0.18123 1.167751,-0.27418 0.233544,-0.0428 0.469658,-0.0704 0.703612,-0.1109 0.798367,-0.1382 1.588947,-0.31806 2.386668,-0.45975 1.28299,-0.22154 0.626725,-0.11944 1.969218,-0.30357 0.33071,-0.054 0.658148,-0.12645 0.987509,-0.18816 0.353573,-0.0662 0.709688,-0.11964 1.061283,-0.19568 0.809936,-0.17517 1.154356,-0.29768 1.940631,-0.53747 0.250066,-0.12546 0.518255,-0.21995 0.750199,-0.3764 0.185549,-0.12516 0.339832,-0.2932 0.489376,-0.45972 0.610508,-0.67982 0.939485,-1.58265 1.191457,-2.44356 0.03824,-0.25398 0.101339,-0.50545 0.114718,-0.76194 0.01433,-0.27468 -0.0045,-0.55086 -0.03197,-0.82454 -0.146623,-1.46237 -0.716015,-2.82905 -1.045253,-4.25128 -0.319402,-1.17793 -0.284685,-1.16695 -0.712787,-2.29242 -0.132264,-0.34772 -0.259071,-0.69882 -0.422734,-1.03292 -0.163353,-0.33345 -0.37286,-0.64226 -0.556107,-0.96522 -0.447176,-0.7881 -0.539245,-0.9672 -0.954855,-1.736 -0.07479,-0.20754 -0.03862,-0.50361 -0.224373,-0.62261 -7.634176,-4.89055 -8.072293,-7.04268 -13.455427,-7.64655 -0.43209,-0.0127 -0.209586,-0.0128 -0.667504,0.003 -0.32464,-0.005 -0.64508,-0.0816 -0.970041,-0.0755 -0.373011,0.0635 -0.636802,0.17294 -0.908485,0.45143 -0.178127,0.20371 -0.321756,0.43296 -0.54009,0.59913 -0.268833,0.28182 -0.52632,0.57339 -0.809344,0.84129 -0.184069,0.17996 -0.339607,0.37934 -0.512098,0.57037 -0.168314,0.18641 -0.352926,0.35784 -0.518384,0.54678 -0.08666,0.099 -0.163647,0.20601 -0.24547,0.30901 -0.26594,0.33045 -0.341296,0.38637 -0.528812,0.76775 -0.308367,0.62719 -0.33901,1.27457 -0.444643,1.95235 -0.138528,0.48456 -0.149688,0.64389 -0.407826,1.07851 -0.08364,0.14083 -0.203516,0.25732 -0.292687,0.39471 -0.137397,0.2117 -0.171705,0.4782 -0.375768,0.64326 z" /><path
   style="fill:#ffffff"
   id="path67"
   d="m 13.942627,278.23885 c 0.123621,0.20436 0.272103,0.39561 0.370863,0.61307 0.122657,0.27009 0.202259,0.55797 0.289689,0.84143 0.1195,0.38742 0.238434,0.77568 0.330863,1.17044 0.190765,0.81475 0.365965,1.92303 0.435345,2.7552 0.03568,0.42799 0.03306,0.85832 0.04958,1.28747 -0.04229,0.74215 -0.06075,1.31084 -0.152273,2.04064 -0.03213,0.2562 -0.08745,0.50903 -0.124352,0.76459 -0.03226,0.22343 -0.04828,0.44907 -0.08309,0.67212 -0.07124,0.4565 -0.105388,0.53741 -0.221284,0.95286 -0.119099,0.40715 -0.05845,0.21767 -0.178618,0.56951 0,0 12.848478,6.50464 12.848478,6.50464 v 0 c -0.141162,-0.49678 -0.06761,-0.23238 -0.219478,-0.79354 -0.149979,-0.54281 -0.191431,-0.66698 -0.31816,-1.24582 -0.05876,-0.2684 -0.103264,-0.53983 -0.163558,-0.80789 -0.07135,-0.31723 -0.160768,-0.63024 -0.231309,-0.94766 -0.193712,-0.87166 -0.285324,-1.44606 -0.443598,-2.33631 -0.09087,-1.03137 -0.185066,-1.53073 -0.08157,-2.56017 0.08313,-0.82684 0.20608,-1.19572 0.532823,-1.92207 0.08455,-0.18795 0.156634,-0.38883 0.289688,-0.54621 0.0945,-0.11179 0.247242,-0.15677 0.370863,-0.23515 z" /><path
   style="fill:#ffffff"
   id="path68"
   d="m 14.396446,277.90096 c 0.0646,0.11809 0.135187,0.23309 0.193794,0.35426 0.0671,0.13872 0.120728,0.28357 0.182897,0.42457 0.181601,0.41187 0.324279,0.69017 0.468217,1.12056 0.169915,0.50807 0.192145,0.71495 0.294957,1.24228 0.0097,0.47833 0.04205,0.73663 -0.05552,1.20886 -0.06425,0.31096 -0.217349,0.64797 -0.352794,0.93366 -0.06044,0.12749 -0.117962,0.25702 -0.191147,0.37765 -0.06216,0.10245 -0.142315,0.19283 -0.213473,0.28925 0,0 12.284587,6.94413 12.284587,6.94413 v 0 c 0.07363,-0.25282 0.222797,-0.74788 0.273621,-0.99707 0.03969,-0.19462 0.06267,-0.39229 0.09077,-0.58892 0.100602,-0.70386 0.19185,-1.41016 0.240069,-2.11979 0.04225,-0.94449 0.04032,-0.43032 0.0027,-1.32034 -0.01981,-0.46825 -0.02445,-0.50965 -0.0213,-0.94019 7.3e-4,-0.0999 -0.0098,-0.20093 0.006,-0.29953 0.01082,-0.0675 0.04852,-0.12781 0.07278,-0.19172 z" /><path
   style="fill:#ffffff"
   id="path69"
   d="m 22.509647,290.37694 c 0.592844,-0.31586 1.294089,-0.37135 1.949879,-0.44647 0.767334,-0.0906 1.544763,-0.0326 2.311938,-0.1263 0.4002,-0.0489 0.645325,-0.12228 1.03723,-0.21913 0.747581,-0.25832 1.528634,-0.42692 2.321142,-0.43072 0.22576,-0.009 0.435342,-0.10733 0.631044,-0.21413 0.07034,-0.0384 0.132948,-0.0902 0.204177,-0.12691 0.153042,-0.0789 0.21102,-0.0833 0.370292,-0.12092 0.141861,-0.0539 0.290024,0.009 0.431573,8.3e-4 0.05054,-0.003 0.0986,-0.0235 0.148598,-0.0315 0.114558,-0.0183 0.197596,-0.0181 0.314261,-0.0229 5.009099,0.098 13.900132,8.46682 -11.683491,-8.48572 -0.106798,-0.0708 -0.157908,0.21219 -0.270814,0.27274 -0.197505,0.10592 -0.424858,0.14284 -0.637288,0.21426 -0.303299,0.0368 -0.604715,0.0959 -0.909896,0.11035 -0.34321,0.0162 -0.687619,0.002 -1.030608,-0.0187 -0.89101,-0.0529 -1.777616,-0.20095 -2.629289,-0.4699 -0.206591,-0.0652 -0.406967,-0.14874 -0.610451,-0.22311 -0.123748,-0.0562 -0.720208,-0.3212 -0.860676,-0.40503 -0.483984,-0.28885 -0.0844,-0.13064 -0.529233,-0.37134 -0.06891,-0.0373 -0.167089,-0.15036 -0.217107,-0.0901 -0.390553,0.47087 -0.659987,1.03025 -0.98998,1.54537 0.161762,0.21248 0.287953,0.4575 0.485286,0.63743 0.240039,0.21886 0.541032,0.35969 0.809266,0.54291 0.292291,0.19965 0.583646,0.40071 0.872256,0.60565 0.618494,0.43917 1.220961,0.89781 1.816679,1.36706 4.233106,3.56343 -0.458079,0.40832 13.759837,5.67158 0.277237,0.10263 -0.486874,-0.33555 -0.725984,-0.50939 -0.231661,-0.16842 -0.457415,-0.34482 -0.686123,-0.51723 -0.492053,-0.40673 -0.99103,-0.80823 -1.442977,-1.26042 -0.07747,-0.0775 -0.133308,-0.17839 -0.222536,-0.24202 -0.0395,-0.0282 0.07411,0.0823 0.06546,0.13001 -0.04473,0.24716 -0.146307,0.48058 -0.21946,0.72087 -0.04833,0.11323 -0.146633,0.21658 -0.144988,0.33968 6.89e-4,0.0515 0.09918,0.029 0.150027,0.0375 0.09723,0.0162 0.195999,0.0217 0.293468,0.0364 0.327212,0.0494 0.652447,0.11786 0.978031,0.17691 0.311566,0.058 0.623773,0.11244 0.935735,0.16829 0.186237,0.0333 0.291943,0.008 0.409473,0.17339 0.03949,0.0557 0.04721,0.12809 0.07082,0.19214 0,0 -11.627095,-9.19326 -11.627095,-9.19326 v 0 c -0.120244,0.0741 -0.181659,0.12842 -0.32554,0.15133 -0.05424,0.009 -0.109861,-9.6e-4 -0.164759,-0.003 -0.25262,-0.008 -0.503452,-0.0364 -0.754743,-0.0623 -0.472457,-0.0499 -0.956335,-0.09 -1.431837,-0.066 -0.162631,0.008 -0.337328,-0.0224 -0.486664,0.0425 -0.220673,0.0959 -0.389828,0.2822 -0.584741,0.4233 -0.132204,0.31388 -0.373942,0.6018 -0.396611,0.94163 -0.02543,0.38124 0.579699,0.7551 0.796795,0.92195 0.568368,0.43681 1.1349,0.87494 1.678858,1.34249 0.132801,0.1348 0.274288,0.26157 0.398403,0.40441 0.06442,0.0741 0.07449,0.20607 0.16505,0.24406 23.664923,9.92702 16.655198,7.3753 11.993344,4.64306 -0.716043,-0.45141 -1.453241,-0.88896 -2.116619,-1.4176 -0.157325,-0.12537 -0.30859,-0.25932 -0.448174,-0.40418 -0.07249,-0.0752 -0.08472,-0.22381 -0.185036,-0.25298 -0.06121,-0.0178 -0.03495,0.12261 -0.05242,0.18392 -0.345882,0.48387 -0.696608,0.96432 -1.037646,1.45161 -0.0035,0.005 0.01122,0.005 0.0173,0.006 0.04731,0.007 0.09471,0.0144 0.142438,0.0176 0.293908,0.0196 0.589637,0.025 0.883991,0.0329 1.524881,-0.13166 3.055378,-0.34892 4.58722,-0.18818 0.393523,0.0543 0.78948,0.0933 1.180569,0.16298 0.335854,0.0599 1.267016,0.43564 0.998305,0.22545 -3.793301,-2.96706 -7.762809,-5.70167 -11.644213,-8.55251 -0.02247,0.0141 -0.04241,0.0334 -0.06742,0.0423 -0.02601,0.009 -0.31245,0.07 -0.32691,0.0731 -0.136545,0.0256 -0.272918,0.052 -0.409621,0.0767 -0.05897,0.0106 -0.119778,0.0132 -0.177141,0.0306 -0.182307,0.055 -0.343584,0.17059 -0.509101,0.25998 -0.07017,0.0382 -0.27131,0.15212 -0.352146,0.179 -0.22264,0.074 -0.46982,0.0588 -0.683574,0.16287 -0.546344,0.31428 -1.083909,0.66928 -1.720187,0.7647 -1.002331,0.13976 0.08477,-0.004 -0.961364,0.10898 -0.694745,0.075 -1.386289,0.19835 -2.087396,0.19914 -0.526757,-0.007 -0.730356,10e-4 -1.249876,-0.0464 -0.557607,-0.0514 -1.108463,-0.15878 -1.654767,-0.27852 z" /><circle
   id="path70"
   style="fill:#ffffff;stroke:#000000"
   cx="23.39374"
   cy="284.59637"
   r="0.04146865" /><circle
   id="path71"
   style="fill:#ffffff;stroke:#000000"
   cx="20.428335"
   cy="294.81055"
   r="0.04146865" /><circle
   id="path72"
   style="fill:#ffffff;stroke:#000000"
   cx="15.321252"
   cy="283.93741"
   r="0.04146865" /><path
   style="fill:#ffffff"
   id="path73"
   d="m 5.54065,286.55845 c 0.025105,0.1736 0.099438,0.71757 0.1408359,0.79321 0.1331481,0.24331 0.2976865,0.49383 0.5351421,0.63716 4.071869,2.4577 8.218983,4.78885 12.35242,7.14154 0.179669,0.10226 0.39037,0.13729 0.580086,0.21943 0.199556,0.0864 0.391005,0.19043 0.586507,0.28565 0.653226,0.32432 0.448562,0.21196 1.046149,0.54741 0.136793,0.0768 0.276921,0.14816 0.40904,0.23274 0.111229,0.0712 0.434499,0.29939 0.319826,0.23387 -13.4185416,-7.66657 -16.2164943,-9.14926 -11.980855,-6.90174 3.943129,3.10398 0.802855,0.63946 12.826264,7.44277 0.04354,0.0246 0.395328,-0.1192 0.416614,-0.1329 0.111542,-0.0718 0.205304,-0.168 0.309335,-0.25028 0.09765,-0.0772 0.197112,-0.15214 0.295669,-0.22821 0.35948,-0.32638 0.245443,-0.24469 0.625244,-0.50915 0.278189,-0.19371 0.468332,-0.26379 0.634866,-0.59839 0.128342,-0.25788 0.286689,-0.99394 0.355447,-1.28497 0.08546,-0.52832 0.236845,-1.04183 0.360291,-1.56127 0.08634,-0.3633 0.146088,-0.73361 0.219775,-1.09963 0.06585,-0.48409 0.107032,-0.96912 0.140901,-1.45622 -0.0043,-0.35026 0.01547,-0.70007 0.05268,-1.04815 -0.02708,-0.1 0.0116,-0.20119 0.0019,-0.30108 -0.0068,-0.07 -0.02998,-0.13755 -0.04109,-0.20701 -0.03774,-0.23597 -0.04728,-0.47467 -0.05837,-0.71291 0.05181,-0.28475 4.92e-4,-0.57315 0.02222,-0.85856 0.02882,-0.37865 0.03421,-0.0873 0.01671,-0.41528 0.009,-0.21185 0.03337,-0.42268 0.05292,-0.63372 0,0 -13.695778,-5.77396 -13.695778,-5.77396 v 0 c 0.186819,-0.11036 0.216834,-0.15125 0.383207,0.007 0.02004,0.0455 0.03481,0.0938 0.06013,0.13664 0.02377,0.0402 0.06988,0.0668 0.08602,0.11059 0.02555,0.0694 0.0386,0.34402 0.04747,0.41362 0.0089,0.0695 0.02308,0.13816 0.0354,0.2071 0.01231,0.0688 0.02566,0.13748 0.03849,0.20623 -0.01068,0.21816 -0.01741,0.43853 -0.05839,0.6538 -0.01065,0.0559 -0.03495,0.10916 -0.04101,0.16576 -0.01083,0.10113 0.02874,0.20387 0.0023,0.30512 0.03669,0.37172 0.06027,0.74473 0.06229,1.11844 0.04192,0.51604 0.09555,1.03003 0.147314,1.54507 0.05102,0.37844 0.08596,0.75381 0.104783,1.13541 0.01757,0.35611 0.03706,0.57882 -0.01379,0.93619 -0.02173,0.15269 -0.06665,0.30118 -0.09997,0.45177 -0.05342,0.12084 -0.08542,0.25366 -0.160272,0.36253 -0.03778,0.055 -0.314086,0.22893 -0.373831,0.26796 -0.26087,0.17041 -0.503768,0.33988 -0.832826,0.31003 -0.343765,-0.0817 -0.181635,0.0112 -0.402025,-0.2536 -0.04312,-0.0518 -0.097,-0.0951 -0.134344,-0.15117 -0.02909,-0.0437 -0.108113,-0.17065 -0.06249,-0.14463 15.294379,8.72314 16.693972,9.46245 12.2927,7.12787 -4.208832,-2.8726 -0.669144,-0.46516 -12.791822,-7.39066 -0.07437,-0.0425 -0.163208,-0.0522 -0.243662,-0.0815 -0.3501922,-0.12783 -0.6958496,-0.26971 -1.0406814,-0.41108 -0.1768229,-0.0795 -0.3574245,-0.15117 -0.5304686,-0.23862 -0.2016337,-0.10191 -0.7877218,-0.44281 -0.5925773,-0.32897 3.7542753,2.1901 7.5452283,4.31808 11.2700963,6.55783 0.06873,0.0413 -0.155793,0.044 -0.225811,0.0831 -0.05684,0.0317 -0.09727,0.0867 -0.148987,0.12629 -0.0031,0.002 -7.05e-4,-0.008 -0.0011,-0.0115 z" /><path
   style="fill:#ffffff"
   id="path74"
   d="m 24.667577,287.47767 c 0.02368,-0.008 0.04603,-0.0228 0.07103,-0.0249 0.09984,-0.008 0.200137,0.0104 0.300305,0.0121 0.183174,0.003 0.36414,0.013 0.546946,0.0254 1.454453,4.81714 0.106532,0.20624 -12.608402,-6.98027 0,0 13.842887,5.34624 13.842887,5.34624 v 0 c -12.922753,-7.31186 -8.369432,-9.3 -13.05867,-7.18609 -0.325157,-0.0684 -0.629445,-0.20452 -0.913976,-0.3753 z" /><path
   style="fill:#ffffff"
   id="path75"
   d="m 26.618169,287.45739 c 0.119092,-0.11437 0.275017,-0.17477 0.406008,-0.27398 0.08149,-0.0617 0.152687,-0.13646 0.235206,-0.1968 0.217665,-0.15917 0.390908,-0.24219 0.629423,-0.37175 0.119397,-0.0427 0.236704,-0.0917 0.358191,-0.12802 0.515519,-0.15402 0.176442,-0.002 0.661731,-0.18811 0.289843,-0.11122 0.553534,-0.26939 0.823864,-0.41962 0.174442,-0.0326 0.463841,-0.31155 0.632099,-0.25706 0.04126,0.0134 0.08009,0.0649 0.106805,0.0947 0.286826,0.0539 0.583065,0.0604 0.874575,0.075 0.108961,0.021 0.357787,-0.0133 0.45609,0.0232 0.0384,0.0143 0.06112,0.0547 0.09416,0.079 0.02791,0.0205 0.08049,0.021 0.0882,0.0547 0.01502,0.0657 -0.01997,0.13336 -0.02996,0.20004 -4.225797,-2.47393 -8.451594,-4.94787 -12.677391,-7.42181 0.08233,-0.0702 0.154389,-0.1199 0.21311,-0.21202 0.06266,-0.0983 0.115538,-0.2025 0.172359,-0.30428 0.126401,-0.22641 0.09936,-0.13933 0.133592,-0.27655 -0.148274,0.0298 -0.20885,0.14609 -0.317173,0.2367 -0.0434,0.0363 -0.09632,0.0594 -0.143539,0.0906 -0.232769,0.1537 -0.08418,0.0745 -0.295224,0.17523 -0.201253,0.0417 -3.44e-4,-0.012 -0.22572,0.0971 -0.193571,0.0937 0.0622,-0.0992 -0.188584,0.1163 0,0 12.621057,7.96921 12.621057,7.96921 v 0 c 0.05411,-0.007 0.20499,-0.2001 0.249261,-0.226 0.09958,-0.0944 0.215142,-0.2003 0.344312,-0.25334 0.0456,-0.0187 0.09822,-0.0139 0.144829,-0.0299 0.09232,-0.0318 0.240824,-0.1304 0.315663,-0.17622 0.06763,-0.0619 0.144057,-0.11542 0.202879,-0.18577 0.190477,-0.22777 0.358927,-0.52653 0.463988,-0.80119 0.03088,-0.0807 0.03563,-0.16921 0.05035,-0.25439 0.01466,-0.0848 0.111227,-0.2106 0.03777,-0.25548 -4.224616,-2.5816 -8.530777,-5.02731 -12.796165,-7.54097 -0.06213,0.044 -0.119443,0.0958 -0.186399,0.13199 -0.03206,0.0174 -0.07181,0.0141 -0.106136,0.0263 -0.04452,0.0159 -0.08378,0.0458 -0.12949,0.0578 -0.132252,0.0349 -0.28362,-8.3e-4 -0.417345,0.0197 -0.368518,0.0204 -0.743472,0.0481 -1.093864,0.17182 -0.07673,0.039 -0.157505,0.0709 -0.230181,0.11694 -0.235003,0.14905 -0.373328,0.39805 -0.587231,0.57009 -0.253594,0.18118 -0.535679,0.29646 -0.806656,0.44825 -0.09324,0.0522 -0.180447,0.11486 -0.274302,0.16597 -0.110521,0.0602 -0.225526,0.11175 -0.338288,0.16762 -0.285042,0.10088 -0.470861,0.17816 -0.768099,0.2378 -0.114663,0.023 -0.232296,0.0276 -0.347982,0.0447 -0.236305,0.035 -0.467224,0.0938 -0.703143,0.13045 z" /><circle
   id="path76"
   style="fill:#ffffff;stroke:#000000"
   cx="21.015623"
   cy="293.44797"
   r="0.04146865" /><path
   style="fill:#ffffff"
   id="path77"
   d="m 27.471095,297.43528 c 0.06543,-0.15193 0.203286,-0.20555 0.334691,-0.28605 0.0963,-0.059 0.224197,-0.1623 0.33124,-0.20133 0.05317,-0.0194 0.111661,-0.0186 0.167491,-0.0279 0.108292,-0.0109 0.208078,-0.0699 0.316371,-0.081 0.03946,-0.004 0.07895,0.008 0.118424,0.0118 0,0 -12.224596,-8.31443 -12.224596,-8.31443 v 0 c -0.140547,0.0933 -0.283595,0.18081 -0.432059,0.26117 -0.05621,0.0404 -0.10892,0.0862 -0.168636,0.12127 -0.131428,0.0771 -0.247654,0.10585 -0.387057,0.16466 -0.173525,0.0732 -0.337561,0.15777 -0.532766,0.15594 z" /><path
   style="fill:#ffffff"
   id="path78"
   d="m 21.787137,295.35252 c 0.358591,0.0199 0.677616,0.0268 1.037193,0.11042 0.295301,0.0686 0.581617,0.17154 0.870651,0.26304 0.48632,0.15396 1.447925,0.47568 1.922861,0.6585 0.296097,0.11397 0.585573,0.24446 0.87836,0.36669 0.695991,0.31578 1.41269,0.61155 2.055116,1.03223 0.139399,0.0913 0.52859,0.40592 0.398448,0.30186 -11.530486,-9.21941 -6.616163,-9.38042 -11.607797,-9.19976 -0.383605,-0.18414 -0.765325,-0.37304 -1.139564,-0.57569 -0.178371,-0.0966 -0.593568,-0.39206 -0.839377,-0.30751 -0.234018,0.0805 -0.397819,0.29448 -0.596728,0.44171 -0.112096,0.24411 -0.246159,0.47928 -0.336289,0.73232 -0.06319,0.17741 -0.08146,0.36774 -0.121116,0.55184 -0.128913,0.59853 -0.06775,0.32786 -0.184651,0.89201 -0.02406,0.11612 -0.0381,0.23494 -0.07391,0.34799 -0.04756,0.15014 -0.116868,0.29251 -0.175303,0.43876 4.832101,2.61733 11.080574,11.56026 13.203492,6.38082 0.438659,-1.07023 0.04451,-0.50017 0.641287,-1.49348 0.231433,-0.3852 0.613721,-0.88206 0.882934,-1.2444 0.420985,-0.48525 0.378697,-0.4663 0.822585,-0.8738 0.105694,-0.097 0.203795,-0.20581 0.325814,-0.28129 0.0899,-0.0556 0.390926,-0.0529 0.299134,-0.10532 -12.920994,-7.38044 -13.373778,-11.58268 -12.382804,-5.86959 -0.106853,0.39193 -0.157177,0.80387 -0.32056,1.1758 -0.320313,0.72918 -0.986286,1.51571 -1.52679,2.08314 -0.294267,0.30893 -0.594975,0.61488 -0.928243,0.88126 -0.570207,0.45578 -1.319167,0.84073 -1.956244,1.19512 -0.367173,0.14907 -1.144656,0.4958 -1.573157,0.56329 -0.183837,0.029 -0.408488,0.0959 -0.558117,-0.0147 -0.161181,-0.11921 -0.39589,-0.65462 -0.219109,-0.56008 11.072449,5.92106 14.876192,10.05904 11.367624,6.31657 -0.182544,-0.76163 -0.363105,-1.14657 -0.100302,-1.9894 0.128431,-0.41189 0.377416,-0.78043 0.627131,-1.13226 0.470538,-0.66296 1.10668,-1.20279 1.747427,-1.69001 0.27246,-0.20718 0.563503,-0.38871 0.845254,-0.58306 0.54745,-0.28136 0.890528,-0.4972 1.474032,-0.66141 0.22872,-0.0644 0.730713,-0.18667 0.976174,0.005 0.106509,0.0833 0.303143,0.4262 0.184639,0.36112 -4.067381,-2.23348 -8.060621,-4.59941 -12.090931,-6.89912 0.146192,0.1294 0.371573,0.20482 0.438578,0.38819 0.238983,0.65403 -0.03905,1.30779 -0.350523,1.86113 -0.279967,0.49736 -0.80221,1.10645 -1.272875,1.44298 -0.213833,0.15289 -0.468214,0.23911 -0.702321,0.35866 -0.447635,0.10326 -0.824765,0.25558 -1.289859,0.1279 -0.165482,-0.0454 -0.59587,-0.34064 -0.445004,-0.25886 3.922594,2.12633 7.852468,4.23943 11.760388,6.39261 0.165602,0.0912 -0.389469,-0.077 -0.529108,-0.20442 -0.168604,-0.15392 -0.229145,-0.39493 -0.343718,-0.5924 -0.0059,-0.28622 -0.06361,-0.57609 -0.01764,-0.85866 0.153876,-0.94586 0.774367,-1.75547 1.520702,-2.31823 0.493783,-0.37233 0.818583,-0.47198 1.370389,-0.70445 0.365329,-0.0808 0.708298,-0.1932 1.088336,-0.15192 0.124273,0.0135 0.27113,0.0227 0.35757,0.11304 0.09631,0.10061 0.253015,0.46334 0.130591,0.39691 -12.78953,-6.93907 -14.558846,-2.79281 -12.252424,-7.62298 0.150875,-0.29898 0.331263,-0.58481 0.452626,-0.89693 0.03486,-0.0897 0.0055,-0.19232 0.0083,-0.28847 3.911874,2.25938 7.819056,4.5269 11.735623,6.77813 0.139801,0.0804 -0.275591,-0.16842 -0.404635,-0.26511 -0.189045,-0.14165 -0.360246,-0.3214 -0.527618,-0.48786 -0.0625,-0.0304 -0.127415,-0.0562 -0.187488,-0.0911 -0.02634,-0.0153 -0.06672,-0.0283 -0.07013,-0.0586 -0.0116,-0.10309 0.272778,-0.28872 0.359131,-0.26369 0.05641,0.0163 0.07508,0.0903 0.11262,0.13549 -1.501949,5.0809 0.07933,0.4021 -12.290278,-6.62745 -0.20212,-0.11486 0.34728,0.33097 0.432185,0.54739 0.131666,0.33561 0.20966,0.70259 0.199587,1.06296 -0.02667,0.9542 -0.385355,1.39913 -0.815865,2.19957 -0.631698,0.79695 -0.60942,0.85889 -1.362865,1.48355 -0.199173,0.16513 -0.376929,0.39281 -0.627669,0.45658 -0.19305,0.0491 -0.752443,-0.24689 -0.578505,-0.14981 12.807082,7.14811 14.659727,10.94779 12.112197,6.12524 0.05263,-0.37288 0.03687,-0.76203 0.157898,-1.11863 0.140622,-0.41432 0.36464,-0.80084 0.615291,-1.15947 0.784834,-1.12292 1.931261,-1.93177 3.192967,-2.4329 0.343231,-0.13632 0.708079,-0.21022 1.062119,-0.31533 0.295409,-0.0316 0.591864,-0.13514 0.886227,-0.0949 0.229887,0.0314 0.830481,0.41372 0.627274,0.30173 -3.865138,-2.13015 -7.633373,-4.45097 -11.613952,-6.3567 -0.312901,-0.14981 0.319922,0.62969 0.369048,0.97311 0.177262,1.23915 -0.115188,1.59647 -0.528548,2.7408 -0.257441,0.3928 -0.484485,0.8073 -0.772322,1.17841 -0.821495,1.05914 -1.945239,1.90159 -3.144463,2.48799 -0.166563,0.0815 -0.340975,0.14576 -0.511463,0.21863 -4.2783807,-2.91815 -3.735701,-2.52862 12.458112,6.61365 0.135209,0.0763 -0.342298,0.23462 -0.449471,0.12227 -0.13629,-0.14287 -0.02295,-0.39637 0.001,-0.59236 0.09576,-0.78246 0.189849,-0.82685 0.531347,-1.54001 0.351913,-0.537 0.568484,-0.90782 0.990781,-1.3931 0.398414,-0.45782 0.997875,-0.99571 1.498223,-1.35085 0.128731,-0.0914 0.267508,-0.16769 0.401262,-0.25154 0.112928,-0.0467 0.286712,-0.25074 0.338784,-0.14017 0.107787,0.22886 0.173606,0.87924 -0.04809,0.75739 -4.238275,-2.32937 -8.195726,-5.13957 -12.369711,-7.58228 -0.12189,-0.0713 0.10453,0.26763 0.11178,0.40868 0.02687,0.52269 -0.128188,0.81966 -0.291313,1.31441 -0.123652,0.231 -0.229555,0.47242 -0.370954,0.693 -0.320463,0.49992 -0.596253,0.77881 -1.029814,1.1765 -0.421928,0.38702 -0.651373,0.56738 -1.140442,0.85699 -0.181287,0.10735 -0.373003,0.19603 -0.559504,0.29405 -0.440544,0.16305 -1.064952,0.57693 -1.555577,0.33265 -0.160002,-0.0797 -0.206837,-0.20323 -0.2914,-0.34499 0.05367,-5.07434 -0.0781,-0.38591 12.39731,6.99643 0.05559,0.0329 -0.123413,-0.0382 -0.1855,-0.056 -0.05763,-0.0165 -0.121832,-0.0168 -0.173612,-0.047 -0.146536,-0.15567 -0.0647,-0.0948 -0.241355,-0.18818 -0.01045,-0.0581 -0.03274,-0.11525 -0.03135,-0.17425 0.0051,-0.21884 0.138592,-0.42818 0.269921,-0.59149 0.0423,-0.0526 0.09996,-0.0924 0.138408,-0.14784 0.05243,-0.0757 0.08806,-0.16167 0.132087,-0.24251 0.03002,-0.0955 0.06208,-0.19038 0.09005,-0.28649 0.08415,-0.28907 0.04332,-0.24283 0.182387,-0.52896 0.03494,-0.0719 0.07999,-0.13839 0.119468,-0.20789 0.147152,-0.25905 0.0993,-0.17232 0.232729,-0.43587 0.05316,-0.14539 0.18259,-0.24833 0.245133,-0.38792 0.04001,-0.0893 0.05812,-0.18688 0.08749,-0.28022 0.07993,-0.25402 0.159929,-0.50351 0.26039,-0.75015 0.02983,-0.0773 0.05919,-0.1547 0.08949,-0.23177 0.02612,-0.0664 0.05787,-0.13074 0.07977,-0.19866 0.09276,-0.28762 0.0295,-0.14241 0.07872,-0.40434 0.02058,-0.10954 0.06902,-0.24594 0.102747,-0.34989 0.123206,-0.36355 0.267199,-0.73564 0.529515,-1.02409 0.136276,-0.14985 0.218735,-0.19777 0.378491,-0.31352 0.254787,-0.16068 0.545148,-0.24098 0.832821,-0.31915 0.171974,-0.0682 0.107349,-0.024 0.27097,-0.26278 0.260636,-0.38043 0.317764,-0.82865 0.39445,-1.27311 -0.145409,-1.40015 -0.545572,-2.75126 -1.020986,-4.07046 -0.2033,-0.51145 -0.460306,-1.00615 -0.756955,-1.47007 -0.113968,-0.17824 -0.247293,-0.34362 -0.360671,-0.52223 -0.212909,-0.3354 -0.313831,-0.55667 -0.488116,-0.90437 -0.144208,-0.29522 -0.245492,-0.60789 -0.364781,-0.91312 -0.07816,-0.19998 -0.16467,-0.39491 -0.236518,-0.59739 -0.01317,-0.0308 -0.01513,-0.0694 -0.03951,-0.0924 -0.01424,-0.0134 -0.03914,-10e-4 -0.05867,-1e-4 -0.09549,0.004 -0.125447,0.10604 -0.151469,0.18437 0.0084,0.006 0.02706,0.007 0.02512,0.0165 -0.0067,0.0341 -0.148486,0.45062 -0.14605,0.48556 0.01192,0.17094 0.379403,0.25657 0.496449,0.29349 0.466154,-0.10071 0.76818,-0.34211 1.060715,-0.70884 0.06886,-0.0863 0.126629,-0.18103 0.193571,-0.26886 0.192933,-0.23037 0.226695,-0.52994 0.351688,-0.79397 0.06167,-0.15494 0.218653,-0.34281 0.227888,-0.50787 0.03208,-0.098 0.07276,-0.21343 0.0864,-0.31257 0.0021,-0.0154 -0.01561,-0.0281 -0.01653,-0.0436 -0.002,-0.0328 0.0111,-0.0656 0.0081,-0.0984 -0.0016,-0.0177 -0.01436,-0.0325 -0.02154,-0.0487 0.002,-0.0343 0.004,-0.0687 0.006,-0.10302 -0.01264,0.019 -0.02845,0.0362 -0.03793,0.0569 -0.302098,0.66041 0.165552,-0.20551 -0.463189,0.87158 -0.0509,0.0872 -0.06322,0.31061 -0.15179,0.26213 -13.361957,-7.31462 -17.5828712,-7.25071 -12.577921,-7.30115 0.04834,0.008 0.101547,0.002 0.145007,0.0246 0.107794,0.0563 0.237955,0.25941 0.312772,0.35069 0.07018,0.0856 0.149534,0.14703 0.233138,0.21883 0.05466,0.13561 0.175772,0.23305 0.246903,0.35713 0.0229,0.04 0.03252,0.0864 0.05402,0.12714 0.01676,0.0317 0.04731,0.0558 0.06025,0.0893 0.01599,0.0414 0.0165,0.0872 0.02474,0.13074 0.0098,0.10691 0.164501,0.0976 0.17503,0.11829 0.03754,0.0738 -0.0098,0.19866 0.06154,0.24066 12.651431,7.44765 8.096602,8.70848 13.013412,7.29646 0.07394,0.0104 0.149122,0.0143 0.221824,0.0314 0.26318,0.0617 0.725255,0.20988 0.95746,0.33987 0.341686,0.24534 0.166512,0.13618 0.524106,0.32974 0.08605,0.0357 0.165257,0.10001 0.258151,0.10713 0.805721,0.0618 1.167224,-1.24126 1.077786,-1.8081 -0.0184,-0.11664 -0.856839,-0.77385 -0.904835,-0.81303 -0.937693,-0.67847 -1.918426,-1.29812 -2.839422,-1.99917 -0.404953,-0.26421 -0.757476,-0.59254 -1.098604,-0.93216 -0.08039,-0.08 -0.155227,-0.16567 -0.237969,-0.24326 -0.240684,-0.22571 -0.443322,-0.37181 -0.709934,-0.57969 -0.38169,-0.3345 -0.719789,-0.7128 -1.054932,-1.09248 -0.277426,-0.3143 -0.34417,-0.37152 -0.572612,-0.70703 -0.06667,-0.0979 -0.124561,-0.20155 -0.186842,-0.30232 -0.244084,-0.42162 -0.08722,-0.11479 -0.232404,-0.47513 -0.02948,-0.0732 -0.0554,-0.12359 -0.07317,-0.11171 -0.02002,0.0134 -0.09099,0.18652 -0.09107,0.18669 -0.01007,0.0804 -0.24166,0.32118 -0.01662,0.25462 0,0 -12.423753,-8.10452 -12.423753,-8.10452 v 0 c -0.290329,0.19284 -0.512322,0.44495 -0.663291,0.7636 -0.07864,0.23905 -0.14004,0.34326 -0.121619,0.59788 0.03702,0.51171 0.436711,0.83498 0.689245,1.24524 0.246816,0.33813 0.337069,0.45893 0.581544,0.8058 0.09866,0.13998 0.189662,0.28549 0.293395,0.42175 0.30131,0.39579 0.658647,0.74676 0.947821,1.15244 0.079,0.11306 0.146781,0.23484 0.236994,0.33916 0.182815,0.21141 0.459446,0.40264 0.673086,0.57379 0.432303,0.34634 0.851941,0.70837 1.248957,1.09496 0.311448,0.24121 0.615823,0.49169 0.932278,0.7263 0.568243,0.42128 1.174254,0.79114 1.730168,1.22962 0.6457,0.38734 0.215652,0.3029 0.784391,-0.56934 0.142373,-0.21834 0.32923,-0.40435 0.500863,-0.60054 0.03138,-0.0359 0.1213,-0.049 0.107247,-0.0946 -0.01736,-0.0563 -0.106475,-0.0503 -0.159713,-0.0755 -0.397196,-0.15068 -0.04154,-0.0296 -0.502658,-0.14087 -0.469975,-0.11343 -0.924329,-0.29473 -1.360808,-0.49955 -3.998733,-3.22086 -1.278235,-1.00778 12.319918,7.02196 0.05063,0.0299 -0.06696,0.11561 -0.125101,0.12436 -0.0016,2.5e-4 -0.100399,-0.25551 -0.187898,-0.21931 -0.04038,-9.3e-4 -0.08368,0.0123 -0.121134,-0.003 -0.03863,-0.0156 -0.05917,-0.0591 -0.0929,-0.0836 -0.03499,-0.0254 -0.08019,-0.036 -0.11216,-0.065 -0.112152,-0.10197 -0.186535,-0.27437 -0.318933,-0.36129 -0.05968,-0.12867 -0.07316,-0.18195 -0.164493,-0.28902 -0.0304,-0.0356 -0.07225,-0.0604 -0.102311,-0.0963 -0.104752,-0.12517 -0.180291,-0.25346 -0.18685,-0.41925 -1.231863,-4.94809 -0.09786,-0.54586 -12.903063,-7.56408 -0.103491,-0.0567 -0.209256,0.11779 -0.288447,0.20529 -0.301256,0.33287 -0.541306,0.70114 -0.655094,1.13392 0.03019,0.13425 -0.0021,-0.0441 -0.0077,0.16249 -4.52e-4,0.0167 0.0159,0.0306 0.01614,0.0473 4.82e-4,0.034 -0.039,0.078 -0.01403,0.10109 0.02229,0.0206 0.04882,-0.1005 0.0791,-0.0452 -0.0081,0.0316 -0.03264,0.0633 -0.02416,0.0947 0.0038,0.0139 0.06808,-0.0631 0.05441,0.006 -0.0077,0.0392 -0.03051,0.0742 -0.0388,0.11328 -0.0036,0.017 0.0024,0.0348 0.0037,0.0522 -0.01368,0.0417 -0.02735,0.0834 -0.04103,0.12511 -0.01638,0.1279 -0.07655,0.23032 -0.131399,0.34305 -0.007,0.0145 -0.0027,0.0231 9.34e-4,0.036 -0.01564,0.0211 -0.02784,0.0453 -0.04691,0.0634 -0.0035,0.003 -0.01477,-0.003 -0.01263,-0.007 0.122415,-0.2457 0.176769,-0.19224 0.0323,-0.46773 -0.216743,-0.0773 -0.465069,-0.16797 -0.699856,-0.10332 -0.411084,0.11322 -0.617437,0.3582 -0.86358,0.67775 -0.211911,0.3108 -0.399577,0.64575 -0.420227,1.03151 -0.0049,0.0916 -0.01194,0.18538 0.0074,0.27501 0.01697,0.0785 0.06633,0.14621 0.09949,0.21932 0.412557,0.63018 0.818002,1.26438 1.259392,1.87538 0.195412,0.29991 0.451475,0.68281 0.627187,0.99382 0.09106,0.16117 0.161158,0.33378 0.254974,0.49336 0.291724,0.49624 0.661105,0.94588 0.97079,1.4303 0.455613,0.69109 0.877408,1.31553 0.885403,2.17626 0.0013,0.13724 -0.0044,0.27742 -0.04098,0.40971 -0.02404,0.0869 -0.09123,0.1556 -0.13684,0.2334 -0.03574,0.10497 -0.06133,0.2973 -0.210808,0.315 -0.04035,0.005 -0.04547,-0.0651 -0.0496,-0.0796 -0.04491,0.005 -0.07592,0.0488 -0.113874,0.0733 -0.120495,0.10382 -0.245988,0.20924 -0.351384,0.32878 -0.15284,0.17335 -0.270498,0.376 -0.409008,0.56001 -0.391124,0.55652 -0.73748,1.14457 -1.15851,1.67978 -0.152749,0.24722 -0.307131,0.50273 -0.397063,0.78179 -0.05994,0.186 -0.03876,0.38952 -0.08983,0.57742 -0.05372,0.22703 -0.115718,0.448 -0.215702,0.66005 -0.02626,0.0557 -0.06498,0.10515 -0.08914,0.16179 -0.05832,0.13672 -0.07421,0.2895 -0.151053,0.41955 -0.141169,0.28591 -0.0964,0.18238 -0.216662,0.47723 -0.04232,0.10376 -0.164441,0.42036 -0.220955,0.52525 -0.04846,0.0899 -0.110838,0.17168 -0.163716,0.2591 -0.03411,0.0564 -0.06479,0.11479 -0.09718,0.17218 -0.08905,0.22332 -0.161354,0.45654 -0.261483,0.67504 -0.160989,0.3513 -0.359269,0.6871 -0.474669,1.05897 -0.04764,0.14602 -0.115535,0.28693 -0.142927,0.43806 -0.018,0.0993 0.0071,0.20177 0.0087,0.3027 0.0018,0.11356 -0.009,0.22766 0.0016,0.34074 0.0082,0.0869 -0.01984,0.21053 0.05461,0.25611 12.53115,7.67264 8.143267,9.44441 12.951445,7.39981 0.228133,-0.13887 0.262507,-0.14981 0.47991,-0.32734 0.43065,-0.35166 0.761956,-0.8033 1.135069,-1.21136 0.437796,-0.48752 0.43873,-0.49036 0.90325,-0.99954 0.183017,-0.20061 0.37552,-0.39287 0.550146,-0.60083 0.179608,-0.21389 0.340228,-0.44303 0.511604,-0.66357 0.577025,-0.74256 0.511429,-0.65454 1.100977,-1.38614 0.74836,-0.87309 0.292567,-0.36646 1.046868,-1.15312 0.143906,-0.15008 0.597989,-0.33065 0.429443,-0.45241 -15.638916,-11.29773 -10.316435,-12.41831 -12.70314,-7.04799 -0.575782,1.17718 0.208014,-0.41332 -0.484569,0.94673 -0.222993,0.43789 -0.404395,0.85976 -0.658311,1.28371 -0.21502,0.359 -0.766438,1.13659 -1.001688,1.47388 -0.188984,0.23886 -0.36368,0.48976 -0.566953,0.71658 -1.322959,1.47623 0.05011,-0.17857 -1.144823,1.06925 -0.252029,0.26319 -1.018208,0.63217 -0.711927,0.8296 13.052454,8.41351 12.792249,11.94584 12.978627,6.60849 0.157899,-0.37452 0.317687,-0.74825 0.474534,-1.12322 0.215491,-0.51516 0.556152,-1.35992 0.782467,-1.84108 0.449699,-0.95608 0.804537,-1.57036 1.316627,-2.50864 1.803927,-2.82197 -0.145969,0.13908 1.760788,-2.4973 0.236194,-0.32657 0.985429,-0.76497 0.665192,-1.00968 -6.121242,-4.6777 -8.614714,-10.80389 -12.342129,-7.18775 -0.174891,0.16968 -0.33596,0.35303 -0.50394,0.52955 -0.571768,0.63039 -0.85097,0.95344 -1.481753,1.57589 -0.340887,0.33639 -0.692005,0.66228 -1.042198,0.98896 -0.763278,0.71204 -1.475107,1.3766 -2.303064,2.01443 -0.365547,0.28161 -0.754027,0.53213 -1.13104,0.79819 -4.841111,3.46144 -1.820838,0.85934 11.514436,8.00115 0.182084,0.0975 -0.02015,-0.41715 0.02248,-0.61925 0.0538,-0.25505 0.17081,-0.49263 0.263428,-0.73629 0.380908,-1.00207 0.366104,-0.91682 0.849363,-1.94767 0.490982,-0.95356 0.634152,-1.33366 1.292254,-2.19567 0.249429,-0.32671 0.562643,-0.60113 0.813323,-0.92688 0.177926,-0.23121 0.705574,-0.56875 0.468747,-0.73913 -11.844813,-8.52143 -8.574099,-10.81885 -12.917834,-7.4023 -0.458149,0.60173 -0.95542,1.37394 -1.033682,2.14129 -0.02072,0.20319 0.02138,0.40793 0.03207,0.61189 0.09328,0.1323 0.17946,0.2699 0.279853,0.39688 0.101852,0.12883 0.219172,0.24467 0.325984,0.36941 3.565143,4.16365 -5.6685581,-2.64874 12.757265,7.67181 0.186349,0.10438 0.454377,0.13182 0.640218,0.0265 0.35718,-0.20234 0.57554,-0.58551 0.86331,-0.87827 0.0924,-0.25936 0.508007,-0.62795 0.277207,-0.77808 -18.034435,-11.73082 -9.170806,-10.71038 -13.026283,-7.02977 -0.09352,0.0893 -0.197622,0.16707 -0.290559,0.25696 -0.198343,0.19183 -0.546074,0.58344 -0.7158,0.7706 -0.158778,0.1886 -0.323937,0.37202 -0.476335,0.56581 -0.481004,0.61166 -0.655901,0.90168 -1.101328,1.56421 -0.633569,0.94237 -1.276282,1.88204 -1.787943,2.89893 -0.115712,0.3152 -0.278367,0.61695 -0.347136,0.94561 -0.05649,0.26994 -0.258724,0.68259 -0.02378,0.82702 4.063535,2.49803 8.296906,4.71586 12.550785,6.87387 0.174455,0.0885 0.36979,-0.13439 0.538309,-0.23373 0.382243,-0.22533 0.740644,-0.61063 1.051943,-0.90942 0.194739,-0.23835 0.405005,-0.46481 0.584216,-0.71504 0.194591,-0.27171 0.355473,-0.56604 0.535105,-0.84786 0.348076,-0.54608 0.860516,-1.36791 1.27068,-1.86611 0.251916,-0.30599 0.564497,-0.55893 0.812788,-0.86787 0.228639,-0.28449 0.409037,-0.60459 0.613556,-0.90688 -4.150085,-2.50336 -8.225491,-5.13493 -12.450254,-7.5101 -0.146483,-0.0823 -0.294908,0.16495 -0.424549,0.27187 -0.22423,0.18494 -0.463352,0.5378 -0.628923,0.76267 -0.538212,0.73096 -0.313963,0.41737 -0.869569,1.24529 -0.202944,0.27833 -0.415007,0.55024 -0.608831,0.83499 -0.803304,1.18016 -0.483108,0.87028 -1.392838,2.08086 -3.0481577,4.05618 1.357259,-1.87484 -1.991658,2.1726 -0.223431,0.27003 -0.354587,0.60467 -0.5318804,0.90701 -0.07864,0.27677 -0.4724493,0.66648 -0.2359192,0.83032 3.9404196,2.72935 8.0819696,5.1668 12.2673176,7.50328 0.192531,0.10748 0.394889,-0.20209 0.568986,-0.3374 0.1461,-0.11356 0.26203,-0.26185 0.382599,-0.40222 0.317335,-0.36944 0.58194,-0.78226 0.899255,-1.15154 0.220731,-0.25664 0.44311,-0.51187 0.662194,-0.76991 0.254045,-0.29922 0.492504,-0.61199 0.757167,-0.90186 0.307843,-0.33716 0.650447,-0.6414 0.959076,-0.97785 0.494477,-0.53904 1.286904,-1.55956 1.822608,-2.06047 0.33055,-0.30908 0.708885,-0.56272 1.063328,-0.84407 0.35959,-0.16785 1.401845,-0.2731 1.078769,-0.50353 -28.6624043,-20.443 -11.027773,-11.8974 -12.365986,-7.13974 -0.04193,0.14905 -0.108878,0.28995 -0.158627,0.43657 -0.306614,0.9037 -0.0017,0.12403 -0.406341,1.0964 -0.316655,0.58148 -0.712609,1.36753 -1.272374,1.7553 -0.179794,0.12454 -0.390277,0.21111 -0.604519,0.25514 -0.124885,0.0257 -0.252523,-0.0354 -0.378784,-0.0531 4.132044,2.38453 8.264088,4.76905 12.396133,7.15358 -0.122782,0.0202 -0.259359,0.12074 -0.368346,0.0607 -0.09119,-0.0502 -0.05617,-0.20097 -0.07276,-0.30375 -0.03069,-0.19014 -0.04734,-0.43647 0.0082,-0.62627 0.01975,-0.0675 0.0358,-0.18816 0.105853,-0.18238 0.06328,0.005 -0.01194,0.12642 -0.0179,0.18963 -0.05171,0.0903 -0.155066,0.1668 -0.155122,0.27084 -3.6e-5,0.0661 0.0978,0.0904 0.154911,0.12368 0.09898,0.0576 0.207834,0.0963 0.310457,0.14717 0.445316,0.22061 0.874963,0.47042 1.305633,0.71791 4.670937,2.81888 1.376797,0.86453 -10.770417,-8.76634 -0.02857,-0.0226 -0.06449,0.0438 -0.10091,0.0422 -0.101634,-0.005 -0.200192,-0.0369 -0.299196,-0.0603 -0.370756,-0.0877 -0.68241,-0.1847 -1.053682,-0.29272 -0.155944,-0.0464 -1.474722,-0.43825 -1.591836,-0.47594 -1.362047,-0.43828 -2.702761,-0.95686 -3.937246,-1.68863 z" /><path
   style="fill:#ffffff"
   id="path79"
   d="m 13.68003,272.12311 c 0.05136,-0.0169 0.100926,-0.0409 0.15409,-0.0508 0.142032,-0.0265 0.505377,0.003 0.645283,0.0479 0.02298,0.007 0.03929,0.028 0.05893,0.042 0.105129,0.0424 0.216998,0.0406 0.326244,0.0578 0.08496,0.0134 0.175778,0.0512 0.260037,0.071 0.194918,0.0388 0.392406,0.0591 0.588305,0.0923 0.01908,0.0759 -0.01115,-0.009 0.06552,0.0655 0.0072,0.007 -0.0022,0.0234 0.0058,0.0296 0.08842,0.0683 0.243109,0.0679 0.344278,0.0768 0.238353,0.0258 0.477265,0.0447 0.716789,0.0547 0.03316,0.0397 0.135818,0.0271 0.172334,0.0291 0.12359,0.007 0.246393,0.008 0.370137,0.0134 0.139991,0.01 0.07986,0.005 0.180461,0.0135 0,0 0.179236,-14.84424 0.179236,-14.84424 v 0 c -0.194564,-0.0261 -0.108741,-0.0205 -0.256855,-0.0246 -0.205907,-0.0214 -0.40032,-0.10463 -0.61095,-0.0942 -0.123603,2.2e-4 -0.259688,0.0121 -0.373064,-0.0444 -0.06524,-0.13859 -0.41354,-0.13265 -0.543291,-0.15232 -0.182441,-0.0311 -0.362817,-0.0712 -0.547624,-0.0859 -0.226515,-0.0348 -0.451728,-0.0774 -0.68058,-0.0919 -0.300527,0.019 -0.627002,0.073 -0.89014,-0.10717 z" /><path
   style="fill:#ffffff"
   id="path80"
   d="m 26.921768,272.95851 c 0.179821,-0.0657 0.369849,-0.0356 0.554602,-0.0115 0.04395,0.006 0.0895,0.005 0.131711,0.0183 0.01688,0.005 0.02584,0.0243 0.03876,0.0364 0.16058,0.0937 0.348767,0.11948 0.529852,0.14913 0.231439,0.0148 0.468586,0.0341 0.70087,0.0181 0.196538,-0.003 0.392869,0.01 0.589212,0.0166 0.09687,-0.0144 0.194799,-0.0121 0.29235,-0.0111 0,0 -0.0014,-14.88209 -0.0014,-14.88209 v 0 c -0.09809,10e-4 -0.196542,0.004 -0.294005,-0.0104 -0.190112,0.008 -0.380297,0.022 -0.570628,0.0167 -0.151124,-0.0156 -0.304527,-0.001 -0.451656,-0.0459 -0.190295,-0.0409 -0.374268,-0.1229 -0.5721,-0.11639 -0.257648,0.008 -0.533959,0.0418 -0.761976,-0.10302 z" /><path
   style="fill:#ffffff"
   id="path81"
   d="m 122.72427,282.81015 c -0.13489,0.0767 -0.29621,0.093 -0.4478,0.11403 -0.0763,0.009 -0.0469,0.006 -0.11734,0.0119 -0.006,5.5e-4 0.013,7.5e-4 0.0187,-0.002 0.0101,-0.004 -0.0206,-0.008 -0.0315,-0.01 -0.0139,-0.002 -0.0278,-0.004 -0.0418,-0.005 -0.10575,-0.0111 -0.21211,-0.0142 -0.31835,-0.016 -0.0919,-10e-4 -0.18381,-10e-4 -0.27571,-10e-4 -0.15246,0.008 -0.24302,0.008 -0.39105,0.033 -0.0251,0.004 -0.0488,0.0149 -0.0735,0.0208 -0.0426,0.0102 -0.0865,0.0149 -0.12848,0.0275 -0.0539,0.0161 -0.0402,0.018 -0.018,0.0374 0.007,0.009 0.17468,0.0266 0.14005,0.0344 -0.0337,1.6e-4 -0.2538,0.008 -0.0762,-0.002 -0.0895,-0.028 -0.19289,-0.0261 -0.28694,-0.0307 -0.0942,-0.004 -0.18856,-0.005 -0.28287,-0.005 -0.0883,-4e-5 -0.1766,1e-4 -0.2649,1.8e-4 -0.11616,0.005 -0.16047,0.005 -0.28169,0.0183 -0.0313,0.003 -0.18404,-0.005 -0.20136,0.0678 0.006,0.0369 -0.0373,0.0279 -0.063,0.029 -0.0115,2.4e-4 -0.0229,5.6e-4 -0.0344,7.4e-4 -0.0378,5.7e-4 -0.0755,4.4e-4 -0.11328,3.7e-4 -0.013,-3e-5 -0.052,0.002 -0.0391,-1.2e-4 0.0212,-0.003 0.0429,-0.003 0.0643,-0.004 0.004,-0.002 0.0166,-0.003 0.0129,-0.006 -0.007,-0.006 -0.0779,-0.0125 -0.0798,-0.0127 0,0 -0.26532,15.11567 -0.26532,15.11567 v 0 c 0.041,0.0158 0.0864,0.0147 0.12937,0.0194 0.12406,0.005 0.24804,0.008 0.3722,0.004 0.15811,-0.004 0.31646,-0.0108 0.47288,-0.0359 0.0584,-0.0104 0.10807,-0.0175 0.16502,-0.0336 0.0182,-0.005 0.063,-0.002 0.0536,-0.019 -0.007,-0.0126 -0.16401,-0.0224 -0.19114,-0.0266 0.0866,-8e-5 0.17325,-2.2e-4 0.25987,-1.8e-4 0.0613,1.6e-4 0.12271,-3.8e-4 0.18385,0.004 0.0601,0.007 0.11759,0.0294 0.17893,0.0296 0.12429,0.005 0.24853,0.008 0.37291,0.004 0.18809,-0.007 0.37653,-0.0195 0.56171,-0.0547 0.0274,-0.007 0.0557,-0.0111 0.0821,-0.0212 0.0111,-0.004 0.0361,-0.012 0.0287,-0.0213 -0.013,-0.0163 -0.0424,-0.006 -0.0599,-0.0177 -0.005,-0.003 0.0107,-0.016 0.005,-0.0178 -0.0389,-0.0123 -0.20175,-0.0185 -0.23132,-0.0202 0.081,-6e-5 0.16202,-2.8e-4 0.24302,10e-4 0.0564,0.002 0.11256,0.006 0.16832,0.0149 0.17423,0.02 0.35017,0.024 0.52474,0.005 0.2698,-0.0262 0.5387,-0.0654 0.80379,-0.12225 z" /><circle
   id="path92"
   style="fill:#2b0000;stroke:#000000"
   cx="207.96519"
   cy="193.84203"
   r="0.033696748" /><circle
   id="path93"
   style="fill:#2b0000;stroke:#000000"
   cx="207.89825"
   cy="193.7751"
   r="0.033696748" /><circle
   id="path94"
   style="fill:#2b0000;stroke:#000000"
   cx="207.89825"
   cy="193.5743"
   r="0.033696748" /><circle
   id="path95"
   style="fill:#2b0000;stroke:#000000"
   cx="208.03214"
   cy="193.70818"
   r="0.033696748" /><circle
   id="path96"
   style="fill:#2b0000;stroke:#000000"
   cx="208.03214"
   cy="193.50735"
   r="0.033696748" /><circle
   id="path97"
   style="fill:#2b0000;stroke:#000000"
   cx="208.63454"
   cy="267.67068"
   r="0.033696748" /><circle
   id="path98"
   style="fill:#2b0000;stroke:#000000"
   cx="30.38822"
   cy="267.06827"
   r="0.033696748" /><circle
   id="path99"
   style="fill:#2b0000;stroke:#000000"
   cx="30.38822"
   cy="266.93439"
   r="0.033696748" /><circle
   id="path100"
   style="fill:#2b0000;stroke:#000000"
   cx="30.38822"
   cy="267.5368"
   r="0.033696748" /><circle
   id="path101"
   style="fill:#2b0000;stroke:#000000"
   cx="30.38822"
   cy="267.46988"
   r="0.033696748" /><circle
   id="path103"
   style="fill:#2b0000;stroke:#000000"
   cx="30.30303"
   cy="267.07278"
   r="0.015727254" /><circle
   id="path104"
   style="fill:#2b0000;stroke:#000000"
   cx="30.27179"
   cy="267.01031"
   r="0.015727254" /><circle
   id="path105"
   style="fill:#2b0000;stroke:#000000"
   cx="30.27179"
   cy="266.8541"
   r="0.015727254" /><circle
   id="path106"
   style="fill:#2b0000;stroke:#000000"
   cx="30.27179"
   cy="266.82288"
   r="0.015727254" /><circle
   id="path107"
   style="fill:#2b0000;stroke:#000000"
   cx="30.27179"
   cy="267.60388"
   r="0.015727254" /><circle
   id="path108"
   style="fill:#2b0000;stroke:#000000"
   cx="30.27179"
   cy="267.32272"
   r="0.015727254" /><circle
   id="path109"
   style="fill:#2b0000;stroke:#000000"
   cx="30.27179"
   cy="267.32272"
   r="0.015727254" /><circle
   id="path110"
   style="fill:#2b0000;stroke:#000000"
   cx="29.166668"
   cy="194.03409"
   r="0.023836618" /><circle
   id="path111"
   style="fill:#2b0000;stroke:#000000"
   cx="29.119318"
   cy="193.75"
   r="0.023836618" /><circle
   id="path112"
   style="fill:#2b0000;stroke:#000000"
   cx="29.119318"
   cy="193.46591"
   r="0.023836618" /><circle
   id="path113"
   style="fill:#2b0000;stroke:#000000"
   cx="29.119318"
   cy="193.37122"
   r="0.023836618" /><circle
   id="path114"
   style="fill:#2b0000;stroke:#000000"
   cx="29.119318"
   cy="194.08144"
   r="0.023836618" /><circle
   id="path115"
   style="fill:#2b0000;stroke:#000000"
   cx="29.02462"
   cy="194.36552"
   r="0.023836618" /><circle
   id="path116"
   style="fill:#2b0000;stroke:#000000"
   cx="28.929924"
   cy="194.36552"
   r="0.023836618" /><circle
   id="path117"
   style="fill:#2b0000;stroke:#000000"
   cx="28.977274"
   cy="194.17615"
   r="0.023836618" /><circle
   id="path118"
   style="fill:#2b0000;stroke:#000000"
   cx="29.214014"
   cy="193.56061"
   r="0.023836618" /><circle
   id="path119"
   style="fill:#2b0000;stroke:#000000"
   cx="119.52224"
   cy="276.27676"
   r="0.04146865" /><circle
   id="path120"
   style="fill:#2b0000;stroke:#000000"
   cx="119.52224"
   cy="276.27676"
   r="0.04146865" /><circle
   id="path121"
   style="fill:#2b0000;stroke:#000000"
   cx="119.52224"
   cy="276.27676"
   r="0.04146865" /><circle
   id="path122"
   style="fill:#2b0000;stroke:#000000"
   cx="119.52224"
   cy="276.68863"
   r="0.04146865" /><circle
   id="path123"
   style="fill:#2b0000;stroke:#000000"
   cx="119.52224"
   cy="276.02966"
   r="0.04146865" /><circle
   id="path124"
   style="fill:#2b0000;stroke:#000000"
   cx="119.02801"
   cy="271.99341"
   r="0.04146865" /><circle
   id="path125"
   style="fill:#2b0000;stroke:#000000"
   cx="119.34629"
   cy="267.66785"
   r="0.02223628" /><circle
   id="path126"
   style="fill:#2b0000;stroke:#000000"
   cx="119.30212"
   cy="267.5795"
   r="0.02223628" /><circle
   id="path127"
   style="fill:#2b0000;stroke:#000000"
   cx="119.30212"
   cy="267.44699"
   r="0.02223628" /><circle
   id="path128"
   style="fill:#2b0000;stroke:#000000"
   cx="119.0371"
   cy="259.18729"
   r="0.02223628" /><circle
   id="path129"
   style="fill:#2b0000;stroke:#000000"
   cx="119.08127"
   cy="259.23145"
   r="0.02223628" /><circle
   id="path130"
   style="fill:#2b0000;stroke:#000000"
   cx="119.21378"
   cy="255.52119"
   r="0.02223628" /><circle
   id="path131"
   style="fill:#2b0000;stroke:#000000"
   cx="119.69965"
   cy="255.30035"
   r="0.02223628" /><circle
   id="path132"
   style="fill:#2b0000;stroke:#000000"
   cx="119.39046"
   cy="255.43286"
   r="0.02223628" /><circle
   id="path133"
   style="fill:#2b0000;stroke:#000000"
   cx="119.0371"
   cy="252.07597"
   r="0.02223628" /><circle
   id="path134"
   style="fill:#2b0000;stroke:#000000"
   cx="118.63958"
   cy="240.32686"
   r="0.02223628" /><circle
   id="path135"
   style="fill:#2b0000;stroke:#000000"
   cx="118.55124"
   cy="240.19435"
   r="0.02223628" /><circle
   id="path136"
   style="fill:#2b0000;stroke:#000000"
   cx="208.48058"
   cy="267.71201"
   r="0.02223628" /><circle
   id="path137"
   style="fill:#2b0000;stroke:#000000"
   cx="208.56889"
   cy="267.80035"
   r="0.02223628" /><circle
   id="path138"
   style="fill:#2b0000;stroke:#000000"
   cx="30.786219"
   cy="264.35513"
   r="0.02223628" /><g
   inkscape:groupmode="layer"
   id="layer1"
   inkscape:label="Layer 1"
   style="display:inline"><path
     style="fill:#0d274d;fill-opacity:1;stroke:#33c9ef;stroke-opacity:1;stroke-width:1.37952756;stroke-dasharray:none;opacity:0.99999999"
     d="M 29.130435,193.36957 118.91304,146.84783"
     id="path158" /><path
     style="opacity:1;fill:#0d274d;fill-opacity:1;stroke:#33c9ef;stroke-width:1.37953;stroke-dasharray:none;stroke-opacity:1"
     d="m 119.01608,146.83065 88.83633,46.64144"
     id="path159" /><path
     style="opacity:1;fill:#0d274d;fill-opacity:1;stroke:#33c9ef;stroke-width:1.37953;stroke-dasharray:none;stroke-opacity:1"
     d="M 208.13623,229.89593 V 193.5667"
     id="path160" /><path
     style="opacity:1;fill:#0d274d;fill-opacity:1;stroke:#33c9ef;stroke-width:1.38555;stroke-dasharray:none;stroke-opacity:1"
     d="m 118.63899,276.25093 90.01358,-46.54469"
     id="path161" /><path
     style="opacity:1;fill:#0d274d;fill-opacity:1;stroke:#33c9ef;stroke-width:1.37953;stroke-dasharray:none;stroke-opacity:1"
     d="m 118.54305,240.49196 0.18921,74.1489"
     id="path162"
     sodipodi:nodetypes="cc" /><path
     style="opacity:1;fill:#0d274d;fill-opacity:1;stroke:#33c9ef;stroke-width:1.38723;stroke-dasharray:none;stroke-opacity:1"
     d="m 28.414464,193.63864 90.282276,46.88512"
     id="path163" /><path
     style="opacity:1;fill:#0d274d;fill-opacity:1;stroke:#33c9ef;stroke-width:1.38955;stroke-dasharray:none;stroke-opacity:1"
     d="m 208.55928,193.31562 -90.0232,46.79526"
     id="path164" /><path
     style="opacity:1;fill:#0d274d;fill-opacity:1;stroke:#33c9ef;stroke-width:1.37953;stroke-dasharray:none;stroke-opacity:1"
     d="m 30.395387,268.28666 -0.08237,-36.82043"
     id="path165" /><path
     style="opacity:1;fill:#0d274d;fill-opacity:1;stroke:#33c9ef;stroke-width:1.588;stroke-dasharray:none;stroke-opacity:1"
     d="M 118.77886,314.08178 30.023704,267.90048"
     id="path166" /><path
     style="opacity:1;fill:#0d274d;fill-opacity:1;stroke:#33c9ef;stroke-width:1.38354;stroke-dasharray:none;stroke-opacity:1"
     d="m 208.70224,267.4507 -89.92705,46.89949"
     id="path167"
     sodipodi:nodetypes="cc" /><path
     style="opacity:1;fill:#0d274d;fill-opacity:1;stroke:#33c9ef;stroke-width:1.38606;stroke-dasharray:none;stroke-opacity:1"
     d="m 28.56815,230.37632 89.964,46.88587"
     id="path168" /><path
     style="opacity:1;fill:#0d274d;fill-opacity:1;stroke:#33c9ef;stroke-width:1.39113;stroke-dasharray:none;stroke-opacity:1"
     d="m 118.70149,277.73185 90.4831,-46.96453"
     id="path169"
     sodipodi:nodetypes="cc" /><path
     style="opacity:1;fill:#0d274d;fill-opacity:1;stroke:#33c9ef;stroke-width:1.37953;stroke-dasharray:none;stroke-opacity:1"
     d="M 118.69852,312.93245 30.724876,267.29819"
     id="path170" /><path
     style="opacity:1;fill:#4d4d4e;fill-opacity:1;stroke:#0d274d;stroke-width:1.37953;stroke-dasharray:none;stroke-opacity:1"
     d="m 30.395387,236.32619 c 29.434378,15.07414 58.868753,30.14827 88.303133,45.22241"
     id="path171"
     inkscape:path-effect="#path-effect171"
     inkscape:original-d="m 30.395387,236.32619 c 29.434377,15.07414 58.868754,30.14827 88.303133,45.22241" /><path
     style="opacity:1;fill:#494949;fill-opacity:1;stroke:#33c9ef;stroke-width:1.58;stroke-dasharray:none;stroke-opacity:1"
     d="M 118.83021,281.61445 C 89.242103,266.43599 59.654003,251.25754 30.065898,236.07908"
     id="path172"
     inkscape:path-effect="#path-effect172"
     inkscape:original-d="M 118.83021,281.61445 C 89.242104,266.43599 59.654002,251.25754 30.065898,236.07908"
     sodipodi:nodetypes="cc" /><ellipse
     style="opacity:1;fill:#0d274d;fill-opacity:1;stroke:#33c9ef;stroke-width:1.588;stroke-dasharray:none;stroke-opacity:1"
     id="path183"
     cx="118.94977"
     cy="314.12988"
     rx="0.38051751"
     ry="0.025367834" /><ellipse
     style="opacity:1;fill:#33c9ef;fill-opacity:1;stroke:#33c9ef;stroke-width:1.588;stroke-dasharray:none;stroke-opacity:1"
     id="path184"
     cx="208.32065"
     cy="267.65601"
     rx="0.25367832"
     ry="0.076103501" /><ellipse
     style="opacity:1;fill:#33c9ef;fill-opacity:1;stroke:#33c9ef;stroke-width:1.588;stroke-dasharray:none;stroke-opacity:1"
     id="path185"
     cx="208.29529"
     cy="267.9097"
     rx="0.2283105"
     ry="0.12683916" /><rect
     style="opacity:1;fill:#33c9ef;fill-opacity:1;stroke:#33c9ef;stroke-width:0.588;stroke-dasharray:none;stroke-opacity:1"
     id="rect186"
     width="0.37878788"
     height="0.37878788"
     x="119.31818"
     y="266.80872" /><rect
     style="opacity:1;fill:#33c9ef;fill-opacity:1;stroke:#33c9ef;stroke-width:0.688;stroke-dasharray:none;stroke-opacity:1"
     id="rect187"
     width="0.52083331"
     height="0.094696969"
     x="119.08144"
     y="267.56628" /><ellipse
     style="opacity:1;fill:#33c9ef;fill-opacity:1;stroke:#33c9ef;stroke-width:0.688;stroke-dasharray:none;stroke-opacity:1"
     id="path187"
     cx="119.17614"
     cy="267.75568"
     rx="0.094696969"
     ry="0.23674242" /><ellipse
     style="opacity:1;fill:#33c9ef;fill-opacity:1;stroke:#33c9ef;stroke-width:0.388;stroke-dasharray:none;stroke-opacity:1"
     id="path205"
     cx="208.07292"
     cy="193.27652"
     rx="0.44981059"
     ry="0.47348484" /><ellipse
     style="opacity:1;fill:#33c9ef;fill-opacity:1;stroke:#33c9ef;stroke-width:0.388;stroke-dasharray:none;stroke-opacity:1"
     id="path206"
     cx="118.8447"
     cy="146.94603"
     rx="0.14204545"
     ry="0.26041666" /><ellipse
     style="opacity:1;fill:#33c9ef;fill-opacity:1;stroke:#33c9ef;stroke-width:0.388;stroke-dasharray:none;stroke-opacity:1"
     id="path207"
     cx="119.01041"
     cy="146.68561"
     rx="0.54450756"
     ry="0.37878788" /><ellipse
     style="opacity:1;fill:#33c9ef;fill-opacity:1;stroke:#33c9ef;stroke-width:0.388;stroke-dasharray:none;stroke-opacity:1"
     id="path208"
     cx="29.048296"
     cy="193.91573"
     rx="0.63920456"
     ry="0.97064394" /><circle
     style="opacity:1;fill:#33c9ef;fill-opacity:1;stroke:#33c9ef;stroke-width:0.388;stroke-dasharray:none;stroke-opacity:1"
     id="path209"
     cx="30.989584"
     cy="248.46118"
     r="0.44981059" /></g><text
   xml:space="preserve"
   id="text177"
   style="font-size:48px;white-space:pre;shape-inside:url(#rect177);shape-padding:0.816327;opacity:1;fill:url(#linearGradient183);stroke:#33c9ef;stroke-width:1.37953;stroke-dasharray:none;stroke-opacity:1"
   x="70.802132"
   y="0"
   transform="translate(-21.632653,36.326531)"><tspan
     x="243.47"
     y="182.15904"
     id="tspan2"><tspan
       style="font-size:42.6667px;font-family:'Arial Rounded MT Bold';-inkscape-font-specification:'Arial Rounded MT Bold, ';text-align:center;text-anchor:middle"
       id="tspan1">Estudo </tspan></tspan><tspan
     x="268.81377"
     y="242.15904"
     id="tspan4"><tspan
       style="font-size:42.6667px;font-family:'Arial Rounded MT Bold';-inkscape-font-specification:'Arial Rounded MT Bold, ';text-align:center;text-anchor:middle"
       id="tspan3">Bom</tspan></tspan></text><ellipse
   style="opacity:1;fill:#33c9ef;fill-opacity:1;stroke:#33c9ef;stroke-width:0.388;stroke-dasharray:none;stroke-opacity:1"
   id="path188"
   cx="119.38921"
   cy="267.77936"
   rx="0.44981059"
   ry="0.11837121" /><ellipse
   style="opacity:1;fill:#33c9ef;fill-opacity:1;stroke:#33c9ef;stroke-width:0.388;stroke-dasharray:none;stroke-opacity:1"
   id="path189"
   cx="119.27084"
   cy="259.04355"
   rx="0.37878788"
   ry="0.14204545" /><ellipse
   style="opacity:1;fill:#33c9ef;fill-opacity:1;stroke:#33c9ef;stroke-width:0.388;stroke-dasharray:none;stroke-opacity:1"
   id="path190"
   cx="119.19981"
   cy="259.42236"
   rx="0.21306819"
   ry="0.14204545" /><ellipse
   style="opacity:1;fill:#33c9ef;fill-opacity:1;stroke:#33c9ef;stroke-width:0.388;stroke-dasharray:none;stroke-opacity:1"
   id="path191"
   cx="119.67329"
   cy="255.39772"
   rx="0.78125"
   ry="0.37878788" /><ellipse
   style="opacity:1;fill:#33c9ef;fill-opacity:1;stroke:#33c9ef;stroke-width:0.388;stroke-dasharray:none;stroke-opacity:1"
   id="path192"
   cx="119.95739"
   cy="254.90057"
   rx="0.35511363"
   ry="0.1657197" /><ellipse
   style="opacity:1;fill:#33c9ef;fill-opacity:1;stroke:#33c9ef;stroke-width:0.388;stroke-dasharray:none;stroke-opacity:1"
   id="path193"
   cx="119.22349"
   cy="255.75284"
   rx="0.33143941"
   ry="0.1657197" /><ellipse
   style="opacity:1;fill:#33c9ef;fill-opacity:1;stroke:#33c9ef;stroke-width:0.388;stroke-dasharray:none;stroke-opacity:1"
   id="path194"
   cx="119.27084"
   cy="252.01231"
   rx="0.42613637"
   ry="0.26041666" /><ellipse
   style="opacity:1;fill:#33c9ef;fill-opacity:1;stroke:#33c9ef;stroke-width:0.388;stroke-dasharray:none;stroke-opacity:1"
   id="path195"
   cx="119.38921"
   cy="271.7803"
   rx="0.26041666"
   ry="0.23674242" /><ellipse
   style="opacity:1;fill:#33c9ef;fill-opacity:1;stroke:#33c9ef;stroke-width:0.388;stroke-dasharray:none;stroke-opacity:1"
   id="path196"
   cx="119.43655"
   cy="272.06439"
   rx="0.686553"
   ry="0.28409091" /><ellipse
   style="opacity:1;fill:#33c9ef;fill-opacity:1;stroke:#33c9ef;stroke-width:0.388;stroke-dasharray:none;stroke-opacity:1"
   id="path197"
   cx="31.202652"
   cy="264.53598"
   rx="0.52083331"
   ry="0.42613637" /><ellipse
   style="opacity:1;fill:#33c9ef;fill-opacity:1;stroke:#33c9ef;stroke-width:0.388;stroke-dasharray:none;stroke-opacity:1"
   id="path198"
   cx="30.279356"
   cy="268.41855"
   rx="0.44981059"
   ry="0.28409091" /><ellipse
   style="opacity:1;fill:#33c9ef;fill-opacity:1;stroke:#33c9ef;stroke-width:0.388;stroke-dasharray:none;stroke-opacity:1"
   id="path199"
   cx="207.97823"
   cy="267.92139"
   rx="0.875947"
   ry="0.54450756" /><ellipse
   style="opacity:1;fill:#33c9ef;fill-opacity:1;stroke:#33c9ef;stroke-width:0.388;stroke-dasharray:none;stroke-opacity:1"
   id="path200"
   cx="119.12878"
   cy="313.9678"
   rx="0.33143941"
   ry="0.14204545" /><ellipse
   style="opacity:1;fill:#33c9ef;fill-opacity:1;stroke:#33c9ef;stroke-width:0.388;stroke-dasharray:none;stroke-opacity:1"
   id="path201"
   cx="118.6553"
   cy="314.08618"
   rx="0.42613637"
   ry="0.26041666" /><ellipse
   style="opacity:1;fill:#33c9ef;fill-opacity:1;stroke:#33c9ef;stroke-width:0.388;stroke-dasharray:none;stroke-opacity:1"
   id="path202"
   cx="119.03409"
   cy="252.41478"
   rx="0.23674242"
   ry="0.33143941" /><ellipse
   style="opacity:1;fill:#33c9ef;fill-opacity:1;stroke:#33c9ef;stroke-width:0.388;stroke-dasharray:none;stroke-opacity:1"
   id="path203"
   cx="208.14394"
   cy="193.34753"
   rx="0.42613637"
   ry="0.071022727" /><ellipse
   style="opacity:1;fill:#33c9ef;fill-opacity:1;stroke:#33c9ef;stroke-width:0.388;stroke-dasharray:none;stroke-opacity:1"
   id="path204"
   cx="208.04924"
   cy="193.67897"
   rx="0.61553031"
   ry="0.21306819" /></svg>
