<?xml version="1.0" encoding="UTF-8" standalone="no"?>
<svg
   version="1.1"
   width="105.38301"
   height="26.520121"
   viewBox="0 0 105.38301 26.520122"
   xml:space="preserve"
   id="svg34"
   sodipodi:docname="logoescura.svg"
   inkscape:version="1.1.2 (0a00cf5339, 2022-02-04)"
   xmlns:inkscape="http://www.inkscape.org/namespaces/inkscape"
   xmlns:sodipodi="http://sodipodi.sourceforge.net/DTD/sodipodi-0.dtd"
   xmlns="http://www.w3.org/2000/svg"
   xmlns:svg="http://www.w3.org/2000/svg"><sodipodi:namedview
   id="namedview34"
   pagecolor="#2c2c32"
   bordercolor="#000000"
   borderopacity="0.25"
   inkscape:showpageshadow="2"
   inkscape:pageopacity="0"
   inkscape:pagecheckerboard="0"
   inkscape:deskcolor="#d1d1d1"
   showgrid="false"
   inkscape:zoom="4"
   inkscape:cx="116.625"
   inkscape:cy="24"
   inkscape:window-width="1440"
   inkscape:window-height="827"
   inkscape:window-x="0"
   inkscape:window-y="0"
   inkscape:window-maximized="1"
   inkscape:current-layer="text42"
   showguides="false"
   inkscape:pageshadow="2"
   inkscape:lockguides="false"
   width="128.38301px"><inkscape:page
     x="0"
     y="0"
     width="128.38301"
     height="110.52012"
     id="page1"
     margin="0"
     bleed="0" /><sodipodi:guide
     position="45.347333,63.086786"
     orientation="0,-1"
     id="guide50"
     inkscape:locked="false" /><sodipodi:guide
     position="42.468416,51.840936"
     orientation="0,-1"
     id="guide51"
     inkscape:locked="false" /></sodipodi:namedview>
<desc
   id="desc1">Created with Fabric.js 5.3.0</desc>
<defs
   id="defs1"><rect
   x="47.093075"
   y="56.329002"
   width="64.752975"
   height="16.340485"
   id="rect1" /><linearGradient
   id="swatch182"
   inkscape:swatch="solid"><stop
     style="stop-color:#0d274d;stop-opacity:1;"
     offset="0"
     id="stop183" /></linearGradient><rect
   x="238.36736"
   y="137.55103"
   width="155.10204"
   height="171.02042"
   id="rect177" /><inkscape:path-effect
   effect="bspline"
   id="path-effect172"
   is_visible="true"
   lpeversion="1.3"
   weight="33.333333"
   steps="2"
   helper_size="0"
   apply_no_weight="true"
   apply_with_weight="true"
   only_selected="false"
   uniform="false" /><inkscape:path-effect
   effect="bspline"
   id="path-effect171"
   is_visible="true"
   lpeversion="1.3"
   weight="33.333333"
   steps="2"
   helper_size="0"
   apply_no_weight="true"
   apply_with_weight="true"
   only_selected="false"
   uniform="false" />


</defs>


































<g
   inkscape:groupmode="layer"
   id="layer1"
   inkscape:label="Layer 1"
   style="display:inline"
   transform="translate(80.383007)" /><g
   aria-label="EstudoBom"
   transform="scale(1.0047454,0.99527701)"
   id="text42"
   style="font-size:15.8788px;fill:#005ba4;stroke:#000000;stroke-width:0.132324"><path
     d="m 31.131378,8.6618432 h 8.0557 v 2.2562158 h -5.070672 v 2.155424 h 4.768292 v 2.256216 h -4.768292 v 2.651635 h 5.241245 v 2.256217 h -8.226273 z"
     style="font-weight:bold;font-family:Raleway;-inkscape-font-specification:'Raleway Bold';stroke-linecap:round;stroke-linejoin:round;paint-order:markers fill stroke"
     id="path53396" /><path
     d="m 45.932433,14.629351 v 1.405927 q -0.594418,-0.248105 -1.147485,-0.372158 -0.553066,-0.124052 -1.044107,-0.124052 -0.527222,0 -0.785665,0.13439 -0.253273,0.129221 -0.253273,0.40317 0,0.222261 0.191247,0.341144 0.196416,0.118884 0.697795,0.175741 l 0.325637,0.04652 q 1.421433,0.180909 1.912474,0.594417 0.49104,0.413508 0.49104,1.297381 0,0.925224 -0.682288,1.39042 -0.682288,0.465196 -2.036526,0.465196 -0.573742,0 -1.188835,-0.09304 -0.609924,-0.08787 -1.25603,-0.26878 v -1.405927 q 0.553067,0.26878 1.131978,0.403171 0.58408,0.13439 1.183666,0.13439 0.542729,0 0.816678,-0.149897 0.273949,-0.149897 0.273949,-0.444521 0,-0.248105 -0.191247,-0.366988 -0.186079,-0.124052 -0.749483,-0.191247 l -0.325638,-0.04135 q -1.235354,-0.155066 -1.731564,-0.573742 -0.496209,-0.418677 -0.496209,-1.271537 0,-0.920055 0.630599,-1.364576 0.6306,-0.444521 1.933149,-0.444521 0.511716,0 1.075121,0.07753 0.563404,0.07753 1.225017,0.242936 z"
     style="font-weight:bold;font-size:10.5858px;font-family:Raleway;-inkscape-font-specification:'Raleway Bold';stroke-linecap:round;stroke-linejoin:round;paint-order:markers fill stroke"
     id="path53398" /><path
     d="m 49.731535,12.804748 v 1.643693 h 1.907305 v 1.323225 h -1.907305 v 2.455203 q 0,0.40317 0.160235,0.547898 0.160234,0.139559 0.635768,0.139559 h 0.951068 v 1.323225 H 49.89177 q -1.095796,0 -1.555824,-0.454859 -0.454858,-0.460027 -0.454858,-1.555823 v -2.455203 h -0.920055 v -1.323225 h 0.920055 v -1.643693 z"
     style="font-weight:bold;font-size:10.5858px;font-family:Raleway;-inkscape-font-specification:'Raleway Bold';stroke-linecap:round;stroke-linejoin:round;paint-order:markers fill stroke"
     id="path53400" /><path
     d="m 52.708792,17.983933 v -3.535492 h 1.860786 v 0.578911 q 0,0.470365 -0.0052,1.183666 -0.0052,0.708132 -0.0052,0.945899 0,0.697795 0.03618,1.007926 0.03618,0.304962 0.124052,0.444521 0.113715,0.180909 0.294625,0.279117 0.186078,0.09821 0.423845,0.09821 0.578911,0 0.909717,-0.444521 0.330807,-0.444521 0.330807,-1.235355 v -2.858373 h 1.850447 v 5.78911 h -1.850447 v -0.837354 q -0.418677,0.506547 -0.889042,0.749483 -0.465197,0.237767 -1.028601,0.237767 -1.002756,0 -1.529979,-0.615093 -0.522054,-0.615092 -0.522054,-1.788421 z"
     style="font-weight:bold;font-size:10.5858px;font-family:Raleway;-inkscape-font-specification:'Raleway Bold';stroke-linecap:round;stroke-linejoin:round;paint-order:markers fill stroke"
     id="path53402" /><path
     d="m 64.245659,15.296132 v -3.101308 h 1.860785 v 8.042727 h -1.860785 v -0.837354 q -0.382495,0.511716 -0.842522,0.749483 -0.460027,0.237767 -1.064783,0.237767 -1.069951,0 -1.757408,-0.847691 -0.687457,-0.85286 -0.687457,-2.191591 0,-1.338732 0.687457,-2.186423 0.687457,-0.85286 1.757408,-0.85286 0.599587,0 1.059614,0.242936 0.465196,0.237767 0.847691,0.744314 z m -1.219848,3.747415 q 0.594418,0 0.904548,-0.434183 0.3153,-0.434184 0.3153,-1.261199 0,-0.827016 -0.3153,-1.261199 -0.31013,-0.434183 -0.904548,-0.434183 -0.589249,0 -0.904548,0.434183 -0.310131,0.434183 -0.310131,1.261199 0,0.827015 0.310131,1.261199 0.315299,0.434183 0.904548,0.434183 z"
     style="font-weight:bold;font-size:10.5858px;font-family:Raleway;-inkscape-font-specification:'Raleway Bold';stroke-linecap:round;stroke-linejoin:round;paint-order:markers fill stroke"
     id="path53404" /><path
     d="m 70.639523,15.632107 q -0.615093,0 -0.94073,0.444521 -0.320469,0.439352 -0.320469,1.271537 0,0.832184 0.320469,1.276705 0.325637,0.439352 0.94073,0.439352 0.604755,0 0.925224,-0.439352 0.320468,-0.444521 0.320468,-1.276705 0,-0.832185 -0.320468,-1.271537 -0.320469,-0.444521 -0.925224,-0.444521 z m 0,-1.323225 q 1.493797,0 2.33115,0.806341 0.842522,0.80634 0.842522,2.232942 0,1.426602 -0.842522,2.232942 -0.837353,0.80634 -2.33115,0.80634 -1.498966,0 -2.346657,-0.80634 -0.842522,-0.80634 -0.842522,-2.232942 0,-1.426602 0.842522,-2.232942 0.847691,-0.806341 2.346657,-0.806341 z"
     style="font-weight:bold;font-size:10.5858px;font-family:Raleway;-inkscape-font-specification:'Raleway Bold';stroke-linecap:round;stroke-linejoin:round;paint-order:markers fill stroke"
     id="path53406" /><path
     d="m 80.362167,13.143262 q 0.705552,0 1.069958,-0.310132 0.364406,-0.310133 0.364406,-0.914892 0,-0.597006 -0.364406,-0.907139 -0.364406,-0.317886 -1.069958,-0.317886 H 78.71071 v 2.450049 z m 0.100793,5.062919 q 0.899385,0 1.349078,-0.379913 0.457446,-0.379913 0.457446,-1.147491 0,-0.752072 -0.449693,-1.124232 -0.449693,-0.379913 -1.356831,-0.379913 h -1.75225 v 3.031549 z m 2.775689,-4.163533 q 0.961411,0.279119 1.488637,1.031191 0.527226,0.752072 0.527226,1.845291 0,1.674717 -1.131985,2.496569 -1.131985,0.821852 -3.442474,0.821852 H 75.725681 V 8.6618432 H 80.2071 q 2.411283,0 3.488995,0.7288122 1.085464,0.7288116 1.085464,2.3337496 0,0.845112 -0.395419,1.442117 -0.395419,0.589253 -1.147491,0.876126 z"
     style="font-weight:bold;font-family:Raleway;-inkscape-font-specification:'Raleway Bold'"
     id="path53408" /><path
     d="m 90.015027,15.632107 q -0.615093,0 -0.940731,0.444521 -0.320468,0.439352 -0.320468,1.271537 0,0.832184 0.320468,1.276705 0.325638,0.439352 0.940731,0.439352 0.604755,0 0.925223,-0.439352 0.320469,-0.444521 0.320469,-1.276705 0,-0.832185 -0.320469,-1.271537 -0.320468,-0.444521 -0.925223,-0.444521 z m 0,-1.323225 q 1.493796,0 2.33115,0.806341 0.842522,0.80634 0.842522,2.232942 0,1.426602 -0.842522,2.232942 -0.837354,0.80634 -2.33115,0.80634 -1.498966,0 -2.346657,-0.80634 -0.842523,-0.80634 -0.842523,-2.232942 0,-1.426602 0.842523,-2.232942 0.847691,-0.806341 2.346657,-0.806341 z"
     style="font-weight:bold;font-size:10.5858px;font-family:Raleway;-inkscape-font-specification:'Raleway Bold';stroke-linecap:round;stroke-linejoin:round;paint-order:markers fill stroke"
     id="path53410" /><path
     d="m 99.897862,15.409847 q 0.351478,-0.53756 0.832188,-0.816678 0.48587,-0.284287 1.06478,-0.284287 0.99759,0 1.51964,0.615093 0.52205,0.615093 0.52205,1.788422 v 3.525154 h -1.86078 v -3.018607 q 0.005,-0.0672 0.005,-0.139559 0.005,-0.07236 0.005,-0.206754 0,-0.615093 -0.18091,-0.889042 -0.18091,-0.279118 -0.58408,-0.279118 -0.52723,0 -0.81668,0.434183 -0.28429,0.434184 -0.29462,1.25603 v 2.842867 H 98.249 v -3.018607 q 0,-0.961406 -0.165403,-1.235355 -0.165403,-0.279118 -0.589249,-0.279118 -0.532391,0 -0.821847,0.439352 -0.289455,0.434184 -0.289455,1.245693 v 2.848035 h -1.860785 v -5.78911 h 1.860785 v 0.847691 q 0.341144,-0.49104 0.780496,-0.739145 0.444521,-0.248105 0.976912,-0.248105 0.599586,0 1.059614,0.289456 0.460027,0.289455 0.697794,0.811509 z"
     style="font-weight:bold;font-size:10.5858px;font-family:Raleway;-inkscape-font-specification:'Raleway Bold';stroke-linecap:round;stroke-linejoin:round;paint-order:markers fill stroke"
     id="path53412" /></g><g
   id="g33257"
   style="stroke:#ffffff;stroke-opacity:1"
   transform="translate(-3.125593,-81.583601)"><path
     style="fill:none;stroke:#ffffff;stroke-width:0.1;stroke-linecap:butt;stroke-linejoin:round;stroke-miterlimit:4;stroke-dasharray:none;stroke-opacity:1"
     d="m 17.741109,96.881543 13.809741,-5.624095 0.03703,0.514928 -13.899316,5.69105 0.01435,0.458536 13.803146,-5.532097 -0.0532,0.564303 -13.835528,5.60409 -0.05695,0.551623 13.934137,-5.707887 -0.113055,0.656218 -13.899312,5.691052 -0.02178,0.589996 13.944245,-5.715194 -0.144133,0.73137 -13.851839,5.616294"
     id="path32318" /><path
     style="fill:none;stroke:#ffffff;stroke-width:0.1;stroke-linecap:butt;stroke-linejoin:round;stroke-miterlimit:4;stroke-dasharray:none;stroke-opacity:1"
     d="m 4.635549,94.477093 12.597814,7.957007 -0.05437,0.59401 -12.5851679,-7.990336 -0.06235,0.632412 12.5757379,7.993184 -0.0032,0.62385 -12.5542901,-7.985904 -0.058461,0.64253 12.4711671,7.931624 -0.03702,0.56268 -12.5757338,-7.993191 -0.034174,0.616942 12.5757378,7.993189 -0.06981,0.55711 -12.5378582,-7.969771"
     id="path31257" /></g><path
   style="fill:none;stroke:#000000;stroke-width:0.3;stroke-linecap:butt;stroke-linejoin:round;stroke-miterlimit:4;stroke-dasharray:none;stroke-opacity:1"
   d="m 1.563204,12.166498 -0.509215,5.434761 12.608367,8.09822 0.459596,-5.50306 z"
   id="path30209" /><path
   style="fill:none;stroke:#000000;stroke-width:0.3;stroke-linecap:butt;stroke-linejoin:round;stroke-miterlimit:4;stroke-dasharray:none;stroke-opacity:1"
   d="M 14.645686,14.725819 28.542341,8.944973 28.112956,14.533781 14.200237,20.072519 Z"
   id="path29929" /><path
   style="fill:#005ba4;fill-opacity:1;stroke:#000000;stroke-width:0.3;stroke-linecap:butt;stroke-linejoin:round;stroke-miterlimit:4;stroke-dasharray:none;stroke-opacity:1"
   d="M 1.894691,6.520728 14.645686,14.725819 28.542341,8.944973 15.953401,0.721688 Z"
   id="path28935"
   sodipodi:nodetypes="ccccc" /><g
   id="g44447"
   style="fill:#006ba4;fill-opacity:1"
   transform="translate(-14.133438,-38.549218)"><path
     style="fill:#006ba4;fill-opacity:1;stroke:#000000;stroke-width:0.3;stroke-linecap:butt;stroke-linejoin:bevel;stroke-miterlimit:4;stroke-dasharray:none;stroke-opacity:1"
     d="m 16.028129,45.069946 c -0.421488,1.557079 -1.040863,2.565861 -0.331487,5.64577 l 12.588345,7.880321 0.490489,-5.33543 z"
     id="path29602"
     sodipodi:nodetypes="ccccc" /><path
     style="fill:#006ba4;fill-opacity:1;stroke:#000000;stroke-width:0.3;stroke-linecap:butt;stroke-linejoin:bevel;stroke-miterlimit:4;stroke-dasharray:none;stroke-opacity:1"
     d="m 27.795794,64.248697 14.032248,-5.69902 c 0.858093,-2.158119 0.873796,-3.922506 0.418352,-5.466678 l -13.98964,5.738328 z"
     id="path30470"
     sodipodi:nodetypes="ccccc" /></g></svg>
