<?xml version="1.0" encoding="UTF-8" standalone="no"?>
<svg
   version="1.1"
   width="105.38301"
   height="26.520121"
   viewBox="0 0 105.38301 26.520122"
   xml:space="preserve"
   id="svg34"
   sodipodi:docname="logoclara.svg"
   inkscape:version="1.1.2 (0a00cf5339, 2022-02-04)"
   xmlns:inkscape="http://www.inkscape.org/namespaces/inkscape"
   xmlns:sodipodi="http://sodipodi.sourceforge.net/DTD/sodipodi-0.dtd"
   xmlns="http://www.w3.org/2000/svg"
   xmlns:svg="http://www.w3.org/2000/svg"><sodipodi:namedview
   id="namedview34"
   pagecolor="#ffffff"
   bordercolor="#000000"
   borderopacity="0.25"
   inkscape:showpageshadow="2"
   inkscape:pageopacity="0"
   inkscape:pagecheckerboard="0"
   inkscape:deskcolor="#d1d1d1"
   showgrid="false"
   inkscape:zoom="4"
   inkscape:cx="34.75"
   inkscape:cy="34.5"
   inkscape:window-width="1440"
   inkscape:window-height="827"
   inkscape:window-x="0"
   inkscape:window-y="0"
   inkscape:window-maximized="1"
   inkscape:current-layer="text42"
   showguides="true"
   inkscape:pageshadow="2"
   inkscape:lockguides="false"><inkscape:page
     x="0"
     y="0"
     width="128.38301"
     height="110.52012"
     id="page1"
     margin="0"
     bleed="0" /></sodipodi:namedview>
<desc
   id="desc1">Created with Fabric.js 5.3.0</desc>
<defs
   id="defs1"><rect
   x="47.093075"
   y="56.329002"
   width="64.752975"
   height="16.340485"
   id="rect1" /><linearGradient
   id="swatch182"
   inkscape:swatch="solid"><stop
     style="stop-color:#0d274d;stop-opacity:1;"
     offset="0"
     id="stop183" /></linearGradient><rect
   x="238.36736"
   y="137.55103"
   width="155.10204"
   height="171.02042"
   id="rect177" /><inkscape:path-effect
   effect="bspline"
   id="path-effect172"
   is_visible="true"
   lpeversion="1.3"
   weight="33.333333"
   steps="2"
   helper_size="0"
   apply_no_weight="true"
   apply_with_weight="true"
   only_selected="false"
   uniform="false" /><inkscape:path-effect
   effect="bspline"
   id="path-effect171"
   is_visible="true"
   lpeversion="1.3"
   weight="33.333333"
   steps="2"
   helper_size="0"
   apply_no_weight="true"
   apply_with_weight="true"
   only_selected="false"
   uniform="false" />


</defs>


































<g
   inkscape:groupmode="layer"
   id="layer1"
   inkscape:label="Layer 1"
   style="display:inline"
   transform="translate(80.383007)" /><g
   aria-label="EstudoBom"
   transform="scale(1.0047454,0.99527701)"
   id="text42"
   style="font-size:15.8788px;fill:#005ba4;stroke:#000000;stroke-width:0.132324"><path
     d="m 30.721258,8.6541528 h 8.0557 v 2.2562162 h -5.070672 v 2.155423 h 4.768292 v 2.256216 h -4.768292 v 2.651636 h 5.241245 v 2.256216 h -8.226273 z"
     style="font-weight:bold;font-family:Raleway;-inkscape-font-specification:'Raleway Bold';stroke-linecap:round;stroke-linejoin:round;paint-order:markers fill stroke"
     id="path51220" /><path
     d="m 45.522313,14.621661 v 1.405926 q -0.594418,-0.248105 -1.147485,-0.372157 -0.553066,-0.124052 -1.044107,-0.124052 -0.527222,0 -0.785665,0.13439 -0.253273,0.129221 -0.253273,0.40317 0,0.22226 0.191247,0.341144 0.196416,0.118883 0.697795,0.175741 l 0.325637,0.04652 q 1.421433,0.18091 1.912474,0.594418 0.49104,0.413508 0.49104,1.297381 0,0.925223 -0.682288,1.39042 -0.682288,0.465196 -2.036526,0.465196 -0.573742,0 -1.188835,-0.09304 -0.609924,-0.08787 -1.25603,-0.26878 v -1.405927 q 0.553067,0.26878 1.131978,0.40317 0.58408,0.13439 1.183666,0.13439 0.542729,0 0.816678,-0.149896 0.273949,-0.149897 0.273949,-0.444521 0,-0.248105 -0.191247,-0.366989 -0.186079,-0.124052 -0.749483,-0.191247 L 42.8862,17.955567 q -1.235354,-0.155065 -1.731564,-0.573742 -0.496209,-0.418676 -0.496209,-1.271536 0,-0.920055 0.630599,-1.364576 0.6306,-0.444521 1.933149,-0.444521 0.511716,0 1.075121,0.07753 0.563404,0.07753 1.225017,0.242936 z"
     style="font-weight:bold;font-size:10.5858px;font-family:Raleway;-inkscape-font-specification:'Raleway Bold';stroke-linecap:round;stroke-linejoin:round;paint-order:markers fill stroke"
     id="path51222" /><path
     d="m 49.321415,12.797057 v 1.643694 h 1.907305 v 1.323225 h -1.907305 v 2.455203 q 0,0.40317 0.160235,0.547897 0.160234,0.139559 0.635768,0.139559 h 0.951068 V 20.22986 H 49.48165 q -1.095796,0 -1.555824,-0.454858 -0.454858,-0.460028 -0.454858,-1.555823 v -2.455203 h -0.920055 v -1.323225 h 0.920055 v -1.643694 z"
     style="font-weight:bold;font-size:10.5858px;font-family:Raleway;-inkscape-font-specification:'Raleway Bold';stroke-linecap:round;stroke-linejoin:round;paint-order:markers fill stroke"
     id="path51224" /><path
     d="m 52.298672,17.976243 v -3.535492 h 1.860786 v 0.578911 q 0,0.470365 -0.0052,1.183666 -0.0052,0.708132 -0.0052,0.945899 0,0.697794 0.03618,1.007925 0.03618,0.304962 0.124052,0.444521 0.113715,0.18091 0.294625,0.279118 0.186078,0.09821 0.423845,0.09821 0.578911,0 0.909717,-0.444521 0.330807,-0.444521 0.330807,-1.235354 v -2.858373 h 1.850447 v 5.789109 h -1.850447 v -0.837353 q -0.418677,0.506547 -0.889042,0.749483 -0.465197,0.237767 -1.028601,0.237767 -1.002756,0 -1.529979,-0.615093 -0.522054,-0.615093 -0.522054,-1.788421 z"
     style="font-weight:bold;font-size:10.5858px;font-family:Raleway;-inkscape-font-specification:'Raleway Bold';stroke-linecap:round;stroke-linejoin:round;paint-order:markers fill stroke"
     id="path51226" /><path
     d="m 63.835539,15.288442 v -3.101309 h 1.860785 v 8.042727 h -1.860785 v -0.837353 q -0.382495,0.511716 -0.842522,0.749483 -0.460027,0.237767 -1.064783,0.237767 -1.069951,0 -1.757408,-0.847691 -0.687457,-0.85286 -0.687457,-2.191592 0,-1.338731 0.687457,-2.186422 0.687457,-0.85286 1.757408,-0.85286 0.599587,0 1.059614,0.242936 0.465196,0.237767 0.847691,0.744314 z m -1.219848,3.747414 q 0.594418,0 0.904548,-0.434183 0.3153,-0.434183 0.3153,-1.261199 0,-0.827015 -0.3153,-1.261198 -0.31013,-0.434184 -0.904548,-0.434184 -0.589249,0 -0.904548,0.434184 -0.310131,0.434183 -0.310131,1.261198 0,0.827016 0.310131,1.261199 0.315299,0.434183 0.904548,0.434183 z"
     style="font-weight:bold;font-size:10.5858px;font-family:Raleway;-inkscape-font-specification:'Raleway Bold';stroke-linecap:round;stroke-linejoin:round;paint-order:markers fill stroke"
     id="path51228" /><path
     d="m 70.229403,15.624417 q -0.615093,0 -0.94073,0.444521 -0.320469,0.439352 -0.320469,1.271536 0,0.832185 0.320469,1.276706 0.325637,0.439352 0.94073,0.439352 0.604755,0 0.925224,-0.439352 0.320468,-0.444521 0.320468,-1.276706 0,-0.832184 -0.320468,-1.271536 -0.320469,-0.444521 -0.925224,-0.444521 z m 0,-1.323225 q 1.493797,0 2.33115,0.80634 0.842522,0.80634 0.842522,2.232942 0,1.426602 -0.842522,2.232943 -0.837353,0.80634 -2.33115,0.80634 -1.498966,0 -2.346657,-0.80634 -0.842522,-0.806341 -0.842522,-2.232943 0,-1.426602 0.842522,-2.232942 0.847691,-0.80634 2.346657,-0.80634 z"
     style="font-weight:bold;font-size:10.5858px;font-family:Raleway;-inkscape-font-specification:'Raleway Bold';stroke-linecap:round;stroke-linejoin:round;paint-order:markers fill stroke"
     id="path51230" /><path
     d="m 79.952047,13.135572 q 0.705552,0 1.069958,-0.310133 0.364406,-0.310133 0.364406,-0.914892 0,-0.597005 -0.364406,-0.907138 -0.364406,-0.317886 -1.069958,-0.317886 H 78.30059 v 2.450049 z m 0.100793,5.062918 q 0.899385,0 1.349078,-0.379912 0.457446,-0.379913 0.457446,-1.147492 0,-0.752072 -0.449693,-1.124231 -0.449693,-0.379913 -1.356831,-0.379913 h -1.75225 v 3.031548 z m 2.775689,-4.163533 q 0.961411,0.27912 1.488637,1.031192 0.527226,0.752072 0.527226,1.84529 0,1.674717 -1.131985,2.496569 -1.131985,0.821852 -3.442474,0.821852 H 75.315561 V 8.6541528 h 4.481419 q 2.411283,0 3.488995,0.7288121 1.085464,0.7288121 1.085464,2.3337491 0,0.845112 -0.395419,1.442118 -0.395419,0.589252 -1.147491,0.876125 z"
     style="font-weight:bold;font-family:Raleway;-inkscape-font-specification:'Raleway Bold'"
     id="path51232" /><path
     d="m 89.604906,15.624417 q -0.615092,0 -0.94073,0.444521 -0.320468,0.439352 -0.320468,1.271536 0,0.832185 0.320468,1.276706 0.325638,0.439352 0.94073,0.439352 0.604756,0 0.925224,-0.439352 0.320469,-0.444521 0.320469,-1.276706 0,-0.832184 -0.320469,-1.271536 -0.320468,-0.444521 -0.925224,-0.444521 z m 0,-1.323225 q 1.493797,0 2.331151,0.80634 0.842522,0.80634 0.842522,2.232942 0,1.426602 -0.842522,2.232943 -0.837354,0.80634 -2.331151,0.80634 -1.498965,0 -2.346656,-0.80634 -0.842523,-0.806341 -0.842523,-2.232943 0,-1.426602 0.842523,-2.232942 0.847691,-0.80634 2.346656,-0.80634 z"
     style="font-weight:bold;font-size:10.5858px;font-family:Raleway;-inkscape-font-specification:'Raleway Bold';stroke-linecap:round;stroke-linejoin:round;paint-order:markers fill stroke"
     id="path51234" /><path
     d="m 99.487742,15.402157 q 0.351482,-0.537561 0.832188,-0.816678 0.48587,-0.284287 1.06478,-0.284287 0.99759,0 1.51964,0.615093 0.52205,0.615093 0.52205,1.788421 v 3.525154 h -1.86078 v -3.018607 q 0.005,-0.06719 0.005,-0.139559 0.005,-0.07236 0.005,-0.206754 0,-0.615092 -0.18091,-0.889041 -0.18091,-0.279118 -0.58408,-0.279118 -0.52723,0 -0.816681,0.434183 -0.284286,0.434183 -0.294624,1.25603 V 20.22986 H 97.83888 v -3.018607 q 0,-0.961405 -0.165403,-1.235354 -0.165403,-0.279118 -0.589249,-0.279118 -0.532391,0 -0.821847,0.439352 -0.289455,0.434183 -0.289455,1.245692 v 2.848035 h -1.860785 v -5.789109 h 1.860785 v 0.847691 q 0.341144,-0.491041 0.780496,-0.739145 0.444521,-0.248105 0.976912,-0.248105 0.599586,0 1.059614,0.289455 0.460027,0.289456 0.697794,0.81151 z"
     style="font-weight:bold;font-size:10.5858px;font-family:Raleway;-inkscape-font-specification:'Raleway Bold';stroke-linecap:round;stroke-linejoin:round;paint-order:markers fill stroke"
     id="path51236" /></g><g
   id="g33257"
   style="stroke:#000000;stroke-opacity:1"
   transform="translate(-3.537659,-81.591254)"><path
     style="fill:none;stroke:#000000;stroke-width:0.1;stroke-linecap:butt;stroke-linejoin:round;stroke-miterlimit:4;stroke-dasharray:none;stroke-opacity:1"
     d="m 17.741109,96.881543 13.809741,-5.624095 0.03703,0.514928 -13.899316,5.69105 0.01435,0.458536 13.803146,-5.532097 -0.0532,0.564303 -13.835528,5.60409 -0.05695,0.551623 13.934137,-5.707887 -0.113055,0.656218 -13.899312,5.691052 -0.02178,0.589996 13.944245,-5.715194 -0.144133,0.73137 -13.851839,5.616294"
     id="path32318" /><path
     style="fill:none;stroke:#000000;stroke-width:0.1;stroke-linecap:butt;stroke-linejoin:round;stroke-miterlimit:4;stroke-dasharray:none;stroke-opacity:1"
     d="m 4.635549,94.477093 12.597814,7.957007 -0.05437,0.59401 -12.5851679,-7.990336 -0.06235,0.632412 12.5757379,7.993184 -0.0032,0.62385 -12.5542901,-7.985904 -0.058461,0.64253 12.4711671,7.931624 -0.03702,0.56268 -12.5757338,-7.993191 -0.034174,0.616942 12.5757378,7.993189 -0.06981,0.55711 -12.5378582,-7.969771"
     id="path31257" /></g><path
   style="fill:none;stroke:#000000;stroke-width:0.3;stroke-linecap:butt;stroke-linejoin:round;stroke-miterlimit:4;stroke-dasharray:none;stroke-opacity:1"
   d="m 1.151138,12.158845 -0.509215,5.434761 12.608367,8.09822 0.459596,-5.50306 z"
   id="path30209" /><path
   style="fill:none;stroke:#000000;stroke-width:0.3;stroke-linecap:butt;stroke-linejoin:round;stroke-miterlimit:4;stroke-dasharray:none;stroke-opacity:1"
   d="M 14.23362,14.718166 28.130275,8.93732 27.70089,14.526128 13.788171,20.064866 Z"
   id="path29929" /><path
   style="fill:#005ba4;fill-opacity:1;stroke:#000000;stroke-width:0.3;stroke-linecap:butt;stroke-linejoin:round;stroke-miterlimit:4;stroke-dasharray:none;stroke-opacity:1"
   d="M 1.482625,6.513075 14.23362,14.718166 28.130275,8.93732 15.541335,0.714035 Z"
   id="path28935"
   sodipodi:nodetypes="ccccc" /><g
   id="g40519"
   style="fill:#006ba4;fill-opacity:1"
   transform="translate(-14.545504,-38.556871)"><path
     style="fill:#006ba4;fill-opacity:1;stroke:#000000;stroke-width:0.3;stroke-linecap:butt;stroke-linejoin:bevel;stroke-miterlimit:4;stroke-dasharray:none;stroke-opacity:1"
     d="m 16.028129,45.069946 c -0.421488,1.557079 -1.040863,2.565861 -0.331487,5.64577 l 12.588345,7.880321 0.490489,-5.33543 z"
     id="path29602"
     sodipodi:nodetypes="ccccc" /><path
     style="fill:#006ba4;fill-opacity:1;stroke:#000000;stroke-width:0.3;stroke-linecap:butt;stroke-linejoin:bevel;stroke-miterlimit:4;stroke-dasharray:none;stroke-opacity:1"
     d="m 27.795794,64.248697 14.032248,-5.69902 c 0.858093,-2.158119 0.873796,-3.922506 0.418352,-5.466678 l -13.98964,5.738328 z"
     id="path30470"
     sodipodi:nodetypes="ccccc" /></g></svg>
