<svg width="90" height="75" viewBox="0 0 90 75" fill="none" xmlns="http://www.w3.org/2000/svg">
<rect width="90" height="75" rx="20" fill="#04EA0D"/>
<path d="M26.592 10.8859C31.1565 8.99487 37.3148 7.875 44 7.875C50.6852 7.875 56.8435 8.99487 61.408 10.8859C65.7812 12.6994 69.5 15.5979 69.5 19.5C69.5 23.4021 65.7812 26.3006 61.408 28.1141C56.8435 30.0051 50.6852 31.125 44 31.125C37.3148 31.125 31.1565 30.0051 26.592 28.1141C22.2188 26.3006 18.5 23.4021 18.5 19.5C18.5 15.5979 22.2188 12.6994 26.592 10.8859Z" fill="#F3F3F0"/>
<path d="M18.5 27.8739V31.125C18.5 35.0272 22.2188 37.9256 26.592 39.7392C31.1565 41.6263 37.3148 42.75 44 42.75C50.6852 42.75 56.8435 41.6301 61.408 39.7392C65.7812 37.9256 69.5 35.0272 69.5 31.125V27.8739C67.5578 29.5479 65.233 30.784 63.1675 31.6404C57.9315 33.8104 51.1485 35 44 35C36.8515 35 30.0685 33.8104 24.8325 31.6404C22.767 30.7879 20.4422 29.5479 18.5 27.8739Z" fill="#F3F3F0"/>
<path d="M18.5 39.4989V42.75C18.5 46.6521 22.2188 49.5506 26.592 51.3641C31.1565 53.2551 37.3148 54.375 44 54.375C50.6852 54.375 56.8435 53.2551 61.408 51.3641C65.7812 49.5506 69.5 46.6521 69.5 42.75V39.4989C67.5578 41.1729 65.233 42.409 63.1675 43.2654C57.9315 45.4354 51.1485 46.625 44 46.625C36.8515 46.625 30.0685 45.4354 24.8325 43.2654C22.767 42.4129 20.4422 41.1729 18.5 39.4989Z" fill="#F3F3F0"/>
<path d="M18.5 51.1239V54.375C18.5 58.2771 22.2188 61.1756 26.592 62.9891C31.1565 64.8801 37.3148 66 44 66C50.6852 66 56.8435 64.8801 61.408 62.9891C65.7812 61.1756 69.5 58.2771 69.5 54.375V51.1239C67.5578 52.7979 65.233 54.034 63.1675 54.8904C57.9315 57.0604 51.1485 58.25 44 58.25C36.8515 58.25 30.0685 57.0604 24.8325 54.8904C22.767 54.0379 20.4422 52.7979 18.5 51.1239Z" fill="#F3F3F0"/>
</svg>
