<svg width="107" height="89" viewBox="0 0 107 89" fill="none" xmlns="http://www.w3.org/2000/svg">
<rect x="0.5" y="0.5" width="106" height="88" rx="29.5" fill="#279600" stroke="black"/>
<path d="M21.5419 38.7713V36.8182H35.1782V38.7713H29.4609V55H27.2592V38.7713H21.5419ZM38.5762 55V36.8182H40.7779V53.0469H49.2296V55H38.5762ZM52.6387 55V36.8182H58.9953C60.2618 36.8182 61.3064 37.0372 62.1291 37.4751C62.9518 37.9072 63.5644 38.4902 63.9668 39.2241C64.3693 39.9521 64.5705 40.7599 64.5705 41.6477C64.5705 42.429 64.4314 43.0741 64.1533 43.5831C63.881 44.0921 63.52 44.4946 63.0702 44.7905C62.6263 45.0864 62.1439 45.3054 61.6231 45.4474V45.625C62.1794 45.6605 62.7387 45.8558 63.301 46.2109C63.8633 46.5661 64.3338 47.075 64.7126 47.7379C65.0914 48.4008 65.2808 49.2116 65.2808 50.1705C65.2808 51.0819 65.0736 51.9016 64.6593 52.6296C64.245 53.3576 63.591 53.9347 62.6973 54.3608C61.8036 54.7869 60.6406 55 59.2083 55H52.6387ZM54.8404 53.0469H59.2083C60.6465 53.0469 61.6675 52.7687 62.2712 52.2124C62.8808 51.6501 63.1856 50.9695 63.1856 50.1705C63.1856 49.5549 63.0287 48.9867 62.7151 48.4659C62.4014 47.9392 61.9545 47.5189 61.3745 47.2053C60.7945 46.8857 60.1079 46.7259 59.3149 46.7259H54.8404V53.0469ZM54.8404 44.8082H58.9242C59.5871 44.8082 60.1849 44.678 60.7176 44.4176C61.2561 44.1572 61.6823 43.7902 61.996 43.3168C62.3156 42.8433 62.4754 42.2869 62.4754 41.6477C62.4754 40.8487 62.1972 40.171 61.6408 39.6147C61.0845 39.0524 60.2026 38.7713 58.9953 38.7713H54.8404V44.8082ZM74.5093 55H68.8985V36.8182H74.7579C76.5216 36.8182 78.0308 37.1822 79.2856 37.9102C80.5403 38.6322 81.5021 39.6709 82.1709 41.0263C82.8397 42.3757 83.1741 43.9915 83.1741 45.8736C83.1741 47.7675 82.8367 49.3981 82.162 50.7653C81.4873 52.1265 80.5048 53.1741 79.2145 53.908C77.9243 54.636 76.3559 55 74.5093 55ZM71.1002 53.0469H74.3672C75.8705 53.0469 77.1164 52.7569 78.1048 52.1768C79.0932 51.5968 79.8301 50.7712 80.3154 49.6999C80.8007 48.6287 81.0434 47.3532 81.0434 45.8736C81.0434 44.4058 80.8037 43.1422 80.3243 42.0827C79.8449 41.0174 79.1287 40.2006 78.1758 39.6325C77.2229 39.0584 76.0363 38.7713 74.6158 38.7713H71.1002V53.0469Z" fill="white"/>
</svg>
