<?xml version="1.0" encoding="UTF-8" standalone="no" ?>
<!DOCTYPE svg PUBLIC "-//W3C//DTD SVG 1.1//EN" "http://www.w3.org/Graphics/SVG/1.1/DTD/svg11.dtd">
<svg xmlns="http://www.w3.org/2000/svg" xmlns:xlink="http://www.w3.org/1999/xlink" version="1.1" width="500" height="500" viewBox="0 0 500 500" xml:space="preserve">
<desc>Created with Fabric.js 5.3.0</desc>
<defs>
</defs>
<g transform="matrix(1 0 0 1 163.6763980944 236.1442488523)" id="DFiesSH1TR5NouEpXrPM3"  >
<path style="stroke: rgb(0,0,0); stroke-width: 1; stroke-dasharray: none; stroke-linecap: butt; stroke-dashoffset: 0; stroke-linejoin: miter; stroke-miterlimit: 4; fill: rgb(255,255,255); fill-opacity: 0; fill-rule: nonzero; opacity: 1;"  transform=" translate(0, 0)" d="M -44.44677 23.06502 L -32.3531 16.78918 L -4.885659999999998 2.5353400000000015 L 44.44676 -23.065019999999997" stroke-linecap="round" />
</g>
<g transform="matrix(1 0 0 1 164.0333678571 232.3140419856)" id="jSgBi6CalZimBovmDGDw7"  >
<path style="stroke: rgb(0,0,0); stroke-width: 1; stroke-dasharray: none; stroke-linecap: butt; stroke-dashoffset: 0; stroke-linejoin: miter; stroke-miterlimit: 4; fill: rgb(255,255,255); fill-opacity: 0; fill-rule: nonzero; opacity: 1;"  transform=" translate(0, -0.000005)" d="M -44.44677 23.06502 L 44.44677 -23.065009999999997" stroke-linecap="round" />
</g>
<g transform="matrix(1 0 0 1 32.2446447796 230.2658300703)" id="r-6Okv-O1hp8DpQZi3b_l"  >
<path style="stroke: rgb(0,0,0); stroke-width: 1; stroke-dasharray: none; stroke-linecap: butt; stroke-dashoffset: 0; stroke-linejoin: miter; stroke-miterlimit: 4; fill: rgb(255,255,255); fill-opacity: 0; fill-rule: nonzero; opacity: 1;"  transform=" translate(0, 0)" d="M 0 0" stroke-linecap="round" />
</g>
<g transform="matrix(1 0 0 1 26.4357212843 212.5792338523)" id="uaCJ8mr0bC5pKN1NiZUVU"  >
<path style="stroke: rgb(0,0,0); stroke-width: 1; stroke-dasharray: none; stroke-linecap: butt; stroke-dashoffset: 0; stroke-linejoin: miter; stroke-miterlimit: 4; fill: rgb(255,255,255); fill-opacity: 0; fill-rule: nonzero; opacity: 1;"  transform=" translate(0, 0)" d="M 2.47188 18.1866 C 2.47188 18.1866 -8.651589999999999 2.391829999999999 2.47188 -18.186590000000002" stroke-linecap="round" />
</g>
<g transform="matrix(1 0 0 1 210.5523671069 249.072443528)" id="SWWpiDrMbSOxu2oNCilTy"  >
<path style="stroke: rgb(0,0,0); stroke-width: 1; stroke-dasharray: none; stroke-linecap: butt; stroke-dashoffset: 0; stroke-linejoin: miter; stroke-miterlimit: 4; fill: rgb(255,255,255); fill-opacity: 0; fill-rule: nonzero; opacity: 1;"  transform=" translate(0, 0)" d="M -2.00071 -18.30661 C -2.00071 -18.30661 7.002510000000001 1.586359999999999 -2.00071 18.306620000000002" stroke-linecap="round" />
</g>
<g transform="matrix(1 0 0 1 164.1406403302 290.92450137)" id="vnDLO2dCJdVenNViXKh3K"  >
<path style="stroke: rgb(0,0,0); stroke-width: 1; stroke-dasharray: none; stroke-linecap: butt; stroke-dashoffset: 0; stroke-linejoin: miter; stroke-miterlimit: 4; fill: rgb(255,255,255); fill-opacity: 0; fill-rule: nonzero; opacity: 1;"  transform=" translate(0, 0)" d="M 44.41101 -23.04544 L -44.41101 23.045450000000002" stroke-linecap="round" />
</g>
<g transform="matrix(1 0 0 1 73.7471007399 290.92450137)" id="5sf3RVOKoRUQuRNbqwhaR"  >
<path style="stroke: rgb(0,0,0); stroke-width: 1; stroke-dasharray: none; stroke-linecap: butt; stroke-dashoffset: 0; stroke-linejoin: miter; stroke-miterlimit: 4; fill: rgb(255,255,255); fill-opacity: 0; fill-rule: nonzero; opacity: 1;"  transform=" translate(0, 0)" d="M 44.3395 23.04544 L -44.33949 -23.045450000000002" stroke-linecap="round" />
</g>
<g transform="matrix(1 0 0 1 30.2766921644 248.9243743459)" id="ignTwt4mhWOH-51dQI5U1"  >
<path style="stroke: rgb(0,0,0); stroke-width: 1; stroke-dasharray: none; stroke-linecap: butt; stroke-dashoffset: 0; stroke-linejoin: miter; stroke-miterlimit: 4; fill: rgb(255,255,255); fill-opacity: 0; fill-rule: nonzero; opacity: 1;"  transform=" translate(0, 0)" d="M 0 17.65854 L 0 -17.65855" stroke-linecap="round" />
</g>
<g transform="matrix(1 0 0 1 73.7471007399 254.0149316215)" id="EWXc-zGgNuvtSM7K5kKxM"  >
<path style="stroke: rgb(0,0,0); stroke-width: 1; stroke-dasharray: none; stroke-linecap: butt; stroke-dashoffset: 0; stroke-linejoin: miter; stroke-miterlimit: 4; fill: rgb(255,255,255); fill-opacity: 0; fill-rule: nonzero; opacity: 1;"  transform=" translate(0, 0)" d="M -44.8395 -23.2491 L 44.83949 23.2491" stroke-linecap="round" />
</g>
<g transform="matrix(1 0 0 1 163.3191252116 254.5149316215)" id="E7cVgN_5k0Vgol0LO6NDR"  >
<path style="stroke: rgb(0,0,0); stroke-width: 1; stroke-dasharray: none; stroke-linecap: butt; stroke-dashoffset: 0; stroke-linejoin: miter; stroke-miterlimit: 4; fill: rgb(255,255,255); fill-opacity: 0; fill-rule: nonzero; opacity: 1;"  transform=" translate(0, 0)" d="M -44.73253 23.2491 L 44.73252000000001 -23.2491" stroke-linecap="round" />
</g>
<g transform="matrix(1 0 0 1 208.051652566 211.8292338523)" id="lkDSkGzLfMLsA_FUfTxv1"  >
<path style="stroke: rgb(0,0,0); stroke-width: 1; stroke-dasharray: none; stroke-linecap: butt; stroke-dashoffset: 0; stroke-linejoin: miter; stroke-miterlimit: 4; fill: rgb(255,255,255); fill-opacity: 0; fill-rule: nonzero; opacity: 1;"  transform=" translate(0, 0)" d="M 0 17.9366 L 0 -17.936590000000002" stroke-linecap="round" />
</g>
<g transform="matrix(1 0 0 1 163.0691252116 217.0050228989)" id="LU102K2YQ6m2Ebvw1U23S"  >
<path style="stroke: rgb(0,0,0); stroke-width: 1; stroke-dasharray: none; stroke-linecap: butt; stroke-dashoffset: 0; stroke-linejoin: miter; stroke-miterlimit: 4; fill: rgb(255,255,255); fill-opacity: 0; fill-rule: nonzero; opacity: 1;"  transform=" translate(0, 0)" d="M 44.48253 -23.11239 L -44.48252000000001 23.112379999999998" stroke-linecap="round" />
</g>
<g transform="matrix(1 0 0 1 73.8186158586 217.2550228989)" id="k_Zo8Q0ZuVcqqXZQruuXQ"  >
<path style="stroke: rgb(0,0,0); stroke-width: 1; stroke-dasharray: none; stroke-linecap: butt; stroke-dashoffset: 0; stroke-linejoin: miter; stroke-miterlimit: 4; fill: rgb(255,255,255); fill-opacity: 0; fill-rule: nonzero; opacity: 1;"  transform=" translate(0, 0)" d="M -44.91101 -23.36239 L 44.91101 23.362379999999998" stroke-linecap="round" />
</g>
<g transform="matrix(1 0 0 1 74.0686158586 169.9771760103)" id="WHMM-ZcU7RepWzERcNQP2"  >
<path style="stroke: rgb(0,0,0); stroke-width: 1; stroke-dasharray: none; stroke-linecap: butt; stroke-dashoffset: 0; stroke-linejoin: miter; stroke-miterlimit: 4; fill: rgb(255,255,255); fill-opacity: 0; fill-rule: nonzero; opacity: 1;"  transform=" translate(0, 0)" d="M -45.16101 23.41546 L 45.16101 -23.41546" stroke-linecap="round" />
</g>
<g transform="matrix(1 0 0 1 163.3906403302 169.9771760103)" id="6PQZPlvX4vmoX6kTC6HiF"  >
<path style="stroke: rgb(0,0,0); stroke-width: 1; stroke-dasharray: none; stroke-linecap: butt; stroke-dashoffset: 0; stroke-linejoin: miter; stroke-miterlimit: 4; fill: rgb(255,255,255); fill-opacity: 0; fill-rule: nonzero; opacity: 1;"  transform=" translate(0, 0)" d="M -44.66101 -23.41546 L 44.66101 23.41546" stroke-linecap="round" />
</g>
<g transform="matrix(1 0 0 1 118.6581129758 259.690720668)" id="Hzy3WSYsriRi_Ur-iaYqJ"  >
<path style="stroke: rgb(0,0,0); stroke-width: 1; stroke-dasharray: none; stroke-linecap: butt; stroke-dashoffset: 0; stroke-linejoin: miter; stroke-miterlimit: 4; fill: rgb(255,255,255); fill-opacity: 0; fill-rule: nonzero; opacity: 1;"  transform=" translate(0, 0)" d="M -0.07152 -19.07331 L 0.07150999999999999 19.073320000000002" stroke-linecap="round" />
</g>
<g transform="matrix(1 0 0 1 118.6938705351 296.1169894635)" id="SSMU8Kbt6s5MYu2gC4aXa"  >
<path style="stroke: rgb(0,0,0); stroke-width: 1; stroke-dasharray: none; stroke-linecap: butt; stroke-dashoffset: 0; stroke-linejoin: miter; stroke-miterlimit: 4; fill: rgb(255,255,255); fill-opacity: 0; fill-rule: nonzero; opacity: 1;"  transform=" translate(0, 0)" d="M -0.03576 -17.85296 L 0.03576 17.852950000000003" stroke-linecap="round" />
</g>
<g transform="matrix(1 0 0 1 163.3191250067 221.3699892657)" id="6-ivtn_RYSrAEuPDcABZR"  >
<path style="stroke: rgb(0,0,0); stroke-width: 1; stroke-dasharray: none; stroke-linecap: butt; stroke-dashoffset: 0; stroke-linejoin: miter; stroke-miterlimit: 4; fill: rgb(255,255,255); fill-opacity: 0; fill-rule: nonzero; opacity: 1;"  transform=" translate(0, 0)" d="M -44.44677 23.06502 L 44.44677 -23.065009999999997" stroke-linecap="round" />
</g>
<g transform="matrix(1 0 0 1 163.3191252116 225.2658300703)" id="J6P1BXp1oLmbc2bT8uS5d"  >
<path style="stroke: rgb(0,0,0); stroke-width: 1; stroke-dasharray: none; stroke-linecap: butt; stroke-dashoffset: 0; stroke-linejoin: miter; stroke-miterlimit: 4; fill: rgb(255,255,255); fill-opacity: 0; fill-rule: nonzero; opacity: 1;"  transform=" translate(0, -0.000005)" d="M -44.44677 23.06502 L 44.44677 -23.065009999999997" stroke-linecap="round" />
</g>
<g transform="matrix(1 0 0 1 183.1048827709 244.2987818354)" id="HnZb66FI4A2531Wk6RN2e"  >
<path style="stroke: rgb(0,0,0); stroke-width: 1; stroke-dasharray: none; stroke-linecap: butt; stroke-dashoffset: 0; stroke-linejoin: miter; stroke-miterlimit: 4; fill: rgb(255,255,255); fill-opacity: 0; fill-rule: nonzero; opacity: 1;"  transform=" translate(0, -0.000005)" d="M -44.44677 23.06502 L 44.44677 -23.065009999999997" stroke-linecap="round" />
</g>
<g transform="matrix(1 0 0 1 163.5333678571 229.0449118663)" id="U3QKd8hrIAQta4sdKgjYK"  >
<path style="stroke: rgb(0,0,0); stroke-width: 1; stroke-dasharray: none; stroke-linecap: butt; stroke-dashoffset: 0; stroke-linejoin: miter; stroke-miterlimit: 4; fill: rgb(255,255,255); fill-opacity: 0; fill-rule: nonzero; opacity: 1;"  transform=" translate(0, -0.000005)" d="M -44.44677 23.06502 L 44.44677 -23.065009999999997" stroke-linecap="round" />
</g>
<g transform="matrix(1 0 0 1 74.4316450108 258.8158096991)" id="KScNPVdCV9gX7YwKiZsse"  >
<path style="stroke: rgb(0,0,0); stroke-width: 1; stroke-dasharray: none; stroke-linecap: butt; stroke-dashoffset: 0; stroke-linejoin: miter; stroke-miterlimit: 4; fill: rgb(255,255,255); fill-opacity: 0; fill-rule: nonzero; opacity: 1;"  transform=" translate(0, 0)" d="M 44.15495 22.7709 L -44.15496 -22.7709" stroke-linecap="round" />
</g>
<g transform="matrix(1 0 0 1 74.5746730944 267.0829186215)" id="tK98sgzchXXUd_N3eU_Qh"  >
<path style="stroke: rgb(0,0,0); stroke-width: 1; stroke-dasharray: none; stroke-linecap: butt; stroke-dashoffset: 0; stroke-linejoin: miter; stroke-miterlimit: 4; fill: rgb(255,255,255); fill-opacity: 0; fill-rule: nonzero; opacity: 1;"  transform=" translate(0.000005, 0)" d="M 44.15495 22.7709 L -44.15496 -22.7709" stroke-linecap="round" />
</g>
<g transform="matrix(1 0 0 1 75.0746730944 263.0028034853)" id="tTOrBW-0b2Cw5tCruQ390"  >
<path style="stroke: rgb(0,0,0); stroke-width: 1; stroke-dasharray: none; stroke-linecap: butt; stroke-dashoffset: 0; stroke-linejoin: miter; stroke-miterlimit: 4; fill: rgb(255,255,255); fill-opacity: 0; fill-rule: nonzero; opacity: 1;"  transform=" translate(0, 0)" d="M 44.15495 22.7709 L -44.15496 -22.7709" stroke-linecap="round" />
</g>
<g transform="matrix(1 0 0 1 75.0746709407 271.2640331726)" id="-23TcUqn_vjuv9O5EH-dV"  >
<path style="stroke: rgb(0,0,0); stroke-width: 1; stroke-dasharray: none; stroke-linecap: butt; stroke-dashoffset: 0; stroke-linejoin: miter; stroke-miterlimit: 4; fill: rgb(255,255,255); fill-opacity: 0; fill-rule: nonzero; opacity: 1;"  transform=" translate(0.000005, 0)" d="M 44.15495 22.7709 L -44.15496 -22.7709" stroke-linecap="round" />
</g>
<g transform="matrix(1 0 0 1 74.0746730944 275.0867096991)" id="Sj2fpRIYIls2-ICCVtyyh"  >
<path style="stroke: rgb(0,0,0); stroke-width: 1; stroke-dasharray: none; stroke-linecap: butt; stroke-dashoffset: 0; stroke-linejoin: miter; stroke-miterlimit: 4; fill: rgb(255,255,255); fill-opacity: 0; fill-rule: nonzero; opacity: 1;"  transform=" translate(0.000005, 0)" d="M 44.15495 22.7709 L -44.15496 -22.7709" stroke-linecap="round" />
</g>
<g transform="matrix(1 0 0 1 74.4316428571 278.978350566)" id="zS3PVomCzmA3-xfYzMdAA"  >
<path style="stroke: rgb(0,0,0); stroke-width: 1; stroke-dasharray: none; stroke-linecap: butt; stroke-dashoffset: 0; stroke-linejoin: miter; stroke-miterlimit: 4; fill: rgb(255,255,255); fill-opacity: 0; fill-rule: nonzero; opacity: 1;"  transform=" translate(0.000005, 0)" d="M 44.15495 22.7709 L -44.15496 -22.7709" stroke-linecap="round" />
</g>
<g transform="matrix(1 0 0 1 74.5746682992 283.0959976249)" id="VuQYKpldIxt3_0E87Nl1F"  >
<path style="stroke: rgb(0,0,0); stroke-width: 1; stroke-dasharray: none; stroke-linecap: butt; stroke-dashoffset: 0; stroke-linejoin: miter; stroke-miterlimit: 4; fill: rgb(255,255,255); fill-opacity: 0; fill-rule: nonzero; opacity: 1;"  transform=" translate(0.000005, 0)" d="M 44.15495 22.7709 L -44.15496 -22.7709" stroke-linecap="round" />
</g>
<g transform="matrix(1 0 0 1 74.9316471644 287.0588459221)" id="ykB8jfXENV3I_WRpyqzxj"  >
<path style="stroke: rgb(0,0,0); stroke-width: 1; stroke-dasharray: none; stroke-linecap: butt; stroke-dashoffset: 0; stroke-linejoin: miter; stroke-miterlimit: 4; fill: rgb(255,255,255); fill-opacity: 0; fill-rule: nonzero; opacity: 1;"  transform=" translate(0.000005, 0)" d="M 44.15495 22.7709 L -44.15496 -22.7709" stroke-linecap="round" />
</g>
<g transform="matrix(1 0 0 1 163.3191202116 240.5700428989)" id="fBwiUMhdKDHb9kq-jSFyz"  >
<path style="stroke: rgb(0,0,0); stroke-width: 1; stroke-dasharray: none; stroke-linecap: butt; stroke-dashoffset: 0; stroke-linejoin: miter; stroke-miterlimit: 4; fill: rgb(255,255,255); fill-opacity: 0; fill-rule: nonzero; opacity: 1;"  transform=" translate(0.000005, 0)" d="M -44.44677 23.06502 L -32.3531 16.78918 L -4.885659999999998 2.5353400000000015 L 44.44676 -23.065019999999997" stroke-linecap="round" />
</g>
<g transform="matrix(1 0 0 1 164.0333628571 244.3140369856)" id="Nvi6bIBFL48KU-vqWg4rg"  >
<path style="stroke: rgb(0,0,0); stroke-width: 1; stroke-dasharray: none; stroke-linecap: butt; stroke-dashoffset: 0; stroke-linejoin: miter; stroke-miterlimit: 4; fill: rgb(255,255,255); fill-opacity: 0; fill-rule: nonzero; opacity: 1;"  transform=" translate(0.000005, 0)" d="M -44.44677 23.06502 L -32.3531 16.78918 L -4.885659999999998 2.5353400000000015 L 44.44676 -23.065019999999997" stroke-linecap="round" />
</g>
<g transform="matrix(1 0 0 1 163.6406355351 248.8308450703)" id="ELPBlnsIzrdrpgiX7nmk8"  >
<path style="stroke: rgb(0,0,0); stroke-width: 1; stroke-dasharray: none; stroke-linecap: butt; stroke-dashoffset: 0; stroke-linejoin: miter; stroke-miterlimit: 4; fill: rgb(255,255,255); fill-opacity: 0; fill-rule: nonzero; opacity: 1;"  transform=" translate(0.000005, 0)" d="M -44.44677 23.06502 L -32.3531 16.78918 L -4.885659999999998 2.5353400000000015 L 44.44676 -23.065019999999997" stroke-linecap="round" />
</g>
<g transform="matrix(1 0 0 1 164.1763930944 252.8408432796)" id="F_uGQOVvvites7NgULHNq"  >
<path style="stroke: rgb(0,0,0); stroke-width: 1; stroke-dasharray: none; stroke-linecap: butt; stroke-dashoffset: 0; stroke-linejoin: miter; stroke-miterlimit: 4; fill: rgb(255,255,255); fill-opacity: 0; fill-rule: nonzero; opacity: 1;"  transform=" translate(0, 0)" d="M -44.44677 23.06502 L -32.3531 16.78918 L -4.885659999999998 2.5353400000000015 L 44.44676 -23.065019999999997" stroke-linecap="round" />
</g>
<g transform="matrix(1 0 0 1 74.5746730944 290.6161214639)" id="_wuDKLo236Fn0DMlSTohn"  >
<path style="stroke: rgb(0,0,0); stroke-width: 1; stroke-dasharray: none; stroke-linecap: butt; stroke-dashoffset: 0; stroke-linejoin: miter; stroke-miterlimit: 4; fill: rgb(255,255,255); fill-opacity: 0; fill-rule: nonzero; opacity: 1;"  transform=" translate(0.000005, 0)" d="M 44.15495 22.7709 L -44.15496 -22.7709" stroke-linecap="round" />
</g>
</svg>