<svg width="290" height="401" viewBox="0 0 290 401" fill="none" xmlns="http://www.w3.org/2000/svg">
<path d="M19.848 394.816C77.7937 189.134 -40.0851 190.572 15.1674 13.6594C17.7113 5.51416 25.3857 0 33.919 0H270.426C272.162 0 273.901 0.208888 275.561 0.717624C285.99 3.91379 289.504 8.2079 290 19.5488V379.341C290 382.379 289.378 385.419 287.823 388.029C285.769 391.48 283.51 394.14 280.155 397.014C276.952 399.757 272.766 401 268.549 401H24.5008C21.8266 401 19.6588 398.832 19.6588 396.158C19.6588 395.712 19.7271 395.245 19.848 394.816Z" fill="#6DFFEE"/>
</svg>
