<svg width="439" height="401" viewBox="0 0 439 401" fill="none" xmlns="http://www.w3.org/2000/svg">
<path d="M30.1431 394.588C118.066 188.115 -62.4264 190.525 24.2251 11.0121C27.4639 4.30235 34.431 0 41.8815 0H411.584C412.744 0 413.904 0.0978804 415.045 0.310571C432.463 3.55722 438.217 7.7198 439 19.5488V377.375C439 381.65 437.755 385.931 434.79 389.012C431.203 392.738 427.058 395.584 420.423 398.986C417.762 400.351 414.796 401 411.806 401H34.3345C31.8077 401 29.7594 398.952 29.7594 396.425C29.7594 395.806 29.9005 395.158 30.1431 394.588Z" fill="#6DFFEE"/>
</svg>
